{
.appVersion = "3428";
.formatVersion = 3;
axes = (
{
name = Weight;
tag = wght;
},
{
name = Italic;
tag = ital;
}
);
classes = (
{
automatic = 1;

glyphs = (
{
color = 6;
glyphname = A;
kernLeft = A;
kernRight = A;
lastChange = "2025-10-01 23:22:38 +0000";
layers = (
{
anchors = (
{
name = bottom;
pos = (296,0);
},
{
name = center;
pos = (296,350);
},
{
name = ogonek;
pos = (588,0);
},
{
name = top;
pos = (296,700);
}
);
layerId = m01;
shapes = (
{
closed = 1;
nodes = (
(34,0,l),
(303,682,l),
(291,682,l),
(558,0,l),
(588,0,l),
(313,700,l),
(281,700,l),
(4,0,l)
);
},
{
closed = 1;
nodes = (
(493,183,l),
(493,207,l),
(98,207,l),
(98,183,l)
);
}
);
width = 592;
},
{
anchors = (
{
name = bottom;
pos = (334,0);
},
{
name = center;
pos = (334,350);
},
{
name = ogonek;
pos = (659,0);
},
{
name = top;
pos = (334,700);
}
);
layerId = m002;
shapes = (
{
closed = 1;
nodes = (
(103,0,l),
(347,642,l),
(321,642,l),
(564,0,l),
(659,0,l),
(384,700,l),
(284,700,l),
(8,0,l)
);
},
{
closed = 1;
nodes = (
(545,156,l),
(545,234,l),
(125,234,l),
(125,156,l)
);
}
);
width = 667;
},
{
anchors = (
{
name = bottom;
pos = (361,0);
},
{
name = center;
pos = (382,350);
},
{
name = ogonek;
pos = (731,0);
},
{
name = top;
pos = (361,700);
}
);
layerId = m003;
shapes = (
{
closed = 1;
nodes = (
(165,0,l),
(409,642,l),
(313,642,l),
(556,0,l),
(731,0,l),
(456,700,l),
(266,700,l),
(-10,0,l)
);
},
{
closed = 1;
nodes = (
(567,117,l),
(567,273,l),
(147,273,l),
(147,117,l)
);
}
);
width = 721;
},
{
anchors = (
{
name = bottom;
pos = (254,0);
},
{
name = center;
pos = (304,350);
},
{
name = ogonek;
pos = (546,0);
},
{
name = top;
pos = (377,700);
}
);
layerId = "A4970244-97B1-4FA9-B3E0-2569B3FA35F0";
shapes = (
{
closed = 1;
nodes = (
(-8,0,l),
(381,682,l),
(369,682,l),
(516,0,l),
(546,0,l),
(394,700,l),
(362,700,l),
(-38,0,l)
);
},
{
closed = 1;
nodes = (
(483,183,l),
(487,207,l),
(92,207,l),
(88,183,l)
);
}
);
width = 592;
},
{
anchors = (
{
name = bottom;
pos = (292,0);
},
{
name = center;
pos = (352,350);
},
{
name = ogonek;
pos = (617,0);
},
{
name = top;
pos = (415,700);
}
);
layerId = "E8DB84F4-EFBC-40F4-A45F-BC833EAAD3BD";
shapes = (
{
closed = 1;
nodes = (
(61,0,l),
(418,642,l),
(392,642,l),
(522,0,l),
(617,0,l),
(465,700,l),
(365,700,l),
(-34,0,l)
);
},
{
closed = 1;
nodes = (
(530,156,l),
(544,234,l),
(124,234,l),
(110,156,l)
);
}
);
width = 667;
},
{
anchors = (
{
name = bottom;
pos = (259,0);
},
{
name = center;
pos = (399,350);
},
{
name = ogonek;
pos = (689,0);
},
{
name = top;
pos = (431,700);
}
);
layerId = "ACA72793-194A-4122-860A-C95C9895C61C";
shapes = (
{
closed = 1;
nodes = (
(123,0,l),
(480,642,l),
(384,642,l),
(514,0,l),
(689,0,l),
(537,700,l),
(347,700,l),
(-52,0,l)
);
},
{
closed = 1;
nodes = (
(545,117,l),
(573,273,l),
(153,273,l),
(125,117,l)
);
}
);
width = 721;
}
);
metricRight = "=|";
unicode = 65;
},
{
color = 6;
glyphname = "Alpha-latin";
kernLeft = O;
kernRight = E;
lastChange = "2025-09-25 14:31:00 +0000";
layers = (
{
anchors = (
{
name = bottom;
pos = (493,0);
},
{
name = top;
pos = (493,700);
}
);
layerId = m01;
shapes = (
{
closed = 1;
nodes = (
(607,-16,o),
(771,145,o),
(771,350,cs),
(771,555,o),
(607,716,o),
(398,716,cs),
(193,716,o),
(32,555,o),
(32,350,cs),
(32,145,o),
(193,-16,o),
(398,-16,cs)
);
},
{
closed = 1;
nodes = (
(212,8,o),
(62,158,o),
(62,350,cs),
(62,542,o),
(212,692,o),
(404,692,cs),
(596,692,o),
(746,542,o),
(746,350,cs),
(746,158,o),
(596,8,o),
(404,8,cs)
);
},
{
closed = 1;
nodes = (
(920,0,l),
(920,26,l),
(881,26,ls),
(821,26,o),
(774,73,o),
(774,133,c),
(774,568,ls),
(774,627,o),
(821,674,o),
(880,674,cs),
(920,674,l),
(920,700,l),
(876,700,ls),
(803,700,o),
(746,642,o),
(746,569,cs),
(746,131,l),
(746,58,o),
(804,0,o),
(877,0,cs)
);
}
);
width = 955;
},
{
anchors = (
{
name = bottom;
pos = (496,0);
},
{
name = top;
pos = (496,700);
}
);
layerId = m002;
shapes = (
{
closed = 1;
nodes = (
(602,-16,o),
(763,145,o),
(763,350,cs),
(763,555,o),
(602,716,o),
(397,716,cs),
(195,716,o),
(36,555,o),
(36,350,cs),
(36,145,o),
(195,-16,o),
(397,-16,cs)
);
},
{
closed = 1;
nodes = (
(251,66,o),
(126,191,o),
(126,350,cs),
(126,509,o),
(251,634,o),
(410,634,cs),
(569,634,o),
(694,509,o),
(694,350,cs),
(694,191,o),
(569,66,o),
(410,66,cs)
);
},
{
closed = 1;
nodes = (
(918,0,l),
(918,78,l),
(847,78,ls),
(811,78,o),
(782,107,o),
(782,143,cs),
(782,557,ls),
(782,593,o),
(811,622,o),
(847,622,cs),
(918,622,l),
(918,700,l),
(822,700,ls),
(750,700,o),
(694,644,o),
(694,572,cs),
(694,128,ls),
(694,56,o),
(750,0,o),
(822,0,cs)
);
}
);
width = 958;
},
{
anchors = (
{
name = bottom;
pos = (499,0);
},
{
name = top;
pos = (499,700);
}
);
layerId = m003;
shapes = (
{
closed = 1;
nodes = (
(583,-16,o),
(744,145,o),
(744,350,cs),
(744,555,o),
(583,716,o),
(377,716,cs),
(184,716,o),
(32,555,o),
(32,350,cs),
(32,145,o),
(184,-16,o),
(377,-16,cs)
);
},
{
closed = 1;
nodes = (
(290,142,o),
(198,234,o),
(198,350,cs),
(198,466,o),
(290,558,o),
(406,558,cs),
(522,558,o),
(614,466,o),
(614,350,cs),
(614,234,o),
(522,142,o),
(406,142,cs)
);
},
{
closed = 1;
nodes = (
(931,0,l),
(931,136,l),
(830,136,ls),
(801,136,o),
(778,158,o),
(778,187,cs),
(778,512,ls),
(778,541,o),
(801,564,o),
(830,564,cs),
(931,564,l),
(931,700,l),
(781,700,ls),
(687,700,o),
(614,627,o),
(614,534,cs),
(614,167,ls),
(614,73,o),
(687,0,o),
(781,0,cs)
);
}
);
width = 967;
},
{
anchors = (
{
name = bottom;
pos = (451,0);
},
{
name = top;
pos = (574,700);
}
);
layerId = "A4970244-97B1-4FA9-B3E0-2569B3FA35F0";
shapes = (
{
closed = 1;
nodes = (
(563,-16,o),
(754,144,o),
(790,349,cs),
(826,554,o),
(690,716,o),
(481,716,cs),
(276,716,o),
(88,556,o),
(52,351,cs),
(15,146,o),
(149,-16,o),
(354,-16,cs)
);
},
{
closed = 1;
nodes = (
(170,8,o),
(47,157,o),
(81,349,cs),
(115,541,o),
(293,692,o),
(485,692,cs),
(677,692,o),
(799,543,o),
(766,351,cs),
(732,159,o),
(554,8,o),
(362,8,cs)
);
},
{
closed = 1;
nodes = (
(878,0,l),
(882,26,l),
(842,26,ls),
(782,26,o),
(744,72,o),
(755,132,c),
(832,567,ls),
(842,626,o),
(899,674,o),
(958,674,cs),
(997,674,l),
(1001,700,l),
(956,700,ls),
(883,700,o),
(817,643,o),
(804,570,cs),
(727,132,l),
(714,59,o),
(763,0,o),
(836,0,cs)
);
}
);
width = 955;
},
{
anchors = (
{
name = bottom;
pos = (454,0);
},
{
name = top;
pos = (577,700);
}
);
layerId = "E8DB84F4-EFBC-40F4-A45F-BC833EAAD3BD";
shapes = (
{
closed = 1;
nodes = (
(560,-16,o),
(746,142,o),
(782,347,cs),
(818,552,o),
(683,716,o),
(478,716,cs),
(276,716,o),
(92,558,o),
(56,353,cs),
(20,148,o),
(153,-16,o),
(355,-16,cs)
);
},
{
closed = 1;
nodes = (
(217,66,o),
(117,188,o),
(145,347,cs),
(173,506,o),
(324,634,o),
(483,634,cs),
(642,634,o),
(742,512,o),
(714,353,cs),
(686,194,o),
(535,66,o),
(376,66,cs)
);
},
{
closed = 1;
nodes = (
(876,0,l),
(889,78,l),
(815,78,ls),
(779,78,o),
(758,104,o),
(764,140,cs),
(837,554,ls),
(844,590,o),
(881,622,o),
(917,622,cs),
(985,622,l),
(999,700,l),
(900,700,ls),
(828,700,o),
(766,647,o),
(753,575,cs),
(675,131,ls),
(662,59,o),
(711,0,o),
(783,0,cs)
);
}
);
width = 958;
},
{
anchors = (
{
name = bottom;
pos = (457,0);
},
{
name = top;
pos = (580,700);
}
);
layerId = "ACA72793-194A-4122-860A-C95C9895C61C";
shapes = (
{
closed = 1;
nodes = (
(544,-16,o),
(726,140,o),
(762,345,cs),
(799,550,o),
(661,716,o),
(455,716,cs),
(262,716,o),
(89,560,o),
(52,355,cs),
(16,150,o),
(145,-16,o),
(338,-16,cs)
);
},
{
closed = 1;
nodes = (
(267,142,o),
(196,229,o),
(216,345,cs),
(237,461,o),
(352,558,o),
(468,558,cs),
(584,558,o),
(655,471,o),
(634,355,cs),
(614,239,o),
(499,142,o),
(383,142,cs)
);
},
{
closed = 1;
nodes = (
(889,0,l),
(913,136,l),
(806,136,ls),
(777,136,o),
(763,153,o),
(768,182,cs),
(825,507,ls),
(830,536,o),
(864,564,o),
(893,564,cs),
(988,564,l),
(1012,700,l),
(856,700,ls),
(762,700,o),
(683,632,o),
(667,539,cs),
(602,172,ls),
(586,78,o),
(650,0,o),
(744,0,cs)
);
}
);
width = 967;
}
);
metricLeft = O;
metricRight = E;
unicode = 11373;
},
{
color = 6;
glyphname = AE;
kernLeft = A;
kernRight = E;
lastChange = "2025-09-25 14:31:00 +0000";
layers = (
{
anchors = (
{
name = bottom;
pos = (374,0);
},
{
name = top;
pos = (374,700);
}
);
layerId = m01;
shapes = (
{
closed = 1;
nodes = (
(34,0,l),
(303,700,l),
(278,700,l),
(4,0,l)
);
},
{
closed = 1;
nodes = (
(375,183,l),
(375,207,l),
(100,207,l),
(100,183,l)
);
},
{
closed = 1;
nodes = (
(720,0,l),
(720,26,l),
(401,26,l),
(401,0,l)
);
},
{
closed = 1;
nodes = (
(422,0,l),
(312,700,l),
(284,700,l),
(394,0,l)
);
},
{
closed = 1;
nodes = (
(683,349,l),
(683,374,l),
(345,374,l),
(345,349,l)
);
},
{
closed = 1;
nodes = (
(662,675,l),
(662,700,l),
(304,700,l),
(304,675,l)
);
}
);
width = 755;
},
{
anchors = (
{
name = bottom;
pos = (393,0);
},
{
name = top;
pos = (393,700);
}
);
layerId = m002;
shapes = (
{
closed = 1;
nodes = (
(103,0,l),
(369,700,l),
(284,700,l),
(8,0,l)
);
},
{
closed = 1;
nodes = (
(445,156,l),
(445,234,l),
(125,234,l),
(125,156,l)
);
},
{
closed = 1;
nodes = (
(750,0,l),
(750,80,l),
(471,80,l),
(471,0,l)
);
},
{
closed = 1;
nodes = (
(502,0,l),
(392,700,l),
(304,700,l),
(414,0,l)
);
},
{
closed = 1;
nodes = (
(720,322,l),
(720,400,l),
(411,400,l),
(411,322,l)
);
},
{
closed = 1;
nodes = (
(692,622,l),
(692,700,l),
(380,700,l),
(380,622,l)
);
}
);
width = 790;
},
{
anchors = (
{
name = bottom;
pos = (413,0);
},
{
name = top;
pos = (413,700);
}
);
layerId = m003;
shapes = (
{
closed = 1;
nodes = (
(160,0,l),
(426,700,l),
(266,700,l),
(-10,0,l)
);
},
{
closed = 1;
nodes = (
(507,147,l),
(507,263,l),
(187,263,l),
(187,147,l)
);
},
{
closed = 1;
nodes = (
(812,0,l),
(812,160,l),
(533,160,l),
(533,0,l)
);
},
{
closed = 1;
nodes = (
(619,0,l),
(479,700,l),
(322,700,l),
(462,0,l)
);
},
{
closed = 1;
nodes = (
(792,285,l),
(792,437,l),
(473,437,l),
(473,285,l)
);
},
{
closed = 1;
nodes = (
(774,548,l),
(774,700,l),
(442,700,l),
(442,548,l)
);
}
);
width = 848;
},
{
anchors = (
{
name = bottom;
pos = (332,0);
},
{
name = top;
pos = (455,700);
}
);
layerId = "A4970244-97B1-4FA9-B3E0-2569B3FA35F0";
shapes = (
{
closed = 1;
nodes = (
(-8,0,l),
(384,700,l),
(359,700,l),
(-38,0,l)
);
},
{
closed = 1;
nodes = (
(365,183,l),
(369,207,l),
(94,207,l),
(90,183,l)
);
},
{
closed = 1;
nodes = (
(678,0,l),
(682,26,l),
(363,26,l),
(359,0,l)
);
},
{
closed = 1;
nodes = (
(380,0,l),
(393,700,l),
(365,700,l),
(352,0,l)
);
},
{
closed = 1;
nodes = (
(702,349,l),
(707,374,l),
(369,374,l),
(364,349,l)
);
},
{
closed = 1;
nodes = (
(739,675,l),
(743,700,l),
(385,700,l),
(381,675,l)
);
}
);
width = 755;
},
{
anchors = (
{
name = bottom;
pos = (351,0);
},
{
name = top;
pos = (474,700);
}
);
layerId = "E8DB84F4-EFBC-40F4-A45F-BC833EAAD3BD";
shapes = (
{
closed = 1;
nodes = (
(61,0,l),
(450,700,l),
(365,700,l),
(-34,0,l)
);
},
{
closed = 1;
nodes = (
(430,156,l),
(444,234,l),
(124,234,l),
(110,156,l)
);
},
{
closed = 1;
nodes = (
(708,0,l),
(722,80,l),
(443,80,l),
(429,0,l)
);
},
{
closed = 1;
nodes = (
(460,0,l),
(473,700,l),
(385,700,l),
(372,0,l)
);
},
{
closed = 1;
nodes = (
(734,322,l),
(748,400,l),
(439,400,l),
(425,322,l)
);
},
{
closed = 1;
nodes = (
(759,622,l),
(773,700,l),
(461,700,l),
(447,622,l)
);
}
);
width = 790;
},
{
anchors = (
{
name = bottom;
pos = (371,0);
},
{
name = top;
pos = (494,700);
}
);
layerId = "ACA72793-194A-4122-860A-C95C9895C61C";
shapes = (
{
closed = 1;
nodes = (
(118,0,l),
(507,700,l),
(347,700,l),
(-52,0,l)
);
},
{
closed = 1;
nodes = (
(491,147,l),
(511,263,l),
(191,263,l),
(171,147,l)
);
},
{
closed = 1;
nodes = (
(770,0,l),
(798,160,l),
(519,160,l),
(491,0,l)
);
},
{
closed = 1;
nodes = (
(577,0,l),
(560,700,l),
(403,700,l),
(420,0,l)
);
},
{
closed = 1;
nodes = (
(800,285,l),
(827,437,l),
(508,437,l),
(481,285,l)
);
},
{
closed = 1;
nodes = (
(828,548,l),
(855,700,l),
(523,700,l),
(496,548,l)
);
}
);
width = 848;
}
);
metricLeft = A;
metricRight = E;
unicode = 198;
},
{
color = 6;
glyphname = B;
kernLeft = H;
kernRight = B;
lastChange = "2025-09-25 14:31:00 +0000";
layers = (
{
anchors = (
{
name = bottom;
pos = (271,0);
},
{
name = center;
pos = (84,205);
},
{
name = top;
pos = (271,700);
}
);
layerId = m01;
shapes = (
{
closed = 1;
nodes = (
(361,0,ls),
(479,0,o),
(572,89,o),
(572,203,cs),
(572,318,o),
(479,407,o),
(361,406,c),
(82,406,l),
(82,382,l),
(365,382,ls),
(464,382,o),
(542,304,o),
(542,204,cs),
(542,104,o),
(464,26,o),
(365,26,cs),
(83,26,l),
(83,0,l)
);
},
{
closed = 1;
nodes = (
(98,0,l),
(98,700,l),
(70,700,l),
(70,0,l)
);
},
{
closed = 1;
nodes = (
(362,387,ls),
(457,387,o),
(532,457,o),
(532,545,cs),
(532,633,o),
(464,701,o),
(377,700,c),
(82,700,l),
(82,674,l),
(368,674,ls),
(443,674,o),
(502,615,o),
(502,540,cs),
(502,465,o),
(443,406,o),
(368,406,cs),
(82,406,l),
(82,387,l)
);
}
);
width = 607;
},
{
anchors = (
{
name = bottom;
pos = (294,0);
},
{
name = center;
pos = (124,203);
},
{
name = top;
pos = (294,700);
}
);
layerId = m002;
shapes = (
{
closed = 1;
nodes = (
(401,0,ls),
(522,0,o),
(612,86,o),
(612,203,cs),
(612,321,o),
(522,407,o),
(401,406,c),
(107,406,l),
(107,324,l),
(401,324,ls),
(470,324,o),
(522,272,o),
(522,203,cs),
(522,134,o),
(470,82,o),
(401,82,cs),
(107,82,l),
(107,0,l)
);
},
{
closed = 1;
nodes = (
(168,0,l),
(168,700,l),
(80,700,l),
(80,0,l)
);
},
{
closed = 1;
nodes = (
(306,348,ls),
(459,348,o),
(572,423,o),
(572,524,cs),
(572,626,o),
(489,701,o),
(376,700,c),
(122,700,l),
(122,618,l),
(376,618,ls),
(437,618,o),
(482,573,o),
(482,512,cs),
(482,451,o),
(437,406,o),
(376,406,cs),
(122,406,l),
(122,348,l)
);
}
);
width = 652;
},
{
anchors = (
{
name = bottom;
pos = (332,0);
},
{
name = center;
pos = (151,221);
},
{
name = top;
pos = (332,700);
}
);
layerId = m003;
shapes = (
{
closed = 1;
nodes = (
(419,0,ls),
(544,0,o),
(642,97,o),
(642,220,cs),
(642,344,o),
(544,441,o),
(419,440,c),
(137,440,l),
(137,298,l),
(411,298,ls),
(456,298,o),
(492,264,o),
(492,220,cs),
(492,176,o),
(456,142,o),
(411,142,cs),
(137,142,l),
(137,0,l)
);
},
{
closed = 1;
nodes = (
(236,0,l),
(236,700,l),
(72,700,l),
(72,0,l)
);
},
{
closed = 1;
nodes = (
(346,338,ls),
(489,338,o),
(602,420,o),
(602,525,cs),
(602,624,o),
(520,701,o),
(416,700,c),
(152,700,l),
(152,558,l),
(396,558,ls),
(427,558,o),
(452,535,o),
(452,505,cs),
(452,469,o),
(427,440,o),
(396,440,cs),
(152,440,l),
(152,338,l)
);
}
);
width = 678;
},
{
anchors = (
{
name = bottom;
pos = (229,0);
},
{
name = center;
pos = (78,205);
},
{
name = top;
pos = (352,700);
}
);
layerId = "A4970244-97B1-4FA9-B3E0-2569B3FA35F0";
shapes = (
{
closed = 1;
nodes = (
(320,0,ls),
(438,0,o),
(545,88,o),
(565,202,cs),
(586,317,o),
(507,407,o),
(389,406,c),
(111,406,l),
(107,382,l),
(391,382,ls),
(490,382,o),
(553,305,o),
(536,205,cs),
(518,105,o),
(425,26,o),
(326,26,cs),
(45,26,l),
(41,0,l)
);
},
{
closed = 1;
nodes = (
(56,0,l),
(179,700,l),
(151,700,l),
(28,0,l)
);
},
{
closed = 1;
nodes = (
(389,387,ls),
(484,387,o),
(570,456,o),
(586,544,cs),
(601,632,o),
(544,701,o),
(457,700,c),
(163,700,l),
(159,674,l),
(446,674,ls),
(521,674,o),
(568,616,o),
(555,541,cs),
(542,466,o),
(471,406,o),
(396,406,cs),
(111,406,l),
(108,387,l)
);
}
);
width = 607;
},
{
anchors = (
{
name = bottom;
pos = (252,0);
},
{
name = center;
pos = (117,203);
},
{
name = top;
pos = (375,700);
}
);
layerId = "E8DB84F4-EFBC-40F4-A45F-BC833EAAD3BD";
shapes = (
{
closed = 1;
nodes = (
(362,0,ls),
(483,0,o),
(584,83,o),
(605,200,cs),
(626,318,o),
(548,407,o),
(427,406,c),
(136,406,l),
(122,324,l),
(419,324,ls),
(488,324,o),
(528,275,o),
(516,206,cs),
(504,137,o),
(439,82,o),
(370,82,cs),
(79,82,l),
(65,0,l)
);
},
{
closed = 1;
nodes = (
(126,0,l),
(249,700,l),
(161,700,l),
(38,0,l)
);
},
{
closed = 1;
nodes = (
(328,348,ls),
(481,348,o),
(604,420,o),
(622,521,cs),
(640,623,o),
(567,701,o),
(454,700,c),
(203,700,l),
(189,618,l),
(446,618,ls),
(507,618,o),
(541,576,o),
(530,515,cs),
(520,454,o),
(463,406,o),
(402,406,cs),
(151,406,l),
(141,348,l)
);
}
);
width = 652;
},
{
anchors = (
{
name = bottom;
pos = (290,0);
},
{
name = center;
pos = (148,221);
},
{
name = top;
pos = (413,700);
}
);
layerId = "ACA72793-194A-4122-860A-C95C9895C61C";
shapes = (
{
closed = 1;
nodes = (
(382,0,ls),
(507,0,o),
(616,92,o),
(638,215,cs),
(659,339,o),
(574,441,o),
(449,440,c),
(172,440,l),
(147,298,l),
(427,298,ls),
(472,298,o),
(497,269,o),
(489,225,cs),
(482,181,o),
(433,142,o),
(388,142,cs),
(120,142,l),
(95,0,l)
);
},
{
closed = 1;
nodes = (
(194,0,l),
(317,700,l),
(153,700,l),
(30,0,l)
);
},
{
closed = 1;
nodes = (
(369,338,ls),
(512,338,o),
(633,415,o),
(651,520,cs),
(669,619,o),
(596,701,o),
(491,700,c),
(233,700,l),
(208,558,l),
(458,558,ls),
(489,558,o),
(505,540,o),
(500,510,cs),
(493,474,o),
(457,440,o),
(426,440,cs),
(187,440,l),
(169,338,l)
);
}
);
width = 678;
}
);
metricLeft = H;
metricRight = "=H/2";
unicode = 66;
},
{
glyphname = "Beta-latin";
layers = (
{
anchors = (
{
name = bottom;
pos = (271,0);
},
{
name = center;
pos = (84,205);
},
{
name = top;
pos = (271,700);
}
);
layerId = m01;
shapes = (
{
closed = 1;
nodes = (
(361,0,ls),
(479,0,o),
(572,89,o),
(572,203,cs),
(572,318,o),
(479,407,o),
(361,406,c),
(82,406,l),
(82,382,l),
(365,382,ls),
(464,382,o),
(542,304,o),
(542,204,cs),
(542,104,o),
(464,26,o),
(365,26,cs),
(83,26,l),
(83,0,l)
);
},
{
closed = 1;
nodes = (
(98,-170,l),
(98,700,l),
(70,700,l),
(70,-170,l)
);
},
{
closed = 1;
nodes = (
(362,387,ls),
(457,387,o),
(532,457,o),
(532,545,cs),
(532,633,o),
(464,701,o),
(377,700,c),
(82,700,l),
(82,674,l),
(368,674,ls),
(443,674,o),
(502,615,o),
(502,540,cs),
(502,465,o),
(443,406,o),
(368,406,cs),
(82,406,l),
(82,387,l)
);
}
);
width = 607;
},
{
anchors = (
{
name = bottom;
pos = (294,0);
},
{
name = center;
pos = (124,203);
},
{
name = top;
pos = (294,700);
}
);
layerId = m002;
shapes = (
{
closed = 1;
nodes = (
(401,0,ls),
(522,0,o),
(612,86,o),
(612,203,cs),
(612,321,o),
(522,407,o),
(401,406,c),
(107,406,l),
(107,324,l),
(401,324,ls),
(470,324,o),
(522,272,o),
(522,203,cs),
(522,134,o),
(470,82,o),
(401,82,cs),
(107,82,l),
(107,0,l)
);
},
{
closed = 1;
nodes = (
(168,-170,l),
(168,700,l),
(80,700,l),
(80,-170,l)
);
},
{
closed = 1;
nodes = (
(306,348,ls),
(459,348,o),
(572,423,o),
(572,524,cs),
(572,626,o),
(489,701,o),
(376,700,c),
(122,700,l),
(122,618,l),
(376,618,ls),
(437,618,o),
(482,573,o),
(482,512,cs),
(482,451,o),
(437,406,o),
(376,406,cs),
(122,406,l),
(122,348,l)
);
}
);
width = 652;
},
{
anchors = (
{
name = bottom;
pos = (332,0);
},
{
name = center;
pos = (151,221);
},
{
name = top;
pos = (332,700);
}
);
layerId = m003;
shapes = (
{
closed = 1;
nodes = (
(419,0,ls),
(544,0,o),
(642,97,o),
(642,220,cs),
(642,344,o),
(544,441,o),
(419,440,c),
(137,440,l),
(137,298,l),
(411,298,ls),
(456,298,o),
(492,264,o),
(492,220,cs),
(492,176,o),
(456,142,o),
(411,142,cs),
(137,142,l),
(137,0,l)
);
},
{
closed = 1;
nodes = (
(236,-170,l),
(236,700,l),
(72,700,l),
(72,-170,l)
);
},
{
closed = 1;
nodes = (
(346,338,ls),
(489,338,o),
(602,420,o),
(602,525,cs),
(602,624,o),
(520,701,o),
(416,700,c),
(152,700,l),
(152,558,l),
(396,558,ls),
(427,558,o),
(452,535,o),
(452,505,cs),
(452,469,o),
(427,440,o),
(396,440,cs),
(152,440,l),
(152,338,l)
);
}
);
width = 678;
},
{
anchors = (
{
name = bottom;
pos = (229,0);
},
{
name = center;
pos = (78,205);
},
{
name = top;
pos = (352,700);
}
);
layerId = "A4970244-97B1-4FA9-B3E0-2569B3FA35F0";
shapes = (
{
closed = 1;
nodes = (
(320,0,ls),
(438,0,o),
(545,88,o),
(565,202,cs),
(586,317,o),
(507,407,o),
(389,406,c),
(111,406,l),
(107,382,l),
(391,382,ls),
(490,382,o),
(553,305,o),
(536,205,cs),
(518,105,o),
(425,26,o),
(326,26,cs),
(45,26,l),
(41,0,l)
);
},
{
closed = 1;
nodes = (
(26,-170,l),
(179,700,l),
(151,700,l),
(-2,-170,l)
);
},
{
closed = 1;
nodes = (
(389,387,ls),
(484,387,o),
(570,456,o),
(586,544,cs),
(601,632,o),
(544,701,o),
(457,700,c),
(163,700,l),
(159,674,l),
(446,674,ls),
(521,674,o),
(568,616,o),
(555,541,cs),
(542,466,o),
(471,406,o),
(396,406,cs),
(111,406,l),
(108,387,l)
);
}
);
width = 607;
},
{
anchors = (
{
name = bottom;
pos = (252,0);
},
{
name = center;
pos = (117,203);
},
{
name = top;
pos = (375,700);
}
);
layerId = "E8DB84F4-EFBC-40F4-A45F-BC833EAAD3BD";
shapes = (
{
closed = 1;
nodes = (
(362,0,ls),
(483,0,o),
(584,83,o),
(605,200,cs),
(626,318,o),
(548,407,o),
(427,406,c),
(136,406,l),
(122,324,l),
(419,324,ls),
(488,324,o),
(528,275,o),
(516,206,cs),
(504,137,o),
(439,82,o),
(370,82,cs),
(79,82,l),
(65,0,l)
);
},
{
closed = 1;
nodes = (
(96,-170,l),
(249,700,l),
(161,700,l),
(8,-170,l)
);
},
{
closed = 1;
nodes = (
(328,348,ls),
(481,348,o),
(604,420,o),
(622,521,cs),
(640,623,o),
(567,701,o),
(454,700,c),
(203,700,l),
(189,618,l),
(446,618,ls),
(507,618,o),
(541,576,o),
(530,515,cs),
(520,454,o),
(463,406,o),
(402,406,cs),
(151,406,l),
(141,348,l)
);
}
);
width = 652;
},
{
anchors = (
{
name = bottom;
pos = (290,0);
},
{
name = center;
pos = (148,221);
},
{
name = top;
pos = (413,700);
}
);
layerId = "ACA72793-194A-4122-860A-C95C9895C61C";
shapes = (
{
closed = 1;
nodes = (
(382,0,ls),
(507,0,o),
(616,92,o),
(638,215,cs),
(659,339,o),
(574,441,o),
(449,440,c),
(172,440,l),
(147,298,l),
(407,298,ls),
(472,298,o),
(497,269,o),
(489,220,cs),
(482,181,o),
(443,142,o),
(388,142,cs),
(120,142,l),
(95,0,l)
);
},
{
closed = 1;
nodes = (
(164,-170,l),
(317,700,l),
(153,700,l),
(0,-170,l)
);
},
{
closed = 1;
nodes = (
(369,338,ls),
(512,338,o),
(633,415,o),
(651,520,cs),
(669,619,o),
(596,701,o),
(491,700,c),
(233,700,l),
(208,558,l),
(438,558,ls),
(489,558,o),
(505,540,o),
(498,500,cs),
(493,474,o),
(472,440,o),
(426,440,cs),
(187,440,l),
(169,338,l)
);
}
);
width = 678;
}
);
unicode = 42932;
},
{
color = 6;
glyphname = Bhook;
kernLeft = H;
kernRight = B;
lastChange = "2025-09-25 14:31:00 +0000";
layers = (
{
anchors = (
{
name = bottom;
pos = (371,0);
},
{
name = top;
pos = (371,700);
}
);
layerId = m01;
shapes = (
{
closed = 1;
nodes = (
(98,642,o),
(131,674,o),
(173,674,cs),
(214,674,l),
(214,700,l),
(170,700,ls),
(114,700,o),
(70,656,o),
(70,600,cs),
(70,571,l),
(98,571,l),
(98,601,l)
);
},
{
closed = 1;
nodes = (
(501,0,ls),
(619,0,o),
(712,89,o),
(712,203,cs),
(712,318,o),
(619,407,o),
(501,406,c),
(222,406,l),
(222,382,l),
(505,382,ls),
(604,382,o),
(682,304,o),
(682,204,cs),
(682,104,o),
(604,26,o),
(505,26,cs),
(223,26,l),
(223,0,l)
);
},
{
closed = 1;
nodes = (
(238,0,l),
(238,700,l),
(210,700,l),
(210,0,l)
);
},
{
closed = 1;
nodes = (
(502,387,ls),
(597,387,o),
(672,457,o),
(672,545,cs),
(672,633,o),
(604,701,o),
(517,700,c),
(222,700,l),
(222,674,l),
(508,674,ls),
(583,674,o),
(642,615,o),
(642,540,cs),
(642,465,o),
(583,406,o),
(508,406,cs),
(222,406,l),
(222,387,l)
);
}
);
width = 747;
},
{
anchors = (
{
name = bottom;
pos = (392,0);
},
{
name = top;
pos = (392,700);
}
);
layerId = m002;
shapes = (
{
closed = 1;
nodes = (
(158,605,o),
(171,618,o),
(188,618,cs),
(229,618,l),
(229,700,l),
(170,700,ls),
(120,700,o),
(80,660,o),
(80,610,cs),
(80,541,l),
(158,541,l),
(158,588,l)
);
},
{
closed = 1;
nodes = (
(538,0,ls),
(659,0,o),
(749,86,o),
(749,203,cs),
(749,321,o),
(659,407,o),
(538,406,c),
(244,406,l),
(244,324,l),
(538,324,ls),
(607,324,o),
(659,272,o),
(659,203,cs),
(659,134,o),
(607,82,o),
(538,82,cs),
(244,82,l),
(244,0,l)
);
},
{
closed = 1;
nodes = (
(305,0,l),
(305,700,l),
(217,700,l),
(217,0,l)
);
},
{
closed = 1;
nodes = (
(443,348,ls),
(596,348,o),
(709,423,o),
(709,524,cs),
(709,626,o),
(626,701,o),
(513,700,c),
(259,700,l),
(259,618,l),
(513,618,ls),
(574,618,o),
(619,573,o),
(619,512,cs),
(619,451,o),
(574,406,o),
(513,406,cs),
(259,406,l),
(259,348,l)
);
}
);
width = 789;
},
{
anchors = (
{
name = bottom;
pos = (430,0);
},
{
name = top;
pos = (430,700);
}
);
layerId = m003;
shapes = (
{
closed = 1;
nodes = (
(204,545,o),
(217,558,o),
(234,558,cs),
(270,558,l),
(270,700,l),
(212,700,ls),
(134,700,o),
(72,638,o),
(72,560,cs),
(72,491,l),
(204,491,l),
(204,528,l)
);
},
{
closed = 1;
nodes = (
(605,0,ls),
(730,0,o),
(828,97,o),
(828,220,cs),
(828,344,o),
(730,441,o),
(605,440,c),
(323,440,l),
(323,298,l),
(597,298,ls),
(642,298,o),
(678,264,o),
(678,220,cs),
(678,176,o),
(642,142,o),
(597,142,cs),
(323,142,l),
(323,0,l)
);
},
{
closed = 1;
nodes = (
(422,0,l),
(422,700,l),
(258,700,l),
(258,0,l)
);
},
{
closed = 1;
nodes = (
(532,338,ls),
(675,338,o),
(788,420,o),
(788,525,cs),
(788,624,o),
(706,701,o),
(602,700,c),
(338,700,l),
(338,558,l),
(582,558,ls),
(613,558,o),
(638,535,o),
(638,505,cs),
(638,469,o),
(613,440,o),
(582,440,cs),
(338,440,l),
(338,338,l)
);
}
);
width = 864;
},
{
anchors = (
{
name = bottom;
pos = (329,0);
},
{
name = top;
pos = (452,700);
}
);
layerId = "A4970244-97B1-4FA9-B3E0-2569B3FA35F0";
shapes = (
{
closed = 1;
nodes = (
(169,641,o),
(209,674,o),
(251,674,cs),
(291,674,l),
(295,700,l),
(250,700,ls),
(194,700,o),
(143,657,o),
(134,601,cs),
(128,571,l),
(156,571,l),
(162,600,l)
);
},
{
closed = 1;
nodes = (
(460,0,ls),
(578,0,o),
(685,88,o),
(705,202,cs),
(726,317,o),
(647,407,o),
(529,406,c),
(251,406,l),
(247,382,l),
(531,382,ls),
(630,382,o),
(693,305,o),
(676,205,cs),
(658,105,o),
(565,26,o),
(466,26,cs),
(185,26,l),
(181,0,l)
);
},
{
closed = 1;
nodes = (
(196,0,l),
(319,700,l),
(291,700,l),
(168,0,l)
);
},
{
closed = 1;
nodes = (
(529,387,ls),
(624,387,o),
(710,456,o),
(726,544,cs),
(741,632,o),
(684,701,o),
(597,700,c),
(303,700,l),
(299,674,l),
(586,674,ls),
(661,674,o),
(708,616,o),
(695,541,cs),
(682,466,o),
(611,406,o),
(536,406,cs),
(251,406,l),
(248,387,l)
);
}
);
width = 747;
},
{
anchors = (
{
name = bottom;
pos = (350,0);
},
{
name = top;
pos = (473,700);
}
);
layerId = "E8DB84F4-EFBC-40F4-A45F-BC833EAAD3BD";
shapes = (
{
closed = 1;
nodes = (
(222,602,o),
(241,618,o),
(258,618,cs),
(296,618,l),
(310,700,l),
(248,700,ls),
(198,700,o),
(155,663,o),
(146,613,cs),
(133,541,l),
(211,541,l),
(219,585,l)
);
},
{
closed = 1;
nodes = (
(499,0,ls),
(620,0,o),
(721,83,o),
(742,200,cs),
(763,318,o),
(685,407,o),
(564,406,c),
(273,406,l),
(259,324,l),
(556,324,ls),
(625,324,o),
(665,275,o),
(653,206,cs),
(641,137,o),
(576,82,o),
(507,82,cs),
(216,82,l),
(202,0,l)
);
},
{
closed = 1;
nodes = (
(263,0,l),
(386,700,l),
(298,700,l),
(175,0,l)
);
},
{
closed = 1;
nodes = (
(465,348,ls),
(618,348,o),
(741,420,o),
(759,521,cs),
(777,623,o),
(704,701,o),
(591,700,c),
(340,700,l),
(326,618,l),
(583,618,ls),
(644,618,o),
(678,576,o),
(667,515,cs),
(657,454,o),
(600,406,o),
(539,406,cs),
(288,406,l),
(278,348,l)
);
}
);
width = 789;
},
{
anchors = (
{
name = bottom;
pos = (388,0);
},
{
name = top;
pos = (511,700);
}
);
layerId = "ACA72793-194A-4122-860A-C95C9895C61C";
shapes = (
{
closed = 1;
nodes = (
(257,540,o),
(279,558,o),
(296,558,cs),
(326,558,l),
(351,700,l),
(287,700,ls),
(209,700,o),
(143,643,o),
(129,565,cs),
(116,491,l),
(248,491,l),
(254,523,l)
);
},
{
closed = 1;
nodes = (
(568,0,ls),
(693,0,o),
(802,92,o),
(824,215,cs),
(845,339,o),
(760,441,o),
(635,440,c),
(358,440,l),
(333,298,l),
(613,298,ls),
(658,298,o),
(683,269,o),
(675,225,cs),
(668,181,o),
(619,142,o),
(574,142,cs),
(306,142,l),
(281,0,l)
);
},
{
closed = 1;
nodes = (
(380,0,l),
(503,700,l),
(339,700,l),
(216,0,l)
);
},
{
closed = 1;
nodes = (
(555,338,ls),
(698,338,o),
(819,415,o),
(837,520,cs),
(855,619,o),
(782,701,o),
(677,700,c),
(419,700,l),
(394,558,l),
(644,558,ls),
(675,558,o),
(691,540,o),
(686,510,cs),
(679,474,o),
(643,440,o),
(612,440,cs),
(373,440,l),
(355,338,l)
);
}
);
width = 864;
}
);
metricLeft = B;
metricRight = B;
unicode = 385;
},
{
color = 6;
glyphname = C;
kernLeft = O;
kernRight = C;
lastChange = "2025-10-02 02:37:14 +0000";
layers = (
{
anchors = (
{
name = bottom;
pos = (384,0);
},
{
name = center;
pos = (382,350);
},
{
name = top;
pos = (384,700);
}
);
layerId = m01;
shapes = (
{
closed = 1;
nodes = (
(549,-16,o),
(676,74,o),
(731,205,c),
(706,218,l),
(657,94,o),
(538,8,o),
(398,8,cs),
(210,8,o),
(62,158,o),
(62,350,cs),
(62,542,o),
(210,692,o),
(398,692,cs),
(525,692,o),
(635,620,o),
(692,512,c),
(717,526,l),
(656,640,o),
(536,716,o),
(398,716,cs),
(193,716,o),
(32,555,o),
(32,350,cs),
(32,145,o),
(193,-16,o),
(398,-16,cs)
);
}
);
width = 766;
},
{
anchors = (
{
name = bottom;
pos = (395,0);
},
{
name = center;
pos = (388,350);
},
{
name = top;
pos = (395,700);
}
);
layerId = m002;
shapes = (
{
closed = 1;
nodes = (
(563,-16,o),
(688,71,o),
(739,207,c),
(663,243,l),
(625,135,o),
(527,66,o),
(402,66,cs),
(240,66,o),
(126,183,o),
(126,350,cs),
(126,517,o),
(240,634,o),
(402,634,cs),
(514,634,o),
(605,578,o),
(650,487,c),
(721,534,l),
(661,646,o),
(545,716,o),
(402,716,cs),
(187,716,o),
(36,565,o),
(36,350,cs),
(36,135,o),
(187,-16,o),
(402,-16,cs)
);
}
);
width = 779;
},
{
anchors = (
{
name = bottom;
pos = (390,0);
},
{
name = center;
pos = (383,350);
},
{
name = top;
pos = (390,700);
}
);
layerId = m003;
shapes = (
{
closed = 1;
nodes = (
(550,-16,o),
(679,76,o),
(733,208,c),
(584,278,l),
(557,198,o),
(484,142,o),
(398,142,cs),
(286,142,o),
(198,234,o),
(198,350,cs),
(198,466,o),
(286,558,o),
(398,558,cs),
(477,558,o),
(545,511,o),
(576,442,c),
(714,532,l),
(651,643,o),
(534,716,o),
(398,716,cs),
(193,716,o),
(32,555,o),
(32,350,cs),
(32,145,o),
(193,-16,o),
(398,-16,cs)
);
}
);
width = 769;
},
{
anchors = (
{
name = bottom;
pos = (357,0);
},
{
name = center;
pos = (406,350);
},
{
name = top;
pos = (480,700);
}
);
layerId = "A4970244-97B1-4FA9-B3E0-2569B3FA35F0";
shapes = (
{
closed = 1;
nodes = (
(505,-16,o),
(647,73,o),
(725,204,c),
(702,219,l),
(631,95,o),
(496,8,o),
(356,8,cs),
(168,8,o),
(47,157,o),
(81,349,cs),
(115,541,o),
(291,692,o),
(479,692,cs),
(606,692,o),
(703,621,o),
(741,513,c),
(767,525,l),
(726,639,o),
(619,716,o),
(481,716,cs),
(276,716,o),
(88,556,o),
(52,351,cs),
(15,146,o),
(149,-16,o),
(354,-16,cs)
);
}
);
width = 766;
},
{
anchors = (
{
name = bottom;
pos = (369,0);
},
{
name = center;
pos = (411,350);
},
{
name = top;
pos = (492,700);
}
);
layerId = "E8DB84F4-EFBC-40F4-A45F-BC833EAAD3BD";
shapes = (
{
closed = 1;
nodes = (
(521,-16,o),
(659,68,o),
(734,204,c),
(663,246,l),
(606,138,o),
(493,66,o),
(368,66,cs),
(206,66,o),
(115,180,o),
(145,347,cs),
(174,514,o),
(313,634,o),
(475,634,cs),
(587,634,o),
(666,581,o),
(695,490,c),
(771,532,l),
(731,644,o),
(626,716,o),
(483,716,cs),
(268,716,o),
(94,568,o),
(56,353,cs),
(18,138,o),
(145,-16,o),
(360,-16,cs)
);
}
);
width = 780;
},
{
anchors = (
{
name = bottom;
pos = (363,0);
},
{
name = center;
pos = (404,350);
},
{
name = top;
pos = (486,700);
}
);
layerId = "ACA72793-194A-4122-860A-C95C9895C61C";
shapes = (
{
closed = 1;
nodes = (
(511,-16,o),
(651,71,o),
(729,203,c),
(590,283,l),
(549,203,o),
(461,142,o),
(375,142,cs),
(263,142,o),
(196,229,o),
(216,345,cs),
(237,461,o),
(348,558,o),
(460,558,cs),
(539,558,o),
(596,516,o),
(615,447,c),
(762,527,l),
(718,638,o),
(612,716,o),
(476,716,cs),
(271,716,o),
(89,560,o),
(52,355,cs),
(16,150,o),
(154,-16,o),
(359,-16,cs)
);
}
);
width = 772;
}
);
metricLeft = O;
metricRight = "=H/2";
unicode = 67;
},
{
glyphname = "Chi-latin";
lastChange = "2025-10-02 01:21:14 +0000";
layers = (
{
layerId = m01;
shapes = (
{
closed = 1;
nodes = (
(906,-181,l),
(890,-213,o),
(799,-272,o),
(737,-170,c),
(223,649,l),
(147,770,o),
(26,702,o),
(4,658,c),
(30,648,l),
(46,680,o),
(135,738,o),
(199,637,c),
(713,-182,l),
(786,-302,o),
(909,-237,o),
(932,-191,c)
);
},
{
closed = 1;
nodes = (
(195,-234,l),
(479,230,l),
(455,242,l),
(163,-234,l)
);
},
{
closed = 1;
nodes = (
(767,700,l),
(734,700,l),
(453,242,l),
(477,230,l)
);
}
);
width = 936;
},
{
layerId = m002;
shapes = (
{
closed = 1;
nodes = (
(876,-141,l),
(867,-159,o),
(807,-208,o),
(758,-128,c),
(278,638,l),
(189,779,o),
(38,704,o),
(8,644,c),
(86,610,l),
(95,628,o),
(154,675,o),
(204,596,c),
(684,-168,l),
(770,-310,o),
(923,-237,o),
(954,-175,c)
);
},
{
closed = 1;
nodes = (
(230,-234,l),
(513,224,l),
(439,266,l),
(130,-234,l)
);
},
{
closed = 1;
nodes = (
(798,700,l),
(700,700,l),
(435,269,l),
(509,229,l)
);
}
);
width = 962;
},
{
layerId = m003;
shapes = (
{
closed = 1;
nodes = (
(810,-85,l),
(801,-103,o),
(778,-101,o),
(760,-71,c),
(326,620,l),
(224,782,o),
(37,717,o),
(-10,623,c),
(136,553,l),
(149,570,o),
(166,570,o),
(188,536,c),
(618,-150,l),
(718,-316,o),
(910,-247,o),
(956,-155,c)
);
},
{
closed = 1;
nodes = (
(276,-234,l),
(539,195,l),
(399,277,l),
(86,-234,l)
);
},
{
closed = 1;
nodes = (
(842,700,l),
(652,700,l),
(392,277,l),
(532,195,l)
);
}
);
width = 946;
},
{
layerId = "A4970244-97B1-4FA9-B3E0-2569B3FA35F0";
shapes = (
{
closed = 1;
nodes = (
(832,-180,l),
(811,-212,o),
(709,-273,o),
(665,-171,c),
(295,648,l),
(241,769,o),
(108,703,o),
(78,659,c),
(103,647,l),
(125,679,o),
(224,739,o),
(271,638,c),
(640,-181,l),
(692,-301,o),
(826,-238,o),
(857,-192,c)
);
},
{
closed = 1;
nodes = (
(112,-234,l),
(478,230,l),
(456,242,l),
(80,-234,l)
);
},
{
closed = 1;
nodes = (
(849,700,l),
(816,700,l),
(454,242,l),
(476,230,l)
);
}
);
width = 937;
},
{
layerId = "E8DB84F4-EFBC-40F4-A45F-BC833EAAD3BD";
shapes = (
{
closed = 1;
nodes = (
(810,-139,l),
(798,-157,o),
(728,-210,o),
(693,-130,c),
(348,636,l),
(284,777,o),
(121,706,o),
(80,646,c),
(154,608,l),
(166,626,o),
(235,677,o),
(271,598,c),
(616,-166,l),
(677,-308,o),
(842,-239,o),
(884,-177,c)
);
},
{
closed = 1;
nodes = (
(148,-234,l),
(512,224,l),
(446,266,l),
(48,-234,l)
);
},
{
closed = 1;
nodes = (
(881,700,l),
(783,700,l),
(442,269,l),
(509,229,l)
);
}
);
width = 966;
},
{
layerId = "ACA72793-194A-4122-860A-C95C9895C61C";
shapes = (
{
closed = 1;
nodes = (
(753,-80,l),
(741,-98,o),
(716,-106,o),
(703,-76,c),
(391,615,l),
(318,777,o),
(121,722,o),
(58,628,c),
(196,549,l),
(212,566,o),
(230,575,o),
(246,541,c),
(555,-145,l),
(626,-311,o),
(828,-252,o),
(890,-160,c)
);
},
{
closed = 1;
nodes = (
(194,-234,l),
(533,195,l),
(408,277,l),
(4,-234,l)
);
},
{
closed = 1;
nodes = (
(925,700,l),
(735,700,l),
(401,277,l),
(526,195,l)
);
}
);
width = 951;
}
);
metricLeft = X;
metricRight = X;
unicode = 42931;
},
{
color = 6;
glyphname = Chook;
kernLeft = O;
kernRight = C;
lastChange = "2025-09-25 14:31:00 +0000";
layers = (
{
anchors = (
{
name = bottom;
pos = (446,0);
},
{
name = top;
pos = (446,700);
}
);
layerId = m01;
shapes = (
{
closed = 1;
nodes = (
(549,-16,o),
(676,74,o),
(731,205,c),
(706,218,l),
(657,94,o),
(538,8,o),
(398,8,cs),
(210,8,o),
(62,158,o),
(62,350,cs),
(62,542,o),
(210,692,o),
(398,692,cs),
(525,692,o),
(635,620,o),
(692,512,c),
(717,526,l),
(656,640,o),
(536,716,o),
(398,716,cs),
(193,716,o),
(32,555,o),
(32,350,cs),
(32,145,o),
(193,-16,o),
(398,-16,cs)
);
},
{
closed = 1;
nodes = (
(720,662,o),
(753,694,o),
(795,694,cs),
(856,694,l),
(856,720,l),
(792,720,ls),
(736,720,o),
(692,676,o),
(692,620,cs),
(692,512,l),
(720,512,l),
(720,621,l)
);
}
);
width = 891;
},
{
anchors = (
{
name = bottom;
pos = (427,0);
},
{
name = top;
pos = (427,700);
}
);
layerId = m002;
shapes = (
{
closed = 1;
nodes = (
(563,-16,o),
(688,71,o),
(739,207,c),
(663,243,l),
(625,135,o),
(527,66,o),
(402,66,cs),
(240,66,o),
(126,183,o),
(126,350,cs),
(126,517,o),
(240,634,o),
(402,634,cs),
(514,634,o),
(605,578,o),
(650,487,c),
(721,534,l),
(661,646,o),
(545,716,o),
(402,716,cs),
(187,716,o),
(36,565,o),
(36,350,cs),
(36,135,o),
(187,-16,o),
(402,-16,cs)
);
},
{
closed = 1;
nodes = (
(738,630,o),
(751,643,o),
(768,643,cs),
(814,643,l),
(814,716,l),
(740,716,ls),
(690,716,o),
(650,676,o),
(650,626,cs),
(650,487,l),
(738,487,l),
(738,613,l)
);
}
);
width = 854;
},
{
anchors = (
{
name = bottom;
pos = (425,0);
},
{
name = top;
pos = (425,700);
}
);
layerId = m003;
shapes = (
{
closed = 1;
nodes = (
(550,-16,o),
(679,76,o),
(733,208,c),
(584,278,l),
(557,198,o),
(484,142,o),
(398,142,cs),
(286,142,o),
(198,234,o),
(198,350,cs),
(198,466,o),
(286,558,o),
(398,558,cs),
(477,558,o),
(545,511,o),
(576,442,c),
(714,532,l),
(651,643,o),
(534,716,o),
(398,716,cs),
(193,716,o),
(32,555,o),
(32,350,cs),
(32,145,o),
(193,-16,o),
(398,-16,cs)
);
},
{
closed = 1;
nodes = (
(738,564,o),
(751,577,o),
(768,577,cs),
(814,577,l),
(814,720,l),
(696,720,ls),
(629,720,o),
(576,667,o),
(576,600,cs),
(576,442,l),
(738,442,l),
(738,547,l)
);
}
);
width = 850;
},
{
anchors = (
{
name = bottom;
pos = (404,0);
},
{
name = top;
pos = (527,700);
}
);
layerId = "A4970244-97B1-4FA9-B3E0-2569B3FA35F0";
shapes = (
{
closed = 1;
nodes = (
(505,-16,o),
(647,73,o),
(725,204,c),
(702,219,l),
(631,95,o),
(496,8,o),
(356,8,cs),
(168,8,o),
(47,157,o),
(81,349,cs),
(115,541,o),
(291,692,o),
(479,692,cs),
(606,692,o),
(703,621,o),
(741,513,c),
(767,525,l),
(726,639,o),
(619,716,o),
(481,716,cs),
(276,716,o),
(88,556,o),
(52,351,cs),
(15,146,o),
(149,-16,o),
(354,-16,cs)
);
},
{
closed = 1;
nodes = (
(794,661,o),
(834,694,o),
(876,694,cs),
(936,694,l),
(941,720,l),
(876,720,ls),
(820,720,o),
(769,677,o),
(759,621,cs),
(740,512,l),
(768,512,l),
(787,620,l)
);
}
);
width = 891;
},
{
anchors = (
{
name = bottom;
pos = (385,0);
},
{
name = top;
pos = (508,700);
}
);
layerId = "E8DB84F4-EFBC-40F4-A45F-BC833EAAD3BD";
shapes = (
{
closed = 1;
nodes = (
(521,-16,o),
(659,68,o),
(734,204,c),
(663,246,l),
(606,138,o),
(493,66,o),
(368,66,cs),
(206,66,o),
(115,180,o),
(145,347,cs),
(174,514,o),
(313,634,o),
(475,634,cs),
(587,634,o),
(666,581,o),
(695,490,c),
(771,532,l),
(731,644,o),
(626,716,o),
(483,716,cs),
(268,716,o),
(94,568,o),
(56,353,cs),
(18,138,o),
(145,-16,o),
(360,-16,cs)
);
},
{
closed = 1;
nodes = (
(806,627,o),
(825,643,o),
(842,643,cs),
(885,643,l),
(898,716,l),
(821,716,ls),
(771,716,o),
(727,679,o),
(719,629,cs),
(694,487,l),
(782,487,l),
(803,610,l)
);
}
);
width = 854;
},
{
anchors = (
{
name = bottom;
pos = (383,0);
},
{
name = top;
pos = (506,700);
}
);
layerId = "ACA72793-194A-4122-860A-C95C9895C61C";
shapes = (
{
closed = 1;
nodes = (
(511,-16,o),
(651,71,o),
(729,203,c),
(590,283,l),
(549,203,o),
(461,142,o),
(375,142,cs),
(263,142,o),
(196,229,o),
(216,345,cs),
(237,461,o),
(348,558,o),
(460,558,cs),
(539,558,o),
(596,516,o),
(615,447,c),
(762,527,l),
(718,638,o),
(612,716,o),
(476,716,cs),
(271,716,o),
(89,560,o),
(52,355,cs),
(16,150,o),
(154,-16,o),
(359,-16,cs)
);
},
{
closed = 1;
nodes = (
(794,559,o),
(816,577,o),
(833,577,cs),
(873,577,l),
(899,720,l),
(775,720,ls),
(708,720,o),
(652,672,o),
(640,605,cs),
(612,442,l),
(774,442,l),
(791,542,l)
);
}
);
width = 850;
}
);
metricLeft = C;
metricRight = C;
unicode = 391;
},
{
color = 6;
glyphname = D;
kernLeft = H;
kernRight = D;
lastChange = "2025-09-25 14:31:00 +0000";
layers = (
{
anchors = (
{
name = bottom;
pos = (306,0);
},
{
name = center;
pos = (104,350);
},
{
name = top;
pos = (306,700);
}
);
layerId = m01;
shapes = (
{
closed = 1;
nodes = (
(328,0,ls),
(528,0,o),
(686,154,o),
(686,350,cs),
(686,547,o),
(527,701,o),
(325,700,c),
(82,700,l),
(82,676,l),
(316,676,ls),
(506,676,o),
(656,533,o),
(656,350,cs),
(656,167,o),
(508,24,o),
(319,24,cs),
(82,24,l),
(82,0,l),
(98,0,l),
(98,700,l),
(70,700,l),
(70,0,l)
);
}
);
width = 718;
},
{
anchors = (
{
name = bottom;
pos = (359,0);
},
{
name = center;
pos = (144,350);
},
{
name = top;
pos = (379,700);
}
);
layerId = m002;
shapes = (
{
closed = 1;
nodes = (
(368,0,ls),
(573,0,o),
(726,154,o),
(726,350,cs),
(726,547,o),
(572,701,o),
(365,700,c),
(122,700,l),
(122,618,l),
(376,618,ls),
(522,618,o),
(636,500,o),
(636,350,cs),
(636,200,o),
(523,82,o),
(379,82,cs),
(122,82,l),
(122,0,l),
(168,0,l),
(168,700,l),
(80,700,l),
(80,0,l)
);
}
);
width = 762;
},
{
anchors = (
{
name = bottom;
pos = (342,0);
},
{
name = center;
pos = (174,350);
},
{
name = top;
pos = (342,700);
}
);
layerId = m003;
shapes = (
{
closed = 1;
nodes = (
(398,0,ls),
(598,0,o),
(756,154,o),
(756,350,cs),
(756,547,o),
(597,701,o),
(395,700,c),
(152,700,l),
(152,544,l),
(396,544,ls),
(505,544,o),
(590,459,o),
(590,350,cs),
(590,241,o),
(505,156,o),
(396,156,cs),
(152,156,l),
(152,0,l),
(236,0,l),
(236,700,l),
(72,700,l),
(72,0,l)
);
}
);
width = 788;
},
{
anchors = (
{
name = bottom;
pos = (214,0);
},
{
name = center;
pos = (123,350);
},
{
name = top;
pos = (387,700);
}
);
layerId = "A4970244-97B1-4FA9-B3E0-2569B3FA35F0";
shapes = (
{
closed = 1;
nodes = (
(287,0,ls),
(487,0,o),
(671,153,o),
(705,349,cs),
(740,546,o),
(607,701,o),
(405,700,c),
(163,700,l),
(159,676,l),
(394,676,ls),
(584,676,o),
(708,534,o),
(676,351,cs),
(643,168,o),
(469,24,o),
(280,24,cs),
(44,24,l),
(40,0,l),
(56,0,l),
(179,700,l),
(151,700,l),
(28,0,l)
);
}
);
width = 718;
},
{
anchors = (
{
name = bottom;
pos = (257,0);
},
{
name = center;
pos = (163,350);
},
{
name = top;
pos = (460,700);
}
);
layerId = "E8DB84F4-EFBC-40F4-A45F-BC833EAAD3BD";
shapes = (
{
closed = 1;
nodes = (
(329,0,ls),
(534,0,o),
(710,151,o),
(745,347,cs),
(780,544,o),
(650,701,o),
(443,700,c),
(203,700,l),
(189,618,l),
(446,618,ls),
(592,618,o),
(682,503,o),
(656,353,cs),
(629,203,o),
(492,82,o),
(348,82,cs),
(94,82,l),
(80,0,l),
(126,0,l),
(249,700,l),
(161,700,l),
(38,0,l)
);
}
);
width = 762;
},
{
anchors = (
{
name = bottom;
pos = (290,0);
},
{
name = center;
pos = (193,350);
},
{
name = top;
pos = (423,700);
}
);
layerId = "ACA72793-194A-4122-860A-C95C9895C61C";
shapes = (
{
closed = 1;
nodes = (
(361,0,ls),
(561,0,o),
(740,149,o),
(774,345,cs),
(809,542,o),
(673,701,o),
(470,700,c),
(233,700,l),
(206,544,l),
(455,544,ls),
(564,544,o),
(630,464,o),
(610,355,cs),
(591,246,o),
(484,156,o),
(375,156,cs),
(137,156,l),
(110,0,l),
(194,0,l),
(317,700,l),
(153,700,l),
(30,0,l)
);
}
);
width = 787;
}
);
metricLeft = H;
metricRight = O;
unicode = 68;
},
{
color = 6;
glyphname = Dhook;
kernLeft = H;
kernRight = D;
lastChange = "2025-09-25 14:31:00 +0000";
layers = (
{
anchors = (
{
name = bottom;
pos = (426,0);
},
{
name = top;
pos = (426,700);
}
);
layerId = m01;
shapes = (
{
closed = 1;
nodes = (
(467,0,ls),
(667,0,o),
(825,154,o),
(825,350,cs),
(825,547,o),
(666,701,o),
(464,700,c),
(221,700,l),
(221,676,l),
(455,676,ls),
(645,676,o),
(795,533,o),
(795,350,cs),
(795,167,o),
(647,24,o),
(458,24,cs),
(221,24,l),
(221,0,l),
(237,0,l),
(237,700,l),
(209,700,l),
(209,0,l)
);
},
{
closed = 1;
nodes = (
(98,642,o),
(131,674,o),
(173,674,cs),
(214,674,l),
(214,700,l),
(170,700,ls),
(114,700,o),
(70,656,o),
(70,600,cs),
(70,571,l),
(98,571,l),
(98,601,l)
);
}
);
width = 857;
},
{
anchors = (
{
name = bottom;
pos = (444,0);
},
{
name = top;
pos = (444,700);
}
);
layerId = m002;
shapes = (
{
closed = 1;
nodes = (
(498,0,ls),
(703,0,o),
(856,154,o),
(856,350,cs),
(856,547,o),
(702,701,o),
(495,700,c),
(252,700,l),
(252,618,l),
(506,618,ls),
(652,618,o),
(766,500,o),
(766,350,cs),
(766,200,o),
(653,82,o),
(509,82,cs),
(252,82,l),
(252,0,l),
(298,0,l),
(298,700,l),
(210,700,l),
(210,0,l)
);
},
{
closed = 1;
nodes = (
(158,605,o),
(171,618,o),
(188,618,cs),
(229,618,l),
(229,700,l),
(170,700,ls),
(120,700,o),
(80,660,o),
(80,610,cs),
(80,541,l),
(158,541,l),
(158,588,l)
);
}
);
width = 892;
},
{
anchors = (
{
name = bottom;
pos = (484,0);
},
{
name = top;
pos = (484,700);
}
);
layerId = m003;
shapes = (
{
closed = 1;
nodes = (
(581,0,ls),
(781,0,o),
(939,154,o),
(939,350,cs),
(939,547,o),
(780,701,o),
(578,700,c),
(335,700,l),
(335,544,l),
(579,544,ls),
(688,544,o),
(773,459,o),
(773,350,cs),
(773,241,o),
(688,156,o),
(579,156,cs),
(335,156,l),
(335,0,l),
(419,0,l),
(419,700,l),
(255,700,l),
(255,0,l)
);
},
{
closed = 1;
nodes = (
(204,545,o),
(217,558,o),
(234,558,cs),
(270,558,l),
(270,700,l),
(212,700,ls),
(134,700,o),
(72,638,o),
(72,560,cs),
(72,491,l),
(204,491,l),
(204,528,l)
);
}
);
width = 971;
},
{
anchors = (
{
name = bottom;
pos = (384,0);
},
{
name = top;
pos = (507,700);
}
);
layerId = "A4970244-97B1-4FA9-B3E0-2569B3FA35F0";
shapes = (
{
closed = 1;
nodes = (
(426,0,ls),
(626,0,o),
(810,153,o),
(844,349,cs),
(879,546,o),
(746,701,o),
(544,700,c),
(302,700,l),
(298,676,l),
(533,676,ls),
(723,676,o),
(847,534,o),
(815,351,cs),
(782,168,o),
(608,24,o),
(419,24,cs),
(183,24,l),
(179,0,l),
(195,0,l),
(318,700,l),
(290,700,l),
(167,0,l)
);
},
{
closed = 1;
nodes = (
(169,641,o),
(209,674,o),
(251,674,cs),
(291,674,l),
(295,700,l),
(250,700,ls),
(194,700,o),
(143,657,o),
(134,601,cs),
(128,571,l),
(156,571,l),
(162,600,l)
);
}
);
width = 857;
},
{
anchors = (
{
name = bottom;
pos = (402,0);
},
{
name = top;
pos = (525,700);
}
);
layerId = "E8DB84F4-EFBC-40F4-A45F-BC833EAAD3BD";
shapes = (
{
closed = 1;
nodes = (
(459,0,ls),
(664,0,o),
(840,151,o),
(875,347,cs),
(910,544,o),
(780,701,o),
(573,700,c),
(333,700,l),
(319,618,l),
(576,618,ls),
(722,618,o),
(812,503,o),
(786,353,cs),
(759,203,o),
(622,82,o),
(478,82,cs),
(224,82,l),
(210,0,l),
(256,0,l),
(379,700,l),
(291,700,l),
(168,0,l)
);
},
{
closed = 1;
nodes = (
(222,602,o),
(241,618,o),
(258,618,cs),
(296,618,l),
(310,700,l),
(248,700,ls),
(198,700,o),
(155,663,o),
(146,613,cs),
(133,541,l),
(211,541,l),
(219,585,l)
);
}
);
width = 892;
},
{
anchors = (
{
name = bottom;
pos = (442,0);
},
{
name = top;
pos = (565,700);
}
);
layerId = "ACA72793-194A-4122-860A-C95C9895C61C";
shapes = (
{
closed = 1;
nodes = (
(544,0,ls),
(744,0,o),
(923,149,o),
(957,345,cs),
(992,542,o),
(856,701,o),
(653,700,c),
(416,700,l),
(389,544,l),
(638,544,ls),
(747,544,o),
(813,464,o),
(793,355,cs),
(774,246,o),
(667,156,o),
(558,156,cs),
(320,156,l),
(293,0,l),
(377,0,l),
(500,700,l),
(336,700,l),
(213,0,l)
);
},
{
closed = 1;
nodes = (
(257,540,o),
(279,558,o),
(296,558,cs),
(326,558,l),
(351,700,l),
(287,700,ls),
(209,700,o),
(143,643,o),
(129,565,cs),
(116,491,l),
(248,491,l),
(254,523,l)
);
}
);
width = 970;
}
);
metricLeft = D;
metricRight = D;
unicode = 394;
},
{
color = 6;
glyphname = Dtail;
kernLeft = H;
kernRight = D;
lastChange = "2025-09-25 14:31:00 +0000";
layers = (
{
anchors = (
{
name = bottom;
pos = (376,0);
},
{
name = center;
pos = (174,350);
},
{
name = top;
pos = (376,700);
}
);
layerId = m01;
shapes = (
{
closed = 1;
nodes = (
(398,0,ls),
(598,0,o),
(756,154,o),
(756,350,cs),
(756,547,o),
(597,701,o),
(395,700,c),
(152,700,l),
(152,676,l),
(386,676,ls),
(576,676,o),
(726,533,o),
(726,350,cs),
(726,167,o),
(578,24,o),
(389,24,cs),
(152,24,l),
(152,0,l),
(168,0,l),
(168,700,l),
(140,700,l),
(140,0,l)
);
},
{
closed = 1;
nodes = (
(398,339,l),
(398,361,l),
(100,361,l),
(100,339,l)
);
}
);
width = 788;
},
{
anchors = (
{
name = bottom;
pos = (419,0);
},
{
name = center;
pos = (204,350);
},
{
name = top;
pos = (439,700);
}
);
layerId = m002;
shapes = (
{
closed = 1;
nodes = (
(428,0,ls),
(633,0,o),
(786,154,o),
(786,350,cs),
(786,547,o),
(632,701,o),
(425,700,c),
(182,700,l),
(182,618,l),
(436,618,ls),
(582,618,o),
(696,500,o),
(696,350,cs),
(696,200,o),
(583,82,o),
(439,82,cs),
(182,82,l),
(182,0,l),
(228,0,l),
(228,700,l),
(140,700,l),
(140,0,l)
);
},
{
closed = 1;
nodes = (
(403,311,l),
(403,389,l),
(105,389,l),
(105,311,l)
);
}
);
width = 822;
},
{
anchors = (
{
name = bottom;
pos = (364,0);
},
{
name = center;
pos = (196,350);
},
{
name = top;
pos = (364,700);
}
);
layerId = m003;
shapes = (
{
closed = 1;
nodes = (
(420,0,ls),
(620,0,o),
(778,154,o),
(778,350,cs),
(778,547,o),
(619,701,o),
(417,700,c),
(174,700,l),
(174,544,l),
(418,544,ls),
(527,544,o),
(612,459,o),
(612,350,cs),
(612,241,o),
(527,156,o),
(418,156,cs),
(174,156,l),
(174,0,l),
(258,0,l),
(258,700,l),
(94,700,l),
(94,0,l)
);
},
{
closed = 1;
nodes = (
(361,292,l),
(361,408,l),
(63,408,l),
(63,292,l)
);
}
);
width = 810;
},
{
anchors = (
{
name = bottom;
pos = (334,0);
},
{
name = center;
pos = (193,350);
},
{
name = top;
pos = (457,700);
}
);
layerId = "A4970244-97B1-4FA9-B3E0-2569B3FA35F0";
shapes = (
{
closed = 1;
nodes = (
(357,0,ls),
(557,0,o),
(741,153,o),
(775,349,cs),
(810,546,o),
(677,701,o),
(475,700,c),
(233,700,l),
(229,676,l),
(464,676,ls),
(654,676,o),
(778,534,o),
(746,351,cs),
(713,168,o),
(539,24,o),
(350,24,cs),
(114,24,l),
(110,0,l),
(126,0,l),
(249,700,l),
(221,700,l),
(98,0,l)
);
},
{
closed = 1;
nodes = (
(415,339,l),
(419,361,l),
(121,361,l),
(117,339,l)
);
}
);
width = 788;
},
{
anchors = (
{
name = bottom;
pos = (377,0);
},
{
name = center;
pos = (223,350);
},
{
name = top;
pos = (520,700);
}
);
layerId = "E8DB84F4-EFBC-40F4-A45F-BC833EAAD3BD";
shapes = (
{
closed = 1;
nodes = (
(389,0,ls),
(594,0,o),
(770,151,o),
(805,347,cs),
(840,544,o),
(710,701,o),
(503,700,c),
(263,700,l),
(249,618,l),
(506,618,ls),
(652,618,o),
(742,503,o),
(716,353,cs),
(689,203,o),
(552,82,o),
(408,82,cs),
(154,82,l),
(140,0,l),
(186,0,l),
(309,700,l),
(221,700,l),
(98,0,l)
);
},
{
closed = 1;
nodes = (
(416,311,l),
(429,389,l),
(131,389,l),
(118,311,l)
);
}
);
width = 822;
},
{
anchors = (
{
name = bottom;
pos = (322,0);
},
{
name = center;
pos = (215,350);
},
{
name = top;
pos = (445,700);
}
);
layerId = "ACA72793-194A-4122-860A-C95C9895C61C";
shapes = (
{
closed = 1;
nodes = (
(383,0,ls),
(583,0,o),
(762,149,o),
(796,345,cs),
(831,542,o),
(695,701,o),
(492,700,c),
(255,700,l),
(228,544,l),
(477,544,ls),
(586,544,o),
(652,464,o),
(632,355,cs),
(613,246,o),
(506,156,o),
(397,156,cs),
(159,156,l),
(132,0,l),
(216,0,l),
(339,700,l),
(175,700,l),
(52,0,l)
);
},
{
closed = 1;
nodes = (
(370,292,l),
(391,408,l),
(93,408,l),
(72,292,l)
);
}
);
width = 809;
}
);
metricRight = D;
unicode = 393;
},
{
color = 6;
glyphname = E;
kernLeft = H;
kernRight = E;
lastChange = "2025-09-25 14:31:00 +0000";
layers = (
{
anchors = (
{
name = bottom;
pos = (288,0);
},
{
name = ogonek;
pos = (506,0);
},
{
name = top;
pos = (288,700);
},
{
name = topleft;
pos = (10,700);
}
);
layerId = m01;
shapes = (
{
closed = 1;
nodes = (
(98,0,l),
(98,700,l),
(70,700,l),
(70,0,l)
);
},
{
closed = 1;
nodes = (
(506,0,l),
(506,27,l),
(87,27,l),
(87,0,l)
);
},
{
closed = 1;
nodes = (
(486,349,l),
(486,375,l),
(87,375,l),
(87,349,l)
);
},
{
closed = 1;
nodes = (
(498,674,l),
(498,700,l),
(86,700,l),
(86,674,l)
);
}
);
width = 541;
},
{
anchors = (
{
name = bottom;
pos = (318,0);
},
{
name = ogonek;
pos = (556,0);
},
{
name = top;
pos = (318,700);
},
{
name = topleft;
pos = (10,700);
}
);
layerId = m002;
shapes = (
{
closed = 1;
nodes = (
(168,0,l),
(168,700,l),
(80,700,l),
(80,0,l)
);
},
{
closed = 1;
nodes = (
(556,0,l),
(556,82,l),
(137,82,l),
(137,0,l)
);
},
{
closed = 1;
nodes = (
(536,321,l),
(536,401,l),
(137,401,l),
(137,321,l)
);
},
{
closed = 1;
nodes = (
(548,620,l),
(548,700,l),
(136,700,l),
(136,620,l)
);
}
);
width = 596;
},
{
anchors = (
{
name = bottom;
pos = (325,0);
},
{
name = ogonek;
pos = (586,0);
},
{
name = top;
pos = (325,700);
},
{
name = topleft;
pos = (12,700);
}
);
layerId = m003;
shapes = (
{
closed = 1;
nodes = (
(236,0,l),
(236,700,l),
(72,700,l),
(72,0,l)
);
},
{
closed = 1;
nodes = (
(586,0,l),
(586,160,l),
(167,160,l),
(167,0,l)
);
},
{
closed = 1;
nodes = (
(566,284,l),
(566,436,l),
(167,436,l),
(167,284,l)
);
},
{
closed = 1;
nodes = (
(578,548,l),
(578,700,l),
(166,700,l),
(166,548,l)
);
}
);
width = 622;
},
{
anchors = (
{
name = bottom;
pos = (246,0);
},
{
name = ogonek;
pos = (464,0);
},
{
name = top;
pos = (369,700);
},
{
name = topleft;
pos = (91,700);
}
);
layerId = "A4970244-97B1-4FA9-B3E0-2569B3FA35F0";
shapes = (
{
closed = 1;
nodes = (
(56,0,l),
(179,700,l),
(151,700,l),
(28,0,l)
);
},
{
closed = 1;
nodes = (
(464,0,l),
(468,27,l),
(49,27,l),
(45,0,l)
);
},
{
closed = 1;
nodes = (
(505,349,l),
(510,375,l),
(111,375,l),
(106,349,l)
);
},
{
closed = 1;
nodes = (
(575,674,l),
(579,700,l),
(167,700,l),
(163,674,l)
);
}
);
width = 541;
},
{
anchors = (
{
name = bottom;
pos = (276,0);
},
{
name = ogonek;
pos = (514,0);
},
{
name = top;
pos = (399,700);
},
{
name = topleft;
pos = (91,700);
}
);
layerId = "E8DB84F4-EFBC-40F4-A45F-BC833EAAD3BD";
shapes = (
{
closed = 1;
nodes = (
(126,0,l),
(249,700,l),
(161,700,l),
(38,0,l)
);
},
{
closed = 1;
nodes = (
(514,0,l),
(528,82,l),
(109,82,l),
(95,0,l)
);
},
{
closed = 1;
nodes = (
(550,321,l),
(564,401,l),
(165,401,l),
(151,321,l)
);
},
{
closed = 1;
nodes = (
(615,620,l),
(629,700,l),
(217,700,l),
(203,620,l)
);
}
);
width = 596;
},
{
anchors = (
{
name = bottom;
pos = (283,0);
},
{
name = ogonek;
pos = (544,0);
},
{
name = top;
pos = (406,700);
},
{
name = topleft;
pos = (93,700);
}
);
layerId = "ACA72793-194A-4122-860A-C95C9895C61C";
shapes = (
{
closed = 1;
nodes = (
(194,0,l),
(317,700,l),
(153,700,l),
(30,0,l)
);
},
{
closed = 1;
nodes = (
(544,0,l),
(572,160,l),
(153,160,l),
(125,0,l)
);
},
{
closed = 1;
nodes = (
(574,284,l),
(601,436,l),
(202,436,l),
(175,284,l)
);
},
{
closed = 1;
nodes = (
(632,548,l),
(659,700,l),
(247,700,l),
(220,548,l)
);
}
);
width = 622;
}
);
metricLeft = H;
metricRight = "=H/2";
unicode = 69;
},
{
color = 6;
glyphname = Eopen;
kernLeft = "8";
kernRight = C;
lastChange = "2025-09-25 14:31:00 +0000";
layers = (
{
anchors = (
{
name = bottom;
pos = (275,0);
},
{
name = top;
pos = (275,700);
}
);
layerId = m01;
shapes = (
{
closed = 1;
nodes = (
(387,-16,o),
(485,46,o),
(530,140,c),
(507,147,l),
(467,65,o),
(377,10,o),
(281,10,cs),
(154,10,o),
(70,77,o),
(70,177,cs),
(70,287,o),
(180,360,o),
(345,360,c),
(345,384,l),
(180,384,o),
(70,444,o),
(70,535,cs),
(70,629,o),
(148,692,o),
(265,692,cs),
(355,692,o),
(440,642,o),
(476,568,c),
(501,575,l),
(458,660,o),
(368,716,o),
(275,716,cs),
(134,716,o),
(40,643,o),
(40,534,cs),
(40,450,o),
(117,385,o),
(232,372,c),
(117,360,o),
(40,282,o),
(40,178,cs),
(40,62,o),
(138,-16,o),
(284,-16,cs)
);
}
);
width = 550;
},
{
anchors = (
{
name = bottom;
pos = (275,0);
},
{
name = top;
pos = (275,700);
}
);
layerId = m002;
shapes = (
{
closed = 1;
nodes = (
(397,-16,o),
(491,46,o),
(530,140,c),
(451,167,l),
(423,109,o),
(363,66,o),
(281,66,cs),
(190,66,o),
(130,114,o),
(130,177,cs),
(130,274,o),
(254,328,o),
(345,328,c),
(345,416,l),
(254,416,o),
(130,449,o),
(130,535,cs),
(130,590,o),
(192,634,o),
(265,634,cs),
(350,634,o),
(405,601,o),
(428,554,c),
(501,575,l),
(468,660,o),
(381,716,o),
(285,716,cs),
(138,716,o),
(40,634,o),
(40,534,cs),
(40,441,o),
(124,384,o),
(232,372,c),
(124,361,o),
(40,281,o),
(40,178,cs),
(40,52,o),
(142,-16,o),
(294,-16,cs)
);
}
);
width = 550;
},
{
anchors = (
{
name = bottom;
pos = (312,0);
},
{
name = top;
pos = (312,700);
}
);
layerId = m003;
shapes = (
{
closed = 1;
nodes = (
(456,-16,o),
(567,50,o),
(604,148,c),
(444,212,l),
(430,170,o),
(385,142,o),
(332,142,cs),
(256,142,o),
(206,178,o),
(206,231,cs),
(206,281,o),
(273,315,o),
(373,315,c),
(373,429,l),
(273,429,o),
(206,454,o),
(206,492,cs),
(206,532,o),
(252,558,o),
(322,558,cs),
(363,558,o),
(404,537,o),
(424,506,c),
(589,560,l),
(546,654,o),
(432,716,o),
(303,716,cs),
(145,716,o),
(40,638,o),
(40,520,cs),
(40,446,o),
(90,387,o),
(165,372,c),
(90,361,o),
(40,294,o),
(40,205,cs),
(40,72,o),
(154,-16,o),
(326,-16,cs)
);
}
);
width = 624;
},
{
anchors = (
{
name = bottom;
pos = (233,0);
},
{
name = top;
pos = (356,700);
}
);
layerId = "A4970244-97B1-4FA9-B3E0-2569B3FA35F0";
shapes = (
{
closed = 1;
nodes = (
(343,-16,o),
(451,45,o),
(513,139,c),
(490,148,l),
(436,66,o),
(335,10,o),
(239,10,cs),
(112,10,o),
(41,76,o),
(59,176,cs),
(78,286,o),
(202,360,o),
(367,360,c),
(369,384,l),
(204,384,o),
(106,443,o),
(122,534,cs),
(138,628,o),
(229,692,o),
(346,692,cs),
(436,692,o),
(511,643,o),
(534,569,c),
(560,574,l),
(531,659,o),
(451,716,o),
(358,716,cs),
(217,716,o),
(111,644,o),
(92,535,cs),
(77,451,o),
(144,385,o),
(256,372,c),
(137,360,o),
(48,283,o),
(29,179,cs),
(9,63,o),
(94,-16,o),
(240,-16,cs)
);
}
);
width = 550;
},
{
anchors = (
{
name = bottom;
pos = (233,0);
},
{
name = top;
pos = (356,700);
}
);
layerId = "E8DB84F4-EFBC-40F4-A45F-BC833EAAD3BD";
shapes = (
{
closed = 1;
nodes = (
(355,-16,o),
(458,43,o),
(513,137,c),
(437,170,l),
(399,112,o),
(329,66,o),
(247,66,cs),
(156,66,o),
(107,111,o),
(118,174,cs),
(136,271,o),
(273,328,o),
(364,328,c),
(373,416,l),
(282,416,o),
(166,446,o),
(182,532,cs),
(191,587,o),
(265,634,o),
(338,634,cs),
(423,634,o),
(470,604,o),
(485,557,c),
(558,572,l),
(540,657,o),
(462,716,o),
(366,716,cs),
(219,716,o),
(110,637,o),
(92,537,cs),
(76,444,o),
(152,384,o),
(258,372,c),
(142,361,o),
(48,284,o),
(30,181,cs),
(7,55,o),
(100,-16,o),
(252,-16,cs)
);
}
);
width = 550;
},
{
anchors = (
{
name = bottom;
pos = (270,0);
},
{
name = top;
pos = (393,700);
}
);
layerId = "ACA72793-194A-4122-860A-C95C9895C61C";
shapes = (
{
closed = 1;
nodes = (
(417,-16,o),
(535,45,o),
(589,143,c),
(438,217,l),
(417,175,o),
(362,142,o),
(309,142,cs),
(233,142,o),
(194,173,o),
(203,226,cs),
(212,276,o),
(292,315,o),
(392,315,c),
(401,429,l),
(301,429,o),
(243,449,o),
(249,487,cs),
(257,527,o),
(314,558,o),
(384,558,cs),
(425,558,o),
(460,542,o),
(475,511,c),
(642,555,l),
(616,649,o),
(510,716,o),
(381,716,cs),
(223,716,o),
(111,643,o),
(90,525,cs),
(77,451,o),
(122,388,o),
(194,373,c),
(106,362,o),
(50,299,o),
(35,210,cs),
(11,77,o),
(115,-16,o),
(287,-16,cs)
);
}
);
width = 624;
}
);
unicode = 400;
},
{
color = 6;
glyphname = Esh;
kernRight = E;
lastChange = "2025-09-25 14:31:00 +0000";
layers = (
{
layerId = m01;
shapes = (
{
closed = 1;
nodes = (
(328,350,l),
(98,675,l),
(70,675,l),
(300,350,l)
);
},
{
closed = 1;
nodes = (
(506,0,l),
(506,26,l),
(70,26,l),
(70,0,l)
);
},
{
closed = 1;
nodes = (
(498,675,l),
(498,700,l),
(70,700,l),
(70,675,l)
);
},
{
closed = 1;
nodes = (
(300,350,l),
(70,26,l),
(98,26,l),
(328,350,l)
);
}
);
width = 541;
},
{
layerId = m002;
shapes = (
{
closed = 1;
nodes = (
(363,350,l),
(143,620,l),
(45,620,l),
(265,350,l)
);
},
{
closed = 1;
nodes = (
(521,0,l),
(521,82,l),
(45,82,l),
(45,0,l)
);
},
{
closed = 1;
nodes = (
(513,620,l),
(513,700,l),
(45,700,l),
(45,620,l)
);
},
{
closed = 1;
nodes = (
(265,350,l),
(45,82,l),
(143,82,l),
(363,350,l)
);
}
);
width = 544;
},
{
layerId = m003;
shapes = (
{
closed = 1;
nodes = (
(388,350,l),
(238,548,l),
(64,548,l),
(214,350,l)
);
},
{
closed = 1;
nodes = (
(559,0,l),
(559,160,l),
(64,160,l),
(64,0,l)
);
},
{
closed = 1;
nodes = (
(551,548,l),
(551,700,l),
(64,700,l),
(64,548,l)
);
},
{
closed = 1;
nodes = (
(214,350,l),
(64,160,l),
(238,160,l),
(388,350,l)
);
}
);
width = 582;
},
{
layerId = "A4970244-97B1-4FA9-B3E0-2569B3FA35F0";
shapes = (
{
closed = 1;
nodes = (
(347,350,l),
(175,675,l),
(147,675,l),
(319,350,l)
);
},
{
closed = 1;
nodes = (
(464,0,l),
(468,26,l),
(32,26,l),
(28,0,l)
);
},
{
closed = 1;
nodes = (
(575,675,l),
(579,700,l),
(151,700,l),
(147,675,l)
);
},
{
closed = 1;
nodes = (
(319,350,l),
(32,26,l),
(60,26,l),
(347,350,l)
);
}
);
width = 541;
},
{
layerId = "E8DB84F4-EFBC-40F4-A45F-BC833EAAD3BD";
shapes = (
{
closed = 1;
nodes = (
(382,350,l),
(210,620,l),
(112,620,l),
(284,350,l)
);
},
{
closed = 1;
nodes = (
(479,0,l),
(493,82,l),
(17,82,l),
(3,0,l)
);
},
{
closed = 1;
nodes = (
(580,620,l),
(594,700,l),
(126,700,l),
(112,620,l)
);
},
{
closed = 1;
nodes = (
(284,350,l),
(17,82,l),
(115,82,l),
(382,350,l)
);
}
);
width = 544;
},
{
layerId = "ACA72793-194A-4122-860A-C95C9895C61C";
shapes = (
{
closed = 1;
nodes = (
(407,350,l),
(292,548,l),
(118,548,l),
(233,350,l)
);
},
{
closed = 1;
nodes = (
(517,0,l),
(545,160,l),
(50,160,l),
(22,0,l)
);
},
{
closed = 1;
nodes = (
(605,548,l),
(632,700,l),
(145,700,l),
(118,548,l)
);
},
{
closed = 1;
nodes = (
(233,350,l),
(50,160,l),
(224,160,l),
(407,350,l)
);
}
);
width = 582;
}
);
unicode = 425;
},
{
glyphname = Estroke;
layers = (
{
anchors = (
{
name = bottom;
pos = (288,0);
},
{
name = ogonek;
pos = (506,0);
},
{
name = top;
pos = (288,700);
},
{
name = topleft;
pos = (10,700);
}
);
layerId = m01;
shapes = (
{
closed = 1;
nodes = (
(98,0,l),
(98,700,l),
(70,700,l),
(70,0,l)
);
},
{
closed = 1;
nodes = (
(506,0,l),
(506,27,l),
(87,27,l),
(87,0,l)
);
},
{
closed = 1;
nodes = (
(486,349,l),
(486,375,l),
(87,375,l),
(87,349,l)
);
},
{
closed = 1;
nodes = (
(498,674,l),
(498,700,l),
(86,700,l),
(86,674,l)
);
},
{
closed = 1;
nodes = (
(129,-74,l),
(150,-83,l),
(461,772,l),
(440,781,l)
);
}
);
width = 541;
},
{
anchors = (
{
name = bottom;
pos = (318,0);
},
{
name = ogonek;
pos = (556,0);
},
{
name = top;
pos = (318,700);
},
{
name = topleft;
pos = (10,700);
}
);
layerId = m002;
shapes = (
{
closed = 1;
nodes = (
(168,0,l),
(168,700,l),
(80,700,l),
(80,0,l)
);
},
{
closed = 1;
nodes = (
(556,0,l),
(556,82,l),
(137,82,l),
(137,0,l)
);
},
{
closed = 1;
nodes = (
(536,321,l),
(536,401,l),
(137,401,l),
(137,321,l)
);
},
{
closed = 1;
nodes = (
(548,620,l),
(548,700,l),
(136,700,l),
(136,620,l)
);
},
{
closed = 1;
nodes = (
(161,-66,l),
(226,-89,l),
(537,766,l),
(472,789,l)
);
}
);
width = 596;
},
{
anchors = (
{
name = bottom;
pos = (325,0);
},
{
name = ogonek;
pos = (586,0);
},
{
name = top;
pos = (325,700);
},
{
name = topleft;
pos = (12,700);
}
);
layerId = m003;
shapes = (
{
closed = 1;
nodes = (
(236,0,l),
(236,700,l),
(72,700,l),
(72,0,l)
);
},
{
closed = 1;
nodes = (
(586,0,l),
(586,160,l),
(167,160,l),
(167,0,l)
);
},
{
closed = 1;
nodes = (
(566,284,l),
(566,436,l),
(167,436,l),
(167,284,l)
);
},
{
closed = 1;
nodes = (
(578,548,l),
(578,700,l),
(166,700,l),
(166,548,l)
);
},
{
closed = 1;
nodes = (
(143,-46,l),
(265,-91,l),
(569,748,l),
(447,793,l)
);
}
);
width = 622;
},
{
anchors = (
{
name = bottom;
pos = (246,0);
},
{
name = ogonek;
pos = (464,0);
},
{
name = top;
pos = (369,700);
},
{
name = topleft;
pos = (91,700);
}
);
layerId = "A4970244-97B1-4FA9-B3E0-2569B3FA35F0";
shapes = (
{
closed = 1;
nodes = (
(56,0,l),
(179,700,l),
(151,700,l),
(28,0,l)
);
},
{
closed = 1;
nodes = (
(464,0,l),
(468,27,l),
(49,27,l),
(45,0,l)
);
},
{
closed = 1;
nodes = (
(505,349,l),
(510,375,l),
(111,375,l),
(106,349,l)
);
},
{
closed = 1;
nodes = (
(575,674,l),
(579,700,l),
(167,700,l),
(163,674,l)
);
},
{
closed = 1;
nodes = (
(87,-94,l),
(107,-103,l),
(534,794,l),
(514,803,l)
);
}
);
width = 541;
},
{
anchors = (
{
name = bottom;
pos = (276,0);
},
{
name = ogonek;
pos = (514,0);
},
{
name = top;
pos = (399,700);
},
{
name = topleft;
pos = (91,700);
}
);
layerId = "E8DB84F4-EFBC-40F4-A45F-BC833EAAD3BD";
shapes = (
{
closed = 1;
nodes = (
(126,0,l),
(249,700,l),
(161,700,l),
(38,0,l)
);
},
{
closed = 1;
nodes = (
(514,0,l),
(528,82,l),
(109,82,l),
(95,0,l)
);
},
{
closed = 1;
nodes = (
(550,321,l),
(564,401,l),
(165,401,l),
(151,321,l)
);
},
{
closed = 1;
nodes = (
(615,620,l),
(629,700,l),
(217,700,l),
(203,620,l)
);
},
{
closed = 1;
nodes = (
(137,-86,l),
(194,-111,l),
(620,786,l),
(563,811,l)
);
}
);
width = 596;
},
{
anchors = (
{
name = bottom;
pos = (283,0);
},
{
name = ogonek;
pos = (544,0);
},
{
name = top;
pos = (406,700);
},
{
name = topleft;
pos = (93,700);
}
);
layerId = "ACA72793-194A-4122-860A-C95C9895C61C";
shapes = (
{
closed = 1;
nodes = (
(194,0,l),
(317,700,l),
(153,700,l),
(30,0,l)
);
},
{
closed = 1;
nodes = (
(544,0,l),
(572,160,l),
(153,160,l),
(125,0,l)
);
},
{
closed = 1;
nodes = (
(574,284,l),
(601,436,l),
(202,436,l),
(175,284,l)
);
},
{
closed = 1;
nodes = (
(632,548,l),
(659,700,l),
(247,700,l),
(220,548,l)
);
},
{
closed = 1;
nodes = (
(133,-64,l),
(241,-114,l),
(658,766,l),
(550,816,l)
);
}
);
width = 622;
}
);
unicode = 582;
},
{
color = 6;
glyphname = Eturned;
lastChange = "2025-09-25 14:31:00 +0000";
layers = (
{
anchors = (
{
name = bottom;
pos = (278,0);
},
{
name = ogonek;
pos = (35,10);
},
{
name = top;
pos = (278,700);
},
{
name = topright;
pos = (531,700);
}
);
layerId = m01;
shapes = (
{
closed = 1;
nodes = (
(471,700,l),
(443,700,l),
(443,0,l),
(471,0,l)
);
},
{
closed = 1;
nodes = (
(454,27,l),
(35,27,l),
(35,0,l),
(454,0,l)
);
},
{
closed = 1;
nodes = (
(454,375,l),
(55,375,l),
(55,349,l),
(454,349,l)
);
},
{
closed = 1;
nodes = (
(455,700,l),
(43,700,l),
(43,674,l),
(455,674,l)
);
}
);
width = 541;
},
{
anchors = (
{
name = bottom;
pos = (306,0);
},
{
name = ogonek;
pos = (40,10);
},
{
name = top;
pos = (306,700);
},
{
name = topright;
pos = (586,700);
}
);
layerId = m002;
shapes = (
{
closed = 1;
nodes = (
(516,700,l),
(428,700,l),
(428,0,l),
(516,0,l)
);
},
{
closed = 1;
nodes = (
(459,82,l),
(40,82,l),
(40,0,l),
(459,0,l)
);
},
{
closed = 1;
nodes = (
(459,401,l),
(60,401,l),
(60,321,l),
(459,321,l)
);
},
{
closed = 1;
nodes = (
(460,700,l),
(48,700,l),
(48,620,l),
(460,620,l)
);
}
);
width = 596;
},
{
anchors = (
{
name = bottom;
pos = (317,0);
},
{
name = ogonek;
pos = (36,10);
},
{
name = top;
pos = (317,700);
},
{
name = topright;
pos = (610,700);
}
);
layerId = m003;
shapes = (
{
closed = 1;
nodes = (
(550,700,l),
(386,700,l),
(386,0,l),
(550,0,l)
);
},
{
closed = 1;
nodes = (
(455,160,l),
(36,160,l),
(36,0,l),
(455,0,l)
);
},
{
closed = 1;
nodes = (
(455,436,l),
(56,436,l),
(56,284,l),
(455,284,l)
);
},
{
closed = 1;
nodes = (
(456,700,l),
(44,700,l),
(44,548,l),
(456,548,l)
);
}
);
width = 622;
},
{
anchors = (
{
name = bottom;
pos = (278,0);
},
{
name = ogonek;
pos = (-5.473,10);
},
{
name = top;
pos = (278,700);
},
{
name = topright;
pos = (611.858,700);
}
);
layerId = "A4970244-97B1-4FA9-B3E0-2569B3FA35F0";
shapes = (
{
closed = 1;
nodes = (
(552,700,l),
(524,700,l),
(400,0,l),
(428,0,l)
);
},
{
closed = 1;
nodes = (
(417,27,l),
(-2,27,l),
(-8,0,l),
(411,0,l)
);
},
{
closed = 1;
nodes = (
(477,375,l),
(78,375,l),
(74,349,l),
(473,349,l)
);
},
{
closed = 1;
nodes = (
(536,700,l),
(124,700,l),
(119,674,l),
(531,674,l)
);
}
);
width = 541;
},
{
anchors = (
{
name = bottom;
pos = (306,0);
},
{
name = ogonek;
pos = (-0.473,10);
},
{
name = top;
pos = (306,700);
},
{
name = topright;
pos = (666.858,700);
}
);
layerId = "E8DB84F4-EFBC-40F4-A45F-BC833EAAD3BD";
shapes = (
{
closed = 1;
nodes = (
(597,700,l),
(509,700,l),
(385,0,l),
(473,0,l)
);
},
{
closed = 1;
nodes = (
(431,82,l),
(12,82,l),
(-3,0,l),
(416,0,l)
);
},
{
closed = 1;
nodes = (
(487,401,l),
(88,401,l),
(74,321,l),
(473,321,l)
);
},
{
closed = 1;
nodes = (
(541,700,l),
(129,700,l),
(115,620,l),
(527,620,l)
);
}
);
width = 596;
},
{
anchors = (
{
name = bottom;
pos = (317,0);
},
{
name = ogonek;
pos = (-4.473,10);
},
{
name = top;
pos = (317,700);
},
{
name = topright;
pos = (690.858,700);
}
);
layerId = "ACA72793-194A-4122-860A-C95C9895C61C";
shapes = (
{
closed = 1;
nodes = (
(631,700,l),
(467,700,l),
(343,0,l),
(507,0,l)
);
},
{
closed = 1;
nodes = (
(440,160,l),
(21,160,l),
(-7,0,l),
(412,0,l)
);
},
{
closed = 1;
nodes = (
(489,436,l),
(90,436,l),
(63,284,l),
(462,284,l)
);
},
{
closed = 1;
nodes = (
(537,700,l),
(125,700,l),
(98,548,l),
(510,548,l)
);
}
);
width = 622;
}
);
unicode = 398;
},
{
color = 6;
glyphname = Schwa;
kernLeft = O;
kernRight = O;
lastChange = "2025-09-25 14:31:00 +0000";
layers = (
{
anchors = (
{
name = bottom;
pos = (381,0);
},
{
name = top;
pos = (381,700);
}
);
layerId = m01;
shapes = (
{
closed = 1;
nodes = (
(255,716,o),
(121,656,o),
(60,579,c),
(85,555,l),
(140,629,o),
(261,688,o),
(359,688,cs),
(549,688,o),
(699,539,o),
(699,350,cs),
(699,161,o),
(562,12,o),
(388,12,cs),
(199,12,o),
(56,167,o),
(62,364,cs),
(62,377,o),
(62,389,o),
(63,390,c),
(36,390,l),
(34,381,o),
(32,368,o),
(32,361,cs),
(32,150,o),
(187,-16,o),
(385,-16,cs),
(578,-16,o),
(729,145,o),
(729,350,cs),
(729,555,o),
(569,716,o),
(365,716,cs)
);
},
{
closed = 1;
nodes = (
(48,390,l),
(48,364,l),
(712,364,l),
(712,390,l)
);
}
);
width = 761;
},
{
anchors = (
{
name = bottom;
pos = (385,0);
},
{
name = top;
pos = (385,700);
}
);
layerId = m002;
shapes = (
{
closed = 1;
nodes = (
(259,716,o),
(124,655,o),
(63,578,c),
(125,516,l),
(175,582,o),
(279,634,o),
(362,634,cs),
(520,634,o),
(644,509,o),
(644,349,cs),
(644,191,o),
(527,66,o),
(377,66,cs),
(246,66,o),
(136,184,o),
(126,335,cs),
(125,350,o),
(125,374,o),
(126,389,c),
(40,389,l),
(38,381,o),
(36,366,o),
(36,355,cs),
(39,147,o),
(194,-16,o),
(388,-16,cs),
(582,-16,o),
(734,145,o),
(734,349,cs),
(734,555,o),
(573,716,o),
(368,716,cs)
);
},
{
closed = 1;
nodes = (
(60,389,l),
(60,311,l),
(660,311,l),
(660,389,l)
);
}
);
width = 770;
},
{
anchors = (
{
name = bottom;
pos = (388,0);
},
{
name = top;
pos = (388,700);
}
);
layerId = m003;
shapes = (
{
closed = 1;
nodes = (
(262,716,o),
(134,661,o),
(83,591,c),
(187,485,l),
(228,526,o),
(298,558,o),
(346,558,cs),
(476,558,o),
(578,466,o),
(578,349,cs),
(578,233,o),
(492,142,o),
(383,142,cs),
(279,142,o),
(198,221,o),
(198,322,cs),
(198,360,o),
(207,400,o),
(218,413,c),
(38,413,l),
(35,389,o),
(32,358,o),
(32,342,c),
(29,142,o),
(188,-16,o),
(393,-16,cs),
(590,-16,o),
(744,145,o),
(744,349,cs),
(744,555,o),
(581,716,o),
(373,716,cs)
);
},
{
closed = 1;
nodes = (
(125,413,l),
(125,297,l),
(665,297,l),
(665,413,l)
);
}
);
width = 776;
},
{
anchors = (
{
name = bottom;
pos = (340,0);
},
{
name = top;
pos = (463,700);
}
);
layerId = "A4970244-97B1-4FA9-B3E0-2569B3FA35F0";
shapes = (
{
closed = 1;
nodes = (
(339,716,o),
(195,657,o),
(120,580,c),
(142,554,l),
(210,628,o),
(342,688,o),
(440,688,cs),
(630,688,o),
(753,540,o),
(720,351,cs),
(686,162,o),
(522,12,o),
(348,12,cs),
(159,12,o),
(44,166,o),
(85,363,cs),
(87,376,o),
(90,388,o),
(91,389,c),
(63,391,l),
(60,382,o),
(56,369,o),
(54,362,cs),
(17,151,o),
(144,-16,o),
(342,-16,cs),
(535,-16,o),
(713,144,o),
(749,349,cs),
(785,554,o),
(653,716,o),
(449,716,cs)
);
},
{
closed = 1;
nodes = (
(75,390,l),
(71,364,l),
(735,364,l),
(739,390,l)
);
}
);
width = 762;
},
{
anchors = (
{
name = bottom;
pos = (343,0);
},
{
name = top;
pos = (466,700);
}
);
layerId = "E8DB84F4-EFBC-40F4-A45F-BC833EAAD3BD";
shapes = (
{
closed = 1;
nodes = (
(340,716,o),
(196,657,o),
(121,580,c),
(175,514,l),
(237,580,o),
(352,634,o),
(435,634,cs),
(593,634,o),
(692,512,o),
(664,352,cs),
(636,194,o),
(493,66,o),
(343,66,cs),
(212,66,o),
(125,181,o),
(142,332,cs),
(144,347,o),
(148,371,o),
(152,386,c),
(66,392,l),
(63,384,o),
(59,369,o),
(57,358,cs),
(23,150,o),
(152,-16,o),
(346,-16,cs),
(540,-16,o),
(717,142,o),
(753,346,cs),
(789,552,o),
(654,716,o),
(449,716,cs)
);
},
{
closed = 1;
nodes = (
(86,389,l),
(73,311,l),
(673,311,l),
(686,389,l)
);
}
);
width = 770;
},
{
anchors = (
{
name = bottom;
pos = (346,0);
},
{
name = top;
pos = (469,700);
}
);
layerId = "ACA72793-194A-4122-860A-C95C9895C61C";
shapes = (
{
closed = 1;
nodes = (
(340,716,o),
(206,665,o),
(142,595,c),
(234,481,l),
(282,522,o),
(360,558,o),
(408,558,cs),
(538,558,o),
(619,471,o),
(598,354,cs),
(578,238,o),
(469,142,o),
(360,142,cs),
(256,142,o),
(194,216,o),
(211,317,cs),
(218,355,o),
(238,396,o),
(251,409,c),
(69,418,l),
(62,394,o),
(54,363,o),
(51,347,c),
(13,147,o),
(149,-16,o),
(354,-16,cs),
(551,-16,o),
(726,140,o),
(762,344,cs),
(799,550,o),
(659,716,o),
(451,716,cs)
);
},
{
closed = 1;
nodes = (
(156,413,l),
(135,297,l),
(675,297,l),
(696,413,l)
);
}
);
width = 776;
}
);
metricLeft = O;
metricRight = O;
unicode = 399;
},
{
color = 6;
glyphname = Ezh;
lastChange = "2025-09-25 14:31:00 +0000";
layers = (
{
anchors = (
{
name = bottom;
pos = (277,0);
},
{
name = top;
pos = (277,700);
}
);
layerId = m01;
shapes = (
{
closed = 1;
nodes = (
(399,-16,o),
(502,85,o),
(502,214,cs),
(502,343,o),
(398,443,o),
(265,442,c),
(265,417,l),
(381,417,o),
(472,327,o),
(472,213,cs),
(472,99,o),
(381,9,o),
(265,9,cs),
(149,9,o),
(58,93,o),
(58,201,c),
(28,201,l),
(28,79,o),
(133,-16,o),
(267,-16,cs)
);
},
{
closed = 1;
nodes = (
(270,417,l),
(270,426,l),
(483,674,l),
(449,674,l),
(241,429,l),
(241,417,l)
);
},
{
closed = 1;
nodes = (
(483,674,l),
(483,700,l),
(54,700,l),
(54,674,l)
);
}
);
width = 550;
},
{
anchors = (
{
name = bottom;
pos = (272,0);
},
{
name = top;
pos = (272,700);
}
);
layerId = m002;
shapes = (
{
closed = 1;
nodes = (
(401,-16,o),
(504,85,o),
(504,214,cs),
(504,343,o),
(400,443,o),
(267,442,c),
(267,360,l),
(349,360,o),
(414,295,o),
(414,213,cs),
(414,131,o),
(349,66,o),
(267,66,cs),
(185,66,o),
(120,125,o),
(120,201,c),
(30,201,l),
(30,79,o),
(135,-16,o),
(269,-16,cs)
);
},
{
closed = 1;
nodes = (
(272,360,l),
(272,396,l),
(485,618,l),
(373,618,l),
(195,429,l),
(195,360,l)
);
},
{
closed = 1;
nodes = (
(485,618,l),
(485,700,l),
(56,700,l),
(56,618,l)
);
}
);
width = 556;
},
{
anchors = (
{
name = bottom;
pos = (276,0);
},
{
name = top;
pos = (276,700);
}
);
layerId = m003;
shapes = (
{
closed = 1;
nodes = (
(410,-16,o),
(518,90,o),
(518,224,cs),
(518,358,o),
(409,463,o),
(271,462,c),
(271,304,l),
(316,304,o),
(352,268,o),
(352,223,cs),
(352,178,o),
(316,142,o),
(271,142,cs),
(226,142,o),
(190,172,o),
(190,211,c),
(24,211,l),
(24,84,o),
(134,-16,o),
(273,-16,cs)
);
},
{
closed = 1;
nodes = (
(286,304,l),
(286,336,l),
(499,544,l),
(297,544,l),
(159,409,l),
(159,304,l)
);
},
{
closed = 1;
nodes = (
(499,544,l),
(499,700,l),
(60,700,l),
(60,544,l)
);
}
);
width = 560;
},
{
anchors = (
{
name = bottom;
pos = (235,0);
},
{
name = top;
pos = (358,700);
}
);
layerId = "A4970244-97B1-4FA9-B3E0-2569B3FA35F0";
shapes = (
{
closed = 1;
nodes = (
(355,-16,o),
(475,84,o),
(497,213,cs),
(520,342,o),
(433,443,o),
(300,442,c),
(297,417,l),
(413,417,o),
(487,328,o),
(467,214,cs),
(447,100,o),
(339,9,o),
(223,9,cs),
(107,9,o),
(32,92,o),
(51,200,c),
(21,202,l),
(0,80,o),
(89,-16,o),
(223,-16,cs)
);
},
{
closed = 1;
nodes = (
(301,417,l),
(303,426,l),
(560,674,l),
(526,674,l),
(274,429,l),
(272,417,l)
);
},
{
closed = 1;
nodes = (
(560,674,l),
(564,700,l),
(135,700,l),
(131,674,l)
);
}
);
width = 550;
},
{
anchors = (
{
name = bottom;
pos = (230,0);
},
{
name = top;
pos = (353,700);
}
);
layerId = "E8DB84F4-EFBC-40F4-A45F-BC833EAAD3BD";
shapes = (
{
closed = 1;
nodes = (
(359,-16,o),
(476,82,o),
(499,211,cs),
(522,340,o),
(433,443,o),
(300,442,c),
(291,360,l),
(373,360,o),
(424,298,o),
(410,216,cs),
(395,134,o),
(315,66,o),
(233,66,cs),
(151,66,o),
(99,122,o),
(113,198,c),
(24,204,l),
(2,82,o),
(93,-16,o),
(227,-16,cs)
);
},
{
closed = 1;
nodes = (
(293,360,l),
(300,396,l),
(552,618,l),
(440,618,l),
(228,429,l),
(216,360,l)
);
},
{
closed = 1;
nodes = (
(552,618,l),
(566,700,l),
(137,700,l),
(123,618,l)
);
}
);
width = 556;
},
{
anchors = (
{
name = bottom;
pos = (234,0);
},
{
name = top;
pos = (357,700);
}
);
layerId = "ACA72793-194A-4122-860A-C95C9895C61C";
shapes = (
{
closed = 1;
nodes = (
(371,-16,o),
(491,85,o),
(514,219,cs),
(538,353,o),
(443,463,o),
(304,462,c),
(288,304,l),
(333,304,o),
(358,273,o),
(350,228,cs),
(342,183,o),
(293,142,o),
(248,142,cs),
(203,142,o),
(177,167,o),
(184,206,c),
(20,216,l),
(-3,89,o),
(95,-16,o),
(234,-16,cs)
);
},
{
closed = 1;
nodes = (
(297,304,l),
(303,336,l),
(553,544,l),
(351,544,l),
(189,409,l),
(170,304,l)
);
},
{
closed = 1;
nodes = (
(553,544,l),
(580,700,l),
(141,700,l),
(114,544,l)
);
}
);
width = 560;
}
);
metricLeft = three;
metricRight = three;
unicode = 439;
},
{
color = 6;
glyphname = Ezhreversed;
lastChange = "2025-09-25 14:31:00 +0000";
layers = (
{
anchors = (
{
name = bottom;
pos = (249,0);
},
{
name = top;
pos = (249,700);
}
);
layerId = m01;
shapes = (
{
closed = 1;
nodes = (
(421,-16,o),
(526,79,o),
(526,201,c),
(496,201,l),
(496,93,o),
(405,9,o),
(289,9,cs),
(173,9,o),
(82,99,o),
(82,213,cs),
(82,327,o),
(173,417,o),
(289,417,c),
(289,442,l),
(156,443,o),
(52,343,o),
(52,214,cs),
(52,85,o),
(155,-16,o),
(287,-16,cs)
);
},
{
closed = 1;
nodes = (
(313,429,l),
(105,674,l),
(71,674,l),
(284,426,l),
(284,417,l),
(313,417,l)
);
},
{
closed = 1;
nodes = (
(500,700,l),
(71,700,l),
(71,674,l),
(500,674,l)
);
}
);
width = 557;
},
{
anchors = (
{
name = bottom;
pos = (262,0);
},
{
name = top;
pos = (262,700);
}
);
layerId = m002;
shapes = (
{
closed = 1;
nodes = (
(441,-16,o),
(546,79,o),
(546,201,c),
(456,201,l),
(456,125,o),
(391,66,o),
(309,66,cs),
(227,66,o),
(162,131,o),
(162,213,cs),
(162,295,o),
(227,360,o),
(309,360,c),
(309,442,l),
(176,443,o),
(72,343,o),
(72,214,cs),
(72,85,o),
(175,-16,o),
(307,-16,cs)
);
},
{
closed = 1;
nodes = (
(381,429,l),
(203,618,l),
(91,618,l),
(304,396,l),
(304,360,l),
(381,360,l)
);
},
{
closed = 1;
nodes = (
(520,700,l),
(91,700,l),
(91,618,l),
(520,618,l)
);
}
);
width = 588;
},
{
anchors = (
{
name = bottom;
pos = (272,0);
},
{
name = top;
pos = (272,700);
}
);
layerId = m003;
shapes = (
{
closed = 1;
nodes = (
(444,-16,o),
(554,84,o),
(554,211,c),
(388,211,l),
(388,172,o),
(352,142,o),
(307,142,cs),
(262,142,o),
(226,178,o),
(226,223,cs),
(226,268,o),
(262,304,o),
(307,304,c),
(307,462,l),
(169,463,o),
(60,358,o),
(60,224,cs),
(60,90,o),
(168,-16,o),
(305,-16,cs)
);
},
{
closed = 1;
nodes = (
(419,409,l),
(281,544,l),
(79,544,l),
(292,336,l),
(292,304,l),
(419,304,l)
);
},
{
closed = 1;
nodes = (
(518,700,l),
(79,700,l),
(79,544,l),
(518,544,l)
);
}
);
width = 590;
},
{
anchors = (
{
name = bottom;
pos = (249,0);
},
{
name = top;
pos = (249,700);
}
);
layerId = "A4970244-97B1-4FA9-B3E0-2569B3FA35F0";
shapes = (
{
closed = 1;
nodes = (
(377,-16,o),
(497,78,o),
(519,200,c),
(489,202,l),
(470,94,o),
(363,9,o),
(247,9,cs),
(131,9,o),
(57,98,o),
(77,212,cs),
(97,326,o),
(205,417,o),
(321,417,c),
(324,442,l),
(191,443,o),
(70,344,o),
(48,215,cs),
(25,86,o),
(111,-16,o),
(243,-16,cs)
);
},
{
closed = 1;
nodes = (
(346,429,l),
(182,674,l),
(148,674,l),
(317,426,l),
(315,417,l),
(344,417,l)
);
},
{
closed = 1;
nodes = (
(581,700,l),
(152,700,l),
(148,674,l),
(577,674,l)
);
}
);
width = 557;
},
{
anchors = (
{
name = bottom;
pos = (262,0);
},
{
name = top;
pos = (262,700);
}
);
layerId = "E8DB84F4-EFBC-40F4-A45F-BC833EAAD3BD";
shapes = (
{
closed = 1;
nodes = (
(399,-16,o),
(517,76,o),
(539,198,c),
(450,204,l),
(436,128,o),
(357,66,o),
(275,66,cs),
(193,66,o),
(142,128,o),
(157,210,cs),
(171,292,o),
(251,360,o),
(333,360,c),
(342,442,l),
(209,443,o),
(91,346,o),
(68,217,cs),
(45,88,o),
(133,-16,o),
(265,-16,cs)
);
},
{
closed = 1;
nodes = (
(414,429,l),
(270,618,l),
(158,618,l),
(332,396,l),
(325,360,l),
(402,360,l)
);
},
{
closed = 1;
nodes = (
(601,700,l),
(172,700,l),
(158,618,l),
(587,618,l)
);
}
);
width = 588;
},
{
anchors = (
{
name = bottom;
pos = (272,0);
},
{
name = top;
pos = (272,700);
}
);
layerId = "ACA72793-194A-4122-860A-C95C9895C61C";
shapes = (
{
closed = 1;
nodes = (
(405,-16,o),
(526,79,o),
(548,206,c),
(384,216,l),
(377,177,o),
(329,142,o),
(284,142,cs),
(239,142,o),
(214,173,o),
(222,218,cs),
(230,263,o),
(279,304,o),
(324,304,c),
(340,462,l),
(203,463,o),
(82,363,o),
(58,229,cs),
(35,95,o),
(129,-16,o),
(266,-16,cs)
);
},
{
closed = 1;
nodes = (
(449,409,l),
(335,544,l),
(133,544,l),
(309,336,l),
(303,304,l),
(430,304,l)
);
},
{
closed = 1;
nodes = (
(599,700,l),
(160,700,l),
(133,544,l),
(572,544,l)
);
}
);
width = 590;
}
);
unicode = 440;
},
{
color = 6;
glyphname = F;
kernLeft = H;
kernRight = F;
lastChange = "2025-09-25 14:31:00 +0000";
layers = (
{
anchors = (
{
name = bottom;
pos = (277,0);
},
{
name = top;
pos = (277,700);
}
);
layerId = m01;
shapes = (
{
closed = 1;
nodes = (
(98,0,l),
(98,700,l),
(70,700,l),
(70,0,l)
);
},
{
closed = 1;
nodes = (
(496,317,l),
(496,341,l),
(87,341,l),
(87,317,l)
);
},
{
closed = 1;
nodes = (
(495,676,l),
(495,700,l),
(86,700,l),
(86,676,l)
);
}
);
width = 531;
},
{
anchors = (
{
name = bottom;
pos = (311,0);
},
{
name = top;
pos = (311,700);
}
);
layerId = m002;
shapes = (
{
closed = 1;
nodes = (
(168,0,l),
(168,700,l),
(80,700,l),
(80,0,l)
);
},
{
closed = 1;
nodes = (
(546,290,l),
(546,368,l),
(137,368,l),
(137,290,l)
);
},
{
closed = 1;
nodes = (
(545,622,l),
(545,700,l),
(136,700,l),
(136,622,l)
);
}
);
width = 586;
},
{
anchors = (
{
name = bottom;
pos = (334,0);
},
{
name = top;
pos = (334,700);
}
);
layerId = m003;
shapes = (
{
closed = 1;
nodes = (
(236,0,l),
(236,700,l),
(72,700,l),
(72,0,l)
);
},
{
closed = 1;
nodes = (
(561,243,l),
(561,395,l),
(167,395,l),
(167,243,l)
);
},
{
closed = 1;
nodes = (
(575,548,l),
(575,700,l),
(166,700,l),
(166,548,l)
);
}
);
width = 611;
},
{
anchors = (
{
name = bottom;
pos = (235,0);
},
{
name = top;
pos = (358,700);
}
);
layerId = "A4970244-97B1-4FA9-B3E0-2569B3FA35F0";
shapes = (
{
closed = 1;
nodes = (
(56,0,l),
(179,700,l),
(151,700,l),
(28,0,l)
);
},
{
closed = 1;
nodes = (
(510,317,l),
(514,341,l),
(105,341,l),
(101,317,l)
);
},
{
closed = 1;
nodes = (
(572,676,l),
(576,700,l),
(167,700,l),
(163,676,l)
);
}
);
width = 531;
},
{
anchors = (
{
name = bottom;
pos = (269,0);
},
{
name = top;
pos = (392,700);
}
);
layerId = "E8DB84F4-EFBC-40F4-A45F-BC833EAAD3BD";
shapes = (
{
closed = 1;
nodes = (
(126,0,l),
(249,700,l),
(161,700,l),
(38,0,l)
);
},
{
closed = 1;
nodes = (
(555,290,l),
(569,368,l),
(160,368,l),
(146,290,l)
);
},
{
closed = 1;
nodes = (
(612,622,l),
(626,700,l),
(217,700,l),
(203,622,l)
);
}
);
width = 586;
},
{
anchors = (
{
name = bottom;
pos = (292,0);
},
{
name = top;
pos = (415,700);
}
);
layerId = "ACA72793-194A-4122-860A-C95C9895C61C";
shapes = (
{
closed = 1;
nodes = (
(194,0,l),
(317,700,l),
(153,700,l),
(30,0,l)
);
},
{
closed = 1;
nodes = (
(562,243,l),
(588,395,l),
(194,395,l),
(168,243,l)
);
},
{
closed = 1;
nodes = (
(629,548,l),
(656,700,l),
(247,700,l),
(220,548,l)
);
}
);
width = 611;
}
);
metricLeft = H;
metricRight = "=H/2";
unicode = 70;
},
{
color = 6;
glyphname = Fhook;
kernLeft = Fhook;
kernRight = Fhook;
lastChange = "2025-10-01 10:23:47 +0000";
layers = (
{
layerId = m01;
shapes = (
{
closed = 1;
nodes = (
(63,-178,ls),
(142,-178,o),
(204,-110,o),
(204,-24,cs),
(204,700,l),
(176,700,l),
(176,-24,ls),
(176,-97,o),
(127,-154,o),
(65,-154,cs),
(-20,-154,l),
(-20,-178,l)
);
},
{
closed = 1;
nodes = (
(612,317,l),
(612,341,l),
(193,341,l),
(193,317,l)
);
},
{
closed = 1;
nodes = (
(611,676,l),
(611,700,l),
(192,700,l),
(192,676,l)
);
}
);
width = 647;
},
{
layerId = m002;
shapes = (
{
closed = 1;
nodes = (
(69,-207,ls),
(159,-207,o),
(240,-126,o),
(240,-24,cs),
(240,700,l),
(152,700,l),
(152,-24,ls),
(152,-81,o),
(112,-125,o),
(71,-125,cs),
(-14,-125,l),
(-14,-207,l)
);
},
{
closed = 1;
nodes = (
(618,290,l),
(618,368,l),
(209,368,l),
(209,290,l)
);
},
{
closed = 1;
nodes = (
(617,622,l),
(617,700,l),
(208,700,l),
(208,622,l)
);
}
);
width = 658;
},
{
layerId = m003;
shapes = (
{
closed = 1;
nodes = (
(73,-244,ls),
(190,-244,o),
(282,-147,o),
(282,-24,cs),
(282,700,l),
(118,700,l),
(118,-24,ls),
(118,-60,o),
(99,-88,o),
(75,-88,cs),
(-10,-88,l),
(-10,-244,l)
);
},
{
closed = 1;
nodes = (
(622,211,l),
(622,367,l),
(213,367,l),
(213,211,l)
);
},
{
closed = 1;
nodes = (
(621,544,l),
(621,700,l),
(212,700,l),
(212,544,l)
);
}
);
width = 658;
},
{
layerId = "A4970244-97B1-4FA9-B3E0-2569B3FA35F0";
shapes = (
{
closed = 1;
nodes = (
(-10,-178,ls),
(69,-178,o),
(142,-111,o),
(157,-25,cs),
(285,700,l),
(257,700,l),
(130,-23,ls),
(117,-96,o),
(57,-154,o),
(-5,-154,cs),
(-89,-154,l),
(-94,-178,l)
);
},
{
closed = 1;
nodes = (
(626,317,l),
(630,341,l),
(211,341,l),
(207,317,l)
);
},
{
closed = 1;
nodes = (
(688,676,l),
(692,700,l),
(273,700,l),
(269,676,l)
);
}
);
width = 647;
},
{
layerId = "E8DB84F4-EFBC-40F4-A45F-BC833EAAD3BD";
shapes = (
{
closed = 1;
nodes = (
(-7,-207,ls),
(83,-207,o),
(175,-129,o),
(193,-27,cs),
(321,700,l),
(233,700,l),
(106,-21,ls),
(96,-78,o),
(45,-125,o),
(4,-125,cs),
(-78,-125,l),
(-93,-207,l)
);
},
{
closed = 1;
nodes = (
(627,290,l),
(641,368,l),
(232,368,l),
(218,290,l)
);
},
{
closed = 1;
nodes = (
(684,622,l),
(698,700,l),
(289,700,l),
(275,622,l)
);
}
);
width = 658;
},
{
layerId = "ACA72793-194A-4122-860A-C95C9895C61C";
shapes = (
{
closed = 1;
nodes = (
(-7,-244,ls),
(110,-244,o),
(213,-152,o),
(234,-29,cs),
(363,700,l),
(199,700,l),
(72,-19,ls),
(66,-55,o),
(35,-88,o),
(11,-88,cs),
(-68,-88,l),
(-95,-244,l)
);
},
{
closed = 1;
nodes = (
(617,211,l),
(644,367,l),
(235,367,l),
(208,211,l)
);
},
{
closed = 1;
nodes = (
(675,544,l),
(702,700,l),
(293,700,l),
(266,544,l)
);
}
);
width = 658;
}
);
metricLeft = florin;
metricRight = F;
unicode = 401;
},
{
color = 6;
glyphname = G;
kernLeft = O;
kernRight = O;
lastChange = "2025-09-25 14:31:00 +0000";
layers = (
{
anchors = (
{
name = bottom;
pos = (388,0);
},
{
name = center;
pos = (698,233);
},
{
name = top;
pos = (388,700);
}
);
background = {
shapes = (
{
closed = 1;
nodes = (
(580,-16,o),
(730,142,o),
(730,342,c),
(702,342,l),
(702,156,o),
(564,10,o),
(388,10,cs),
(205,10,o),
(62,162,o),
(62,355,cs),
(62,543,o),
(205,690,o),
(388,690,cs),
(476,690,o),
(583,648,o),
(632,594,c),
(648,614,l),
(591,671,o),
(476,716,o),
(388,716,cs),
(189,716,o),
(32,557,o),
(32,355,cs),
(32,147,o),
(189,-16,o),
(388,-16,cs)
);
},
{
closed = 1;
nodes = (
(725,339,l),
(730,341,l),
(730,365,l),
(418,365,l),
(418,339,l)
);
}
);
};
layerId = m01;
shapes = (
{
closed = 1;
nodes = (
(574,-16,o),
(727,141,o),
(730,343,c),
(700,343,l),
(697,152,o),
(556,10,o),
(381,10,cs),
(204,10,o),
(62,158,o),
(62,350,cs),
(62,542,o),
(204,690,o),
(381,690,cs),
(487,690,o),
(580,637,o),
(638,553,c),
(661,570,l),
(598,659,o),
(497,716,o),
(381,716,cs),
(186,716,o),
(32,555,o),
(32,350,cs),
(32,145,o),
(186,-16,o),
(381,-16,cs)
);
},
{
closed = 1;
nodes = (
(723,339,l),
(730,342,l),
(730,365,l),
(404,365,l),
(404,339,l)
);
}
);
width = 757;
},
{
anchors = (
{
name = bottom;
pos = (400,0);
},
{
name = center;
pos = (688,233);
},
{
name = top;
pos = (400,700);
}
);
background = {
shapes = (
{
closed = 1;
nodes = (
(693,551,l),
(630,650,o),
(521,716,o),
(393,716,cs),
(190,716,o),
(36,552,o),
(36,350,cs),
(36,148,o),
(190,-16,o),
(393,-16,cs),
(596,-16,o),
(750,148,o),
(750,350,cs),
(750,424,o),
(729,493,o),
(693,551,c),
(620,501,l),
(646,458,o),
(660,406,o),
(660,350,cs),
(660,191,o),
(543,66,o),
(393,66,cs),
(243,66,o),
(126,191,o),
(126,350,cs),
(126,509,o),
(243,634,o),
(393,634,cs),
(490,634,o),
(574,581,o),
(620,501,c)
);
}
);
};
layerId = m002;
shapes = (
{
closed = 1;
nodes = (
(589,-16,o),
(744,136,o),
(744,329,c),
(659,329,l),
(659,182,o),
(542,66,o),
(392,66,cs),
(243,66,o),
(126,191,o),
(126,350,cs),
(126,509,o),
(244,634,o),
(393,634,cs),
(477,634,o),
(554,593,o),
(602,530,c),
(670,579,l),
(605,661,o),
(507,716,o),
(393,716,cs),
(194,716,o),
(36,555,o),
(36,350,cs),
(36,145,o),
(193,-16,o),
(392,-16,cs)
);
},
{
closed = 1;
nodes = (
(732,303,l),
(744,319,l),
(744,385,l),
(412,385,l),
(412,303,l)
);
}
);
width = 775;
},
{
anchors = (
{
name = bottom;
pos = (405,0);
},
{
name = center;
pos = (625,213);
},
{
name = top;
pos = (405,700);
}
);
background = {
shapes = (
{
closed = 1;
nodes = (
(609,-16,o),
(760,137,o),
(760,331,c),
(612,331,l),
(612,224,o),
(526,140,o),
(416,140,cs),
(294,140,o),
(198,232,o),
(198,350,cs),
(198,468,o),
(294,560,o),
(416,560,cs),
(473,560,o),
(548,529,o),
(586,490,c),
(677,603,l),
(619,666,o),
(504,716,o),
(416,716,cs),
(201,716,o),
(32,555,o),
(32,350,cs),
(32,145,o),
(201,-16,o),
(416,-16,cs)
);
},
{
closed = 1;
nodes = (
(735,294,l),
(760,321,l),
(760,410,l),
(400,410,l),
(400,294,l)
);
}
);
};
layerId = m003;
shapes = (
{
closed = 1;
nodes = (
(600,-16,o),
(750,141,o),
(754,342,c),
(598,342,l),
(594,229,o),
(507,140,o),
(399,140,cs),
(286,140,o),
(198,233,o),
(198,351,cs),
(198,468,o),
(286,560,o),
(399,560,cs),
(458,560,o),
(511,534,o),
(547,492,c),
(677,589,l),
(611,667,o),
(511,716,o),
(399,716,cs),
(193,716,o),
(32,555,o),
(32,351,cs),
(32,145,o),
(193,-16,o),
(399,-16,cs)
);
},
{
closed = 1;
nodes = (
(696,286,l),
(754,335,l),
(754,402,l),
(394,402,l),
(394,286,l)
);
}
);
width = 781;
},
{
anchors = (
{
name = bottom;
pos = (346,0);
},
{
name = center;
pos = (697,233);
},
{
name = top;
pos = (469,700);
}
);
layerId = "A4970244-97B1-4FA9-B3E0-2569B3FA35F0";
shapes = (
{
closed = 1;
nodes = (
(530,-16,o),
(709,140,o),
(748,342,c),
(718,344,l),
(682,153,o),
(514,10,o),
(339,10,cs),
(162,10,o),
(47,157,o),
(81,349,cs),
(115,541,o),
(284,690,o),
(461,690,cs),
(567,690,o),
(651,638,o),
(694,554,c),
(719,569,l),
(671,658,o),
(580,716,o),
(464,716,cs),
(269,716,o),
(88,556,o),
(52,351,cs),
(15,146,o),
(142,-16,o),
(337,-16,cs)
);
},
{
closed = 1;
nodes = (
(740,339,l),
(748,342,l),
(752,365,l),
(426,365,l),
(421,339,l)
);
}
);
width = 757;
},
{
anchors = (
{
name = bottom;
pos = (358,0);
},
{
name = center;
pos = (687,233);
},
{
name = top;
pos = (481,700);
}
);
layerId = "E8DB84F4-EFBC-40F4-A45F-BC833EAAD3BD";
shapes = (
{
closed = 1;
nodes = (
(547,-16,o),
(725,133,o),
(759,326,c),
(675,332,l),
(649,185,o),
(508,66,o),
(358,66,cs),
(209,66,o),
(117,188,o),
(145,347,cs),
(173,506,o),
(317,634,o),
(466,634,cs),
(550,634,o),
(618,595,o),
(655,532,c),
(727,577,l),
(677,659,o),
(588,716,o),
(474,716,cs),
(275,716,o),
(92,558,o),
(56,353,cs),
(20,148,o),
(151,-16,o),
(350,-16,cs)
);
},
{
closed = 1;
nodes = (
(743,303,l),
(758,319,l),
(770,385,l),
(438,385,l),
(423,303,l)
);
}
);
width = 775;
},
{
anchors = (
{
name = bottom;
pos = (362,0);
},
{
name = center;
pos = (619,213);
},
{
name = top;
pos = (485,700);
}
);
layerId = "ACA72793-194A-4122-860A-C95C9895C61C";
shapes = (
{
closed = 1;
nodes = (
(560,-16,o),
(731,136,o),
(770,337,c),
(616,347,l),
(592,234,o),
(483,140,o),
(375,140,cs),
(262,140,o),
(195,228,o),
(216,346,cs),
(236,463,o),
(347,560,o),
(460,560,cs),
(519,560,o),
(566,538,o),
(595,496,c),
(733,585,l),
(681,663,o),
(588,716,o),
(476,716,cs),
(270,716,o),
(88,560,o),
(52,356,cs),
(15,150,o),
(153,-16,o),
(359,-16,cs)
);
},
{
closed = 1;
nodes = (
(703,286,l),
(770,335,l),
(782,402,l),
(422,402,l),
(401,286,l)
);
}
);
width = 780;
}
);
metricLeft = O;
metricRight = "=O-5";
unicode = 71;
},
{
color = 6;
glyphname = G.ss01;
kernLeft = O;
kernRight = O;
lastChange = "2025-09-25 14:31:00 +0000";
layers = (
{
anchors = (
{
name = bottom;
pos = (413,0);
},
{
name = top;
pos = (413,700);
}
);
layerId = m01;
shapes = (
{
closed = 1;
nodes = (
(601,-16,o),
(760,150,o),
(760,362,c),
(730,362,l),
(730,164,o),
(584,8,o),
(398,8,cs),
(210,8,o),
(62,161,o),
(62,355,cs),
(62,544,o),
(210,692,o),
(398,692,cs),
(485,692,o),
(592,649,o),
(642,594,c),
(658,614,l),
(601,671,o),
(486,716,o),
(398,716,cs),
(193,716,o),
(32,557,o),
(32,355,cs),
(32,147,o),
(193,-16,o),
(398,-16,cs)
);
},
{
closed = 1;
nodes = (
(760,361,l),
(760,381,l),
(448,381,l),
(448,367,l),
(749,311,l)
);
}
);
width = 787;
},
{
anchors = (
{
name = bottom;
pos = (420,0);
},
{
name = top;
pos = (420,700);
}
);
layerId = m002;
shapes = (
{
closed = 1;
nodes = (
(611,-16,o),
(760,131,o),
(764,341,c),
(674,341,l),
(674,187,o),
(532,66,o),
(402,66,cs),
(240,66,o),
(126,183,o),
(126,350,cs),
(126,517,o),
(240,634,o),
(402,634,cs),
(486,634,o),
(559,602,o),
(609,547,c),
(662,614,l),
(598,678,o),
(507,716,o),
(402,716,cs),
(187,716,o),
(36,565,o),
(36,350,cs),
(36,135,o),
(187,-16,o),
(402,-16,cs)
);
},
{
closed = 1;
nodes = (
(764,341,l),
(764,407,l),
(452,407,l),
(452,377,l),
(752,276,l)
);
}
);
width = 795;
},
{
anchors = (
{
name = bottom;
pos = (413,0);
},
{
name = top;
pos = (413,700);
}
);
layerId = m003;
shapes = (
{
closed = 1;
nodes = (
(605,-16,o),
(756,141,o),
(760,341,c),
(617,341,l),
(617,228,o),
(529,140,o),
(416,140,cs),
(294,140,o),
(198,232,o),
(198,350,cs),
(198,468,o),
(294,560,o),
(416,560,cs),
(485,560,o),
(547,528,o),
(582,485,c),
(677,603,l),
(616,669,o),
(524,716,o),
(416,716,cs),
(201,716,o),
(32,555,o),
(32,350,cs),
(32,145,o),
(201,-16,o),
(416,-16,cs)
);
},
{
closed = 1;
nodes = (
(760,341,l),
(760,420,l),
(400,420,l),
(400,354,l),
(715,211,l)
);
}
);
width = 787;
},
{
anchors = (
{
name = bottom;
pos = (371,0);
},
{
name = top;
pos = (494,700);
}
);
layerId = "A4970244-97B1-4FA9-B3E0-2569B3FA35F0";
shapes = (
{
closed = 1;
nodes = (
(557,-16,o),
(744,149,o),
(781,361,c),
(752,363,l),
(717,165,o),
(542,8,o),
(356,8,cs),
(168,8,o),
(48,160,o),
(82,354,cs),
(115,543,o),
(291,692,o),
(479,692,cs),
(566,692,o),
(665,650,o),
(705,595,c),
(723,613,l),
(676,670,o),
(569,716,o),
(481,716,cs),
(276,716,o),
(88,558,o),
(52,356,cs),
(16,148,o),
(149,-16,o),
(354,-16,cs)
);
},
{
closed = 1;
nodes = (
(781,361,l),
(785,381,l),
(473,381,l),
(470,367,l),
(762,311,l)
);
}
);
width = 787;
},
{
anchors = (
{
name = bottom;
pos = (378,0);
},
{
name = top;
pos = (501,700);
}
);
layerId = "E8DB84F4-EFBC-40F4-A45F-BC833EAAD3BD";
shapes = (
{
closed = 1;
nodes = (
(569,-16,o),
(740,128,o),
(781,338,c),
(692,344,l),
(665,190,o),
(498,66,o),
(368,66,cs),
(206,66,o),
(115,180,o),
(145,347,cs),
(174,514,o),
(313,634,o),
(475,634,cs),
(559,634,o),
(625,604,o),
(666,549,c),
(725,612,l),
(673,676,o),
(588,716,o),
(483,716,cs),
(268,716,o),
(94,568,o),
(56,353,cs),
(18,138,o),
(145,-16,o),
(360,-16,cs)
);
},
{
closed = 1;
nodes = (
(782,341,l),
(793,407,l),
(481,407,l),
(476,377,l),
(758,276,l)
);
}
);
width = 795;
},
{
anchors = (
{
name = bottom;
pos = (371,0);
},
{
name = top;
pos = (494,700);
}
);
layerId = "ACA72793-194A-4122-860A-C95C9895C61C";
shapes = (
{
closed = 1;
nodes = (
(566,-16,o),
(738,136,o),
(777,336,c),
(636,346,l),
(616,233,o),
(506,140,o),
(393,140,cs),
(271,140,o),
(196,227,o),
(216,345,cs),
(237,463,o),
(356,560,o),
(478,560,cs),
(547,560,o),
(602,532,o),
(630,489,c),
(736,599,l),
(687,665,o),
(602,716,o),
(494,716,cs),
(279,716,o),
(89,560,o),
(52,355,cs),
(16,150,o),
(162,-16,o),
(377,-16,cs)
);
},
{
closed = 1;
nodes = (
(778,341,l),
(792,420,l),
(432,420,l),
(420,354,l),
(710,211,l)
);
}
);
width = 787;
}
);
metricLeft = G;
metricRight = G;
},
{
color = 6;
glyphname = Ghook;
lastChange = "2025-09-25 14:31:00 +0000";
layers = (
{
anchors = (
{
name = bottom;
pos = (436,0);
},
{
name = top;
pos = (436,700);
}
);
layerId = m01;
shapes = (
{
closed = 1;
nodes = (
(601,-16,o),
(760,150,o),
(760,362,c),
(730,362,l),
(730,164,o),
(584,8,o),
(398,8,cs),
(210,8,o),
(62,161,o),
(62,355,cs),
(62,544,o),
(210,692,o),
(398,692,cs),
(485,692,o),
(592,649,o),
(642,594,c),
(658,614,l),
(601,671,o),
(486,716,o),
(398,716,cs),
(193,716,o),
(32,557,o),
(32,355,cs),
(32,147,o),
(193,-16,o),
(398,-16,cs)
);
},
{
closed = 1;
nodes = (
(755,357,l),
(760,361,l),
(760,381,l),
(448,381,l),
(448,357,l)
);
},
{
closed = 1;
nodes = (
(670,712,o),
(703,744,o),
(745,744,cs),
(806,744,l),
(806,770,l),
(742,770,ls),
(686,770,o),
(642,726,o),
(642,670,cs),
(642,594,l),
(670,594,l),
(670,671,l)
);
}
);
width = 833;
},
{
anchors = (
{
name = bottom;
pos = (424,0);
},
{
name = top;
pos = (424,700);
}
);
layerId = m002;
shapes = (
{
closed = 1;
nodes = (
(611,-16,o),
(760,131,o),
(764,341,c),
(674,341,l),
(674,187,o),
(532,66,o),
(402,66,cs),
(240,66,o),
(126,183,o),
(126,350,cs),
(126,517,o),
(240,634,o),
(402,634,cs),
(486,634,o),
(559,602,o),
(609,547,c),
(662,614,l),
(598,678,o),
(507,716,o),
(402,716,cs),
(187,716,o),
(36,565,o),
(36,350,cs),
(36,135,o),
(187,-16,o),
(402,-16,cs)
);
},
{
closed = 1;
nodes = (
(752,327,l),
(764,341,l),
(764,407,l),
(452,407,l),
(452,327,l)
);
},
{
closed = 1;
nodes = (
(697,680,o),
(710,693,o),
(727,693,cs),
(773,693,l),
(773,766,l),
(699,766,ls),
(649,766,o),
(609,726,o),
(609,676,cs),
(609,547,l),
(697,547,l),
(697,663,l)
);
}
);
width = 804;
},
{
anchors = (
{
name = bottom;
pos = (443,0);
},
{
name = top;
pos = (443,700);
}
);
layerId = m003;
shapes = (
{
closed = 1;
nodes = (
(605,-16,o),
(756,141,o),
(760,341,c),
(617,341,l),
(617,228,o),
(529,140,o),
(416,140,cs),
(294,140,o),
(198,232,o),
(198,350,cs),
(198,468,o),
(294,560,o),
(416,560,cs),
(485,560,o),
(547,528,o),
(582,485,c),
(677,603,l),
(616,669,o),
(524,716,o),
(416,716,cs),
(201,716,o),
(32,555,o),
(32,350,cs),
(32,145,o),
(201,-16,o),
(416,-16,cs)
);
},
{
closed = 1;
nodes = (
(735,304,l),
(760,341,l),
(760,420,l),
(400,420,l),
(400,304,l)
);
},
{
closed = 1;
nodes = (
(744,614,o),
(757,627,o),
(774,627,cs),
(820,627,l),
(820,770,l),
(702,770,ls),
(635,770,o),
(582,717,o),
(582,650,cs),
(582,485,l),
(744,485,l),
(744,597,l)
);
}
);
width = 847;
},
{
anchors = (
{
name = bottom;
pos = (394,0);
},
{
name = top;
pos = (517,700);
}
);
layerId = "A4970244-97B1-4FA9-B3E0-2569B3FA35F0";
shapes = (
{
closed = 1;
nodes = (
(557,-16,o),
(744,149,o),
(781,361,c),
(752,363,l),
(717,165,o),
(542,8,o),
(356,8,cs),
(168,8,o),
(48,160,o),
(82,354,cs),
(115,543,o),
(291,692,o),
(479,692,cs),
(566,692,o),
(665,650,o),
(705,595,c),
(723,613,l),
(676,670,o),
(569,716,o),
(481,716,cs),
(276,716,o),
(88,558,o),
(52,356,cs),
(16,148,o),
(149,-16,o),
(354,-16,cs)
);
},
{
closed = 1;
nodes = (
(776,357,l),
(781,361,l),
(785,381,l),
(473,381,l),
(469,357,l)
);
},
{
closed = 1;
nodes = (
(753,711,o),
(793,744,o),
(835,744,cs),
(895,744,l),
(899,770,l),
(834,770,ls),
(778,770,o),
(728,727,o),
(718,671,cs),
(704,594,l),
(732,594,l),
(746,670,l)
);
}
);
width = 833;
},
{
anchors = (
{
name = bottom;
pos = (382,0);
},
{
name = top;
pos = (505,700);
}
);
layerId = "E8DB84F4-EFBC-40F4-A45F-BC833EAAD3BD";
shapes = (
{
closed = 1;
nodes = (
(569,-16,o),
(740,128,o),
(781,338,c),
(692,344,l),
(665,190,o),
(498,66,o),
(368,66,cs),
(206,66,o),
(115,180,o),
(145,347,cs),
(174,514,o),
(313,634,o),
(475,634,cs),
(559,634,o),
(625,604,o),
(666,549,c),
(725,612,l),
(673,676,o),
(588,716,o),
(483,716,cs),
(268,716,o),
(94,568,o),
(56,353,cs),
(18,138,o),
(145,-16,o),
(360,-16,cs)
);
},
{
closed = 1;
nodes = (
(767,327,l),
(782,341,l),
(793,407,l),
(481,407,l),
(467,327,l)
);
},
{
closed = 1;
nodes = (
(774,677,o),
(793,693,o),
(810,693,cs),
(853,693,l),
(866,766,l),
(789,766,ls),
(739,766,o),
(695,729,o),
(686,679,cs),
(663,547,l),
(751,547,l),
(771,660,l)
);
}
);
width = 804;
},
{
anchors = (
{
name = bottom;
pos = (401,0);
},
{
name = top;
pos = (524,700);
}
);
layerId = "ACA72793-194A-4122-860A-C95C9895C61C";
shapes = (
{
closed = 1;
nodes = (
(566,-16,o),
(738,136,o),
(777,336,c),
(636,346,l),
(616,233,o),
(506,140,o),
(393,140,cs),
(271,140,o),
(196,227,o),
(216,345,cs),
(237,463,o),
(356,560,o),
(478,560,cs),
(547,560,o),
(602,532,o),
(630,489,c),
(736,599,l),
(687,665,o),
(602,716,o),
(494,716,cs),
(279,716,o),
(89,560,o),
(52,355,cs),
(16,150,o),
(162,-16,o),
(377,-16,cs)
);
},
{
closed = 1;
nodes = (
(746,304,l),
(778,341,l),
(792,420,l),
(432,420,l),
(411,304,l)
);
},
{
closed = 1;
nodes = (
(809,609,o),
(831,627,o),
(848,627,cs),
(888,627,l),
(913,770,l),
(790,770,ls),
(723,770,o),
(667,722,o),
(655,655,cs),
(625,485,l),
(787,485,l),
(806,592,l)
);
}
);
width = 847;
}
);
metricLeft = G;
metricRight = G;
unicode = 403;
},
{
color = 6;
glyphname = H;
kernLeft = H;
kernRight = H;
lastChange = "2025-10-01 14:22:58 +0000";
layers = (
{
anchors = (
{
name = bottom;
pos = (355,0);
},
{
name = center;
pos = (355,535);
},
{
name = hcedilla;
pos = (98,0);
},
{
name = top;
pos = (355,700);
},
{
name = topleft;
pos = (10,700);
}
);
layerId = m01;
shapes = (
{
closed = 1;
nodes = (
(640,0,l),
(640,700,l),
(612,700,l),
(612,0,l)
);
},
{
closed = 1;
nodes = (
(98,0,l),
(98,700,l),
(70,700,l),
(70,0,l)
);
},
{
closed = 1;
nodes = (
(626,352,l),
(626,374,l),
(93,374,l),
(93,352,l)
);
}
);
width = 710;
},
{
anchors = (
{
name = bottom;
pos = (385,0);
},
{
name = center;
pos = (385,535);
},
{
name = hcedilla;
pos = (168,0);
},
{
name = top;
pos = (385,700);
},
{
name = topleft;
pos = (10,700);
}
);
layerId = m002;
shapes = (
{
closed = 1;
nodes = (
(690,0,l),
(690,700,l),
(602,700,l),
(602,0,l)
);
},
{
closed = 1;
nodes = (
(168,0,l),
(168,700,l),
(80,700,l),
(80,0,l)
);
},
{
closed = 1;
nodes = (
(646,324,l),
(646,402,l),
(133,402,l),
(133,324,l)
);
}
);
width = 770;
},
{
anchors = (
{
name = bottom;
pos = (393,0);
},
{
name = center;
pos = (393,565);
},
{
name = hcedilla;
pos = (236,0);
},
{
name = top;
pos = (393,700);
},
{
name = topleft;
pos = (12,700);
}
);
layerId = m003;
shapes = (
{
closed = 1;
nodes = (
(714,0,l),
(714,700,l),
(550,700,l),
(550,0,l)
);
},
{
closed = 1;
nodes = (
(236,0,l),
(236,700,l),
(72,700,l),
(72,0,l)
);
},
{
closed = 1;
nodes = (
(664,285,l),
(664,441,l),
(131,441,l),
(131,285,l)
);
}
);
width = 786;
},
{
anchors = (
{
name = bottom;
pos = (313,0);
},
{
name = center;
pos = (407,535);
},
{
name = hcedilla;
pos = (56,0);
},
{
name = top;
pos = (436,700);
},
{
name = topleft;
pos = (91,700);
}
);
layerId = "A4970244-97B1-4FA9-B3E0-2569B3FA35F0";
shapes = (
{
closed = 1;
nodes = (
(598,0,l),
(721,700,l),
(693,700,l),
(570,0,l)
);
},
{
closed = 1;
nodes = (
(56,0,l),
(179,700,l),
(151,700,l),
(28,0,l)
);
},
{
closed = 1;
nodes = (
(646,352,l),
(650,374,l),
(117,374,l),
(113,352,l)
);
}
);
width = 710;
},
{
anchors = (
{
name = bottom;
pos = (343,0);
},
{
name = center;
pos = (437,535);
},
{
name = hcedilla;
pos = (126,0);
},
{
name = top;
pos = (466,700);
},
{
name = topleft;
pos = (91,700);
}
);
layerId = "E8DB84F4-EFBC-40F4-A45F-BC833EAAD3BD";
shapes = (
{
closed = 1;
nodes = (
(648,0,l),
(771,700,l),
(683,700,l),
(560,0,l)
);
},
{
closed = 1;
nodes = (
(126,0,l),
(249,700,l),
(161,700,l),
(38,0,l)
);
},
{
closed = 1;
nodes = (
(661,324,l),
(675,402,l),
(162,402,l),
(148,324,l)
);
}
);
width = 770;
},
{
anchors = (
{
name = bottom;
pos = (351,0);
},
{
name = center;
pos = (450,565);
},
{
name = hcedilla;
pos = (194,0);
},
{
name = top;
pos = (474,700);
},
{
name = topleft;
pos = (93,700);
}
);
layerId = "ACA72793-194A-4122-860A-C95C9895C61C";
shapes = (
{
closed = 1;
nodes = (
(672,0,l),
(795,700,l),
(631,700,l),
(508,0,l)
);
},
{
closed = 1;
nodes = (
(194,0,l),
(317,700,l),
(153,700,l),
(30,0,l)
);
},
{
closed = 1;
nodes = (
(672,285,l),
(699,441,l),
(166,441,l),
(139,285,l)
);
}
);
width = 786;
}
);
metricRight = "=|";
unicode = 72;
},
{
glyphname = Heng;
layers = (
{
layerId = m01;
shapes = (
{
closed = 1;
nodes = (
(574,-130,ls),
(611,-130,o),
(640,-102,o),
(640,-66,c),
(640,700,l),
(612,700,l),
(612,374,l),
(98,374,l),
(98,700,l),
(70,700,l),
(70,0,l),
(98,0,l),
(98,352,l),
(612,352,l),
(612,-64,l),
(612,-86,o),
(594,-104,o),
(572,-104,cs),
(539,-104,l),
(539,-130,l)
);
}
);
width = 710;
},
{
layerId = m002;
shapes = (
{
closed = 1;
nodes = (
(547,-181,ls),
(627,-181,o),
(690,-118,o),
(690,-38,cs),
(690,700,l),
(602,700,l),
(602,402,l),
(168,402,l),
(168,700,l),
(80,700,l),
(80,0,l),
(168,0,l),
(168,324,l),
(602,324,l),
(602,-40,ls),
(602,-71,o),
(578,-95,o),
(547,-95,cs),
(492,-95,l),
(492,-181,l)
);
}
);
width = 770;
},
{
layerId = m003;
shapes = (
{
closed = 1;
nodes = (
(525,-212,ls),
(631,-212,o),
(714,-129,o),
(714,-23,cs),
(714,700,l),
(550,700,l),
(550,441,l),
(236,441,l),
(236,700,l),
(72,700,l),
(72,0,l),
(236,0,l),
(236,285,l),
(550,285,l),
(550,-31,ls),
(550,-45,o),
(539,-56,o),
(525,-56,cs),
(470,-56,l),
(470,-212,l)
);
}
);
width = 786;
},
{
layerId = "A4970244-97B1-4FA9-B3E0-2569B3FA35F0";
shapes = (
{
closed = 1;
nodes = (
(510,-130,ls),
(547,-130,o),
(580,-103,o),
(586,-67,c),
(721,700,l),
(693,700,l),
(636,374,l),
(122,374,l),
(179,700,l),
(151,700,l),
(28,0,l),
(56,0,l),
(118,352,l),
(632,352,l),
(559,-63,l),
(555,-85,o),
(532,-104,o),
(510,-104,cs),
(478,-104,l),
(474,-130,l)
);
}
);
width = 710;
},
{
layerId = "E8DB84F4-EFBC-40F4-A45F-BC833EAAD3BD";
shapes = (
{
closed = 1;
nodes = (
(476,-181,ls),
(556,-181,o),
(626,-121,o),
(640,-41,cs),
(771,700,l),
(683,700,l),
(631,402,l),
(197,402,l),
(249,700,l),
(161,700,l),
(38,0,l),
(126,0,l),
(183,324,l),
(617,324,l),
(553,-37,ls),
(548,-68,o),
(516,-95,o),
(485,-95,cs),
(433,-95,l),
(418,-181,l)
);
}
);
width = 770;
},
{
layerId = "ACA72793-194A-4122-860A-C95C9895C61C";
shapes = (
{
closed = 1;
nodes = (
(451,-212,ls),
(557,-212,o),
(648,-134,o),
(667,-28,cs),
(795,700,l),
(631,700,l),
(585,441,l),
(271,441,l),
(317,700,l),
(153,700,l),
(30,0,l),
(194,0,l),
(244,285,l),
(558,285,l),
(503,-26,ls),
(501,-40,o),
(481,-56,o),
(467,-56,cs),
(418,-56,l),
(390,-212,l)
);
}
);
width = 786;
}
);
unicode = 42790;
},
{
color = 6;
glyphname = Hhook;
lastChange = "2025-09-25 14:31:00 +0000";
layers = (
{
layerId = m01;
shapes = (
{
closed = 1;
nodes = (
(755,0,l),
(755,700,l),
(727,700,l),
(727,0,l)
);
},
{
closed = 1;
nodes = (
(213,0,l),
(213,700,l),
(185,700,l),
(185,0,l)
);
},
{
closed = 1;
nodes = (
(741,352,l),
(741,374,l),
(208,374,l),
(208,352,l)
);
},
{
closed = 1;
nodes = (
(78,642,o),
(111,674,o),
(153,674,cs),
(194,674,l),
(194,700,l),
(150,700,ls),
(94,700,o),
(50,656,o),
(50,600,cs),
(50,571,l),
(78,571,l),
(78,601,l)
);
}
);
width = 825;
},
{
layerId = m002;
shapes = (
{
closed = 1;
nodes = (
(835,0,l),
(835,700,l),
(747,700,l),
(747,0,l)
);
},
{
closed = 1;
nodes = (
(293,0,l),
(293,700,l),
(205,700,l),
(205,0,l)
);
},
{
closed = 1;
nodes = (
(791,324,l),
(791,402,l),
(258,402,l),
(258,324,l)
);
},
{
closed = 1;
nodes = (
(138,605,o),
(151,618,o),
(168,618,cs),
(209,618,l),
(209,700,l),
(150,700,ls),
(100,700,o),
(60,660,o),
(60,610,cs),
(60,541,l),
(138,541,l),
(138,588,l)
);
}
);
width = 915;
},
{
layerId = m003;
shapes = (
{
closed = 1;
nodes = (
(879,0,l),
(879,700,l),
(715,700,l),
(715,0,l)
);
},
{
closed = 1;
nodes = (
(401,0,l),
(401,700,l),
(237,700,l),
(237,0,l)
);
},
{
closed = 1;
nodes = (
(829,285,l),
(829,441,l),
(296,441,l),
(296,285,l)
);
},
{
closed = 1;
nodes = (
(184,545,o),
(197,558,o),
(214,558,cs),
(250,558,l),
(250,700,l),
(192,700,ls),
(114,700,o),
(52,638,o),
(52,560,cs),
(52,491,l),
(184,491,l),
(184,528,l)
);
}
);
width = 951;
},
{
layerId = "A4970244-97B1-4FA9-B3E0-2569B3FA35F0";
shapes = (
{
closed = 1;
nodes = (
(713,0,l),
(836,700,l),
(808,700,l),
(685,0,l)
);
},
{
closed = 1;
nodes = (
(171,0,l),
(294,700,l),
(266,700,l),
(143,0,l)
);
},
{
closed = 1;
nodes = (
(761,352,l),
(765,374,l),
(232,374,l),
(228,352,l)
);
},
{
closed = 1;
nodes = (
(149,641,o),
(189,674,o),
(231,674,cs),
(271,674,l),
(275,700,l),
(230,700,ls),
(174,700,o),
(123,657,o),
(114,601,cs),
(108,571,l),
(136,571,l),
(142,600,l)
);
}
);
width = 825;
},
{
layerId = "E8DB84F4-EFBC-40F4-A45F-BC833EAAD3BD";
shapes = (
{
closed = 1;
nodes = (
(793,0,l),
(916,700,l),
(828,700,l),
(705,0,l)
);
},
{
closed = 1;
nodes = (
(251,0,l),
(374,700,l),
(286,700,l),
(163,0,l)
);
},
{
closed = 1;
nodes = (
(806,324,l),
(820,402,l),
(287,402,l),
(273,324,l)
);
},
{
closed = 1;
nodes = (
(202,602,o),
(221,618,o),
(238,618,cs),
(276,618,l),
(290,700,l),
(228,700,ls),
(178,700,o),
(135,663,o),
(126,613,cs),
(113,541,l),
(191,541,l),
(199,585,l)
);
}
);
width = 915;
},
{
layerId = "ACA72793-194A-4122-860A-C95C9895C61C";
shapes = (
{
closed = 1;
nodes = (
(837,0,l),
(960,700,l),
(796,700,l),
(673,0,l)
);
},
{
closed = 1;
nodes = (
(359,0,l),
(482,700,l),
(318,700,l),
(195,0,l)
);
},
{
closed = 1;
nodes = (
(837,285,l),
(864,441,l),
(331,441,l),
(304,285,l)
);
},
{
closed = 1;
nodes = (
(237,540,o),
(259,558,o),
(276,558,cs),
(306,558,l),
(331,700,l),
(267,700,ls),
(189,700,o),
(123,643,o),
(109,565,cs),
(96,491,l),
(228,491,l),
(234,523,l)
);
}
);
width = 951;
}
);
metricLeft = "=H-20";
metricRight = H;
unicode = 42922;
},
{
color = 6;
glyphname = Hturned;
lastChange = "2025-09-25 14:31:00 +0000";
layers = (
{
layerId = m01;
shapes = (
{
closed = 1;
nodes = (
(640,0,l),
(640,700,l),
(612,700,l),
(612,0,l)
);
},
{
closed = 1;
nodes = (
(98,352,l),
(98,700,l),
(70,700,l),
(70,352,l)
);
},
{
closed = 1;
nodes = (
(626,352,l),
(626,374,l),
(93,374,l),
(93,352,l)
);
}
);
width = 710;
},
{
layerId = m002;
shapes = (
{
closed = 1;
nodes = (
(675,0,l),
(675,700,l),
(587,700,l),
(587,0,l)
);
},
{
closed = 1;
nodes = (
(133,324,l),
(133,700,l),
(45,700,l),
(45,324,l)
);
},
{
closed = 1;
nodes = (
(631,324,l),
(631,402,l),
(98,402,l),
(98,324,l)
);
}
);
width = 720;
},
{
layerId = m003;
shapes = (
{
closed = 1;
nodes = (
(687,0,l),
(687,700,l),
(523,700,l),
(523,0,l)
);
},
{
closed = 1;
nodes = (
(209,285,l),
(209,700,l),
(45,700,l),
(45,285,l)
);
},
{
closed = 1;
nodes = (
(637,285,l),
(637,441,l),
(104,441,l),
(104,285,l)
);
}
);
width = 732;
},
{
layerId = "A4970244-97B1-4FA9-B3E0-2569B3FA35F0";
shapes = (
{
closed = 1;
nodes = (
(598,0,l),
(721,700,l),
(693,700,l),
(570,0,l)
);
},
{
closed = 1;
nodes = (
(118,352,l),
(179,700,l),
(151,700,l),
(90,352,l)
);
},
{
closed = 1;
nodes = (
(646,352,l),
(650,374,l),
(117,374,l),
(113,352,l)
);
}
);
width = 710;
},
{
layerId = "E8DB84F4-EFBC-40F4-A45F-BC833EAAD3BD";
shapes = (
{
closed = 1;
nodes = (
(633,0,l),
(756,700,l),
(668,700,l),
(545,0,l)
);
},
{
closed = 1;
nodes = (
(148,324,l),
(214,700,l),
(126,700,l),
(60,324,l)
);
},
{
closed = 1;
nodes = (
(646,324,l),
(660,402,l),
(127,402,l),
(113,324,l)
);
}
);
width = 720;
},
{
layerId = "ACA72793-194A-4122-860A-C95C9895C61C";
shapes = (
{
closed = 1;
nodes = (
(645,0,l),
(768,700,l),
(604,700,l),
(481,0,l)
);
},
{
closed = 1;
nodes = (
(217,285,l),
(290,700,l),
(126,700,l),
(53,285,l)
);
},
{
closed = 1;
nodes = (
(645,285,l),
(672,441,l),
(139,441,l),
(112,285,l)
);
}
);
width = 732;
}
);
unicode = 42893;
},
{
color = 6;
glyphname = I;
kernLeft = H;
kernRight = H;
lastChange = "2025-09-25 14:31:00 +0000";
layers = (
{
anchors = (
{
name = bottom;
pos = (84,0);
},
{
name = center;
pos = (84,350);
},
{
name = ogonek;
pos = (98,0);
},
{
name = top;
pos = (84,700);
},
{
name = topleft;
pos = (10,700);
}
);
layerId = m01;
shapes = (
{
closed = 1;
nodes = (
(98,0,l),
(98,700,l),
(70,700,l),
(70,0,l)
);
}
);
width = 168;
},
{
anchors = (
{
name = bottom;
pos = (124,0);
},
{
name = center;
pos = (124,350);
},
{
name = ogonek;
pos = (168,0);
},
{
name = top;
pos = (124,700);
},
{
name = topleft;
pos = (10,700);
}
);
layerId = m002;
shapes = (
{
closed = 1;
nodes = (
(168,0,l),
(168,700,l),
(80,700,l),
(80,0,l)
);
}
);
width = 248;
},
{
anchors = (
{
name = bottom;
pos = (154,0);
},
{
name = center;
pos = (154,350);
},
{
name = ogonek;
pos = (236,0);
},
{
name = top;
pos = (154,700);
},
{
name = topleft;
pos = (12,700);
}
);
layerId = m003;
shapes = (
{
closed = 1;
nodes = (
(236,0,l),
(236,700,l),
(72,700,l),
(72,0,l)
);
}
);
width = 308;
},
{
anchors = (
{
name = bottom;
pos = (42,0);
},
{
name = center;
pos = (103,350);
},
{
name = ogonek;
pos = (56,0);
},
{
name = top;
pos = (165,700);
},
{
name = topleft;
pos = (91,700);
}
);
layerId = "A4970244-97B1-4FA9-B3E0-2569B3FA35F0";
shapes = (
{
closed = 1;
nodes = (
(56,0,l),
(179,700,l),
(151,700,l),
(28,0,l)
);
}
);
width = 168;
},
{
anchors = (
{
name = bottom;
pos = (82,0);
},
{
name = center;
pos = (143,350);
},
{
name = ogonek;
pos = (126,0);
},
{
name = top;
pos = (205,700);
},
{
name = topleft;
pos = (91,700);
}
);
layerId = "E8DB84F4-EFBC-40F4-A45F-BC833EAAD3BD";
shapes = (
{
closed = 1;
nodes = (
(126,0,l),
(249,700,l),
(161,700,l),
(38,0,l)
);
}
);
width = 248;
},
{
anchors = (
{
name = bottom;
pos = (112,0);
},
{
name = center;
pos = (173,350);
},
{
name = ogonek;
pos = (194,0);
},
{
name = top;
pos = (235,700);
},
{
name = topleft;
pos = (93,700);
}
);
layerId = "ACA72793-194A-4122-860A-C95C9895C61C";
shapes = (
{
closed = 1;
nodes = (
(194,0,l),
(317,700,l),
(153,700,l),
(30,0,l)
);
}
);
width = 308;
}
);
metricLeft = H;
metricRight = H;
unicode = 73;
},
{
glyphname = Icapitalsmall;
lastChange = "2025-10-02 00:19:03 +0000";
layers = (
{
anchors = (
{
name = bottom;
pos = (97,0);
},
{
name = center;
pos = (97,350);
},
{
name = ogonek;
pos = (111,0);
},
{
name = top;
pos = (97,700);
},
{
name = topleft;
pos = (23,700);
}
);
layerId = m01;
shapes = (
{
closed = 1;
nodes = (
(113,0,l),
(113,700,l),
(85,700,l),
(85,0,l)
);
},
{
closed = 1;
nodes = (
(10,0,l),
(188,0,l),
(188,22,l),
(10,22,l)
);
},
{
closed = 1;
nodes = (
(10,678,l),
(188,678,l),
(188,700,l),
(10,700,l)
);
}
);
width = 198;
},
{
anchors = (
{
name = bottom;
pos = (180,0);
},
{
name = center;
pos = (180,350);
},
{
name = ogonek;
pos = (224,0);
},
{
name = top;
pos = (180,700);
},
{
name = topleft;
pos = (66,700);
}
);
layerId = m002;
shapes = (
{
closed = 1;
nodes = (
(199,0,l),
(199,700,l),
(111,700,l),
(111,0,l)
);
},
{
closed = 1;
nodes = (
(15,0,l),
(295,0,l),
(295,78,l),
(15,78,l)
);
},
{
closed = 1;
nodes = (
(15,622,l),
(295,622,l),
(295,700,l),
(15,700,l)
);
}
);
width = 310;
},
{
anchors = (
{
name = bottom;
pos = (275,0);
},
{
name = center;
pos = (275,350);
},
{
name = ogonek;
pos = (357,0);
},
{
name = top;
pos = (275,700);
},
{
name = topleft;
pos = (133,700);
}
);
layerId = m003;
shapes = (
{
closed = 1;
nodes = (
(302,0,l),
(302,700,l),
(138,700,l),
(138,0,l)
);
},
{
closed = 1;
nodes = (
(20,0,l),
(420,0,l),
(420,156,l),
(20,156,l)
);
},
{
closed = 1;
nodes = (
(20,544,l),
(420,544,l),
(420,700,l),
(20,700,l)
);
}
);
width = 440;
},
{
anchors = (
{
name = bottom;
pos = (42,0);
},
{
name = center;
pos = (103,350);
},
{
name = ogonek;
pos = (56,0);
},
{
name = top;
pos = (165,700);
},
{
name = topleft;
pos = (91,700);
}
);
layerId = "A4970244-97B1-4FA9-B3E0-2569B3FA35F0";
shapes = (
{
closed = 1;
nodes = (
(71,0,l),
(194,700,l),
(166,700,l),
(43,0,l)
);
},
{
closed = 1;
nodes = (
(-32,0,l),
(146,0,l),
(150,22,l),
(-28,22,l)
);
},
{
closed = 1;
nodes = (
(87,678,l),
(265,678,l),
(269,700,l),
(91,700,l)
);
}
);
width = 198;
},
{
anchors = (
{
name = bottom;
pos = (82,0);
},
{
name = center;
pos = (143,350);
},
{
name = ogonek;
pos = (126,0);
},
{
name = top;
pos = (205,700);
},
{
name = topleft;
pos = (91,700);
}
);
layerId = "E8DB84F4-EFBC-40F4-A45F-BC833EAAD3BD";
shapes = (
{
closed = 1;
nodes = (
(157,0,l),
(280,700,l),
(192,700,l),
(69,0,l)
);
},
{
closed = 1;
nodes = (
(-27,0,l),
(253,0,l),
(266,78,l),
(-14,78,l)
);
},
{
closed = 1;
nodes = (
(82,622,l),
(362,622,l),
(376,700,l),
(96,700,l)
);
}
);
width = 310;
},
{
anchors = (
{
name = bottom;
pos = (112,0);
},
{
name = center;
pos = (173,350);
},
{
name = ogonek;
pos = (194,0);
},
{
name = top;
pos = (235,700);
},
{
name = topleft;
pos = (93,700);
}
);
layerId = "ACA72793-194A-4122-860A-C95C9895C61C";
shapes = (
{
closed = 1;
nodes = (
(260,0,l),
(383,700,l),
(219,700,l),
(96,0,l)
);
},
{
closed = 1;
nodes = (
(-22,0,l),
(378,0,l),
(405,156,l),
(5,156,l)
);
},
{
closed = 1;
nodes = (
(74,544,l),
(474,544,l),
(501,700,l),
(101,700,l)
);
}
);
width = 440;
}
);
unicode = 42926;
},
{
color = 6;
glyphname = "Iota-latin";
lastChange = "2025-09-25 14:31:00 +0000";
layers = (
{
anchors = (
{
name = bottom;
pos = (151,0);
},
{
name = top;
pos = (151,700);
}
);
layerId = m01;
shapes = (
{
closed = 1;
nodes = (
(130,12,o),
(98,45,o),
(98,87,cs),
(98,148,l),
(70,148,l),
(70,84,ls),
(70,27,o),
(113,-16,o),
(170,-16,cs),
(231,-16,l),
(231,12,l),
(171,12,l)
);
},
{
closed = 1;
nodes = (
(98,148,l),
(98,700,l),
(70,700,l),
(70,148,l)
);
}
);
width = 301;
},
{
anchors = (
{
name = bottom;
pos = (167,0);
},
{
name = top;
pos = (167,700);
}
);
layerId = m002;
shapes = (
{
closed = 1;
nodes = (
(181,72,o),
(168,85,o),
(168,102,cs),
(168,148,l),
(80,148,l),
(80,74,ls),
(80,23,o),
(119,-16,o),
(170,-16,cs),
(254,-16,l),
(254,72,l),
(198,72,l)
);
},
{
closed = 1;
nodes = (
(168,148,l),
(168,700,l),
(80,700,l),
(80,148,l)
);
}
);
width = 334;
},
{
anchors = (
{
name = bottom;
pos = (187,0);
},
{
name = top;
pos = (187,700);
}
);
layerId = m003;
shapes = (
{
closed = 1;
nodes = (
(249,146,o),
(236,159,o),
(236,176,cs),
(236,222,l),
(72,222,l),
(72,104,ls),
(72,36,o),
(125,-16,o),
(192,-16,cs),
(302,-16,l),
(302,146,l),
(266,146,l)
);
},
{
closed = 1;
nodes = (
(236,222,l),
(236,700,l),
(72,700,l),
(72,222,l)
);
}
);
width = 374;
},
{
anchors = (
{
name = bottom;
pos = (109,0);
},
{
name = top;
pos = (232,700);
}
);
layerId = "A4970244-97B1-4FA9-B3E0-2569B3FA35F0";
shapes = (
{
closed = 1;
nodes = (
(89,12,o),
(63,44,o),
(71,86,cs),
(82,148,l),
(54,148,l),
(43,85,ls),
(33,28,o),
(69,-16,o),
(126,-16,cs),
(186,-16,l),
(191,12,l),
(130,12,l)
);
},
{
closed = 1;
nodes = (
(82,148,l),
(179,700,l),
(151,700,l),
(54,148,l)
);
}
);
width = 301;
},
{
anchors = (
{
name = bottom;
pos = (125,0);
},
{
name = top;
pos = (248,700);
}
);
layerId = "E8DB84F4-EFBC-40F4-A45F-BC833EAAD3BD";
shapes = (
{
closed = 1;
nodes = (
(148,72,o),
(140,82,o),
(143,99,cs),
(152,148,l),
(64,148,l),
(51,77,ls),
(42,26,o),
(77,-16,o),
(128,-16,cs),
(209,-16,l),
(224,72,l),
(165,72,l)
);
},
{
closed = 1;
nodes = (
(152,148,l),
(249,700,l),
(161,700,l),
(64,148,l)
);
}
);
width = 334;
},
{
anchors = (
{
name = bottom;
pos = (145,0);
},
{
name = top;
pos = (268,700);
}
);
layerId = "ACA72793-194A-4122-860A-C95C9895C61C";
shapes = (
{
closed = 1;
nodes = (
(227,146,o),
(221,154,o),
(224,171,cs),
(233,222,l),
(69,222,l),
(49,109,ls),
(37,41,o),
(86,-16,o),
(153,-16,cs),
(257,-16,l),
(285,146,l),
(244,146,l)
);
},
{
closed = 1;
nodes = (
(233,222,l),
(317,700,l),
(153,700,l),
(69,222,l)
);
}
);
width = 374;
}
);
metricLeft = I;
metricRight = I;
unicode = 406;
},
{
color = 6;
glyphname = J;
kernLeft = J;
kernRight = U;
lastChange = "2025-09-25 14:31:00 +0000";
layers = (
{
anchors = (
{
name = bottom;
pos = (264,0);
},
{
name = center;
pos = (494,538);
},
{
name = top;
pos = (495,700);
}
);
layerId = m01;
shapes = (
{
closed = 1;
nodes = (
(397,-16,o),
(509,105,o),
(509,259,cs),
(509,700,l),
(481,700,l),
(481,259,l),
(481,118,o),
(381,8,o),
(254,8,cs),
(140,8,o),
(54,95,o),
(32,219,c),
(4,219,l),
(28,82,o),
(126,-16,o),
(254,-16,cs)
);
}
);
width = 579;
},
{
anchors = (
{
name = bottom;
pos = (276,0);
},
{
name = center;
pos = (494,538);
},
{
name = top;
pos = (487,700);
}
);
layerId = m002;
shapes = (
{
closed = 1;
nodes = (
(420,-16,o),
(531,95,o),
(531,253,cs),
(531,700,l),
(443,700,l),
(443,243,l),
(443,138,o),
(373,64,o),
(273,64,cs),
(177,64,o),
(111,133,o),
(97,238,c),
(8,238,l),
(20,86,o),
(119,-16,o),
(263,-16,cs)
);
}
);
width = 611;
},
{
anchors = (
{
name = bottom;
pos = (292,0);
},
{
name = center;
pos = (494,538);
},
{
name = top;
pos = (487,700);
}
);
layerId = m003;
shapes = (
{
closed = 1;
nodes = (
(440,-16,o),
(569,118,o),
(569,289,cs),
(569,700,l),
(405,700,l),
(405,289,l),
(405,207,o),
(348,142,o),
(276,142,cs),
(226,142,o),
(185,172,o),
(163,219,c),
(-10,219,l),
(18,82,o),
(131,-16,o),
(276,-16,cs)
);
}
);
width = 641;
},
{
anchors = (
{
name = bottom;
pos = (221,0);
},
{
name = center;
pos = (544,538);
},
{
name = top;
pos = (575,700);
}
);
layerId = "A4970244-97B1-4FA9-B3E0-2569B3FA35F0";
shapes = (
{
closed = 1;
nodes = (
(352,-16,o),
(484,104,o),
(511,258,cs),
(589,700,l),
(561,700,l),
(483,260,l),
(459,119,o),
(338,8,o),
(211,8,cs),
(97,8,o),
(27,94,o),
(27,218,c),
(0,220,l),
(-1,83,o),
(81,-16,o),
(209,-16,cs)
);
}
);
width = 578;
},
{
anchors = (
{
name = bottom;
pos = (234,0);
},
{
name = center;
pos = (544,538);
},
{
name = top;
pos = (568,700);
}
);
layerId = "E8DB84F4-EFBC-40F4-A45F-BC833EAAD3BD";
shapes = (
{
closed = 1;
nodes = (
(378,-16,o),
(505,92,o),
(533,250,cs),
(612,700,l),
(524,700,l),
(444,246,l),
(426,141,o),
(339,64,o),
(239,64,cs),
(143,64,o),
(91,130,o),
(96,235,c),
(8,241,l),
(-6,89,o),
(77,-16,o),
(221,-16,cs)
);
}
);
width = 611;
},
{
anchors = (
{
name = bottom;
pos = (249,0);
},
{
name = center;
pos = (544,538);
},
{
name = top;
pos = (567,700);
}
);
layerId = "ACA72793-194A-4122-860A-C95C9895C61C";
shapes = (
{
closed = 1;
nodes = (
(400,-16,o),
(546,113,o),
(576,284,cs),
(649,700,l),
(485,700,l),
(414,294,l),
(399,212,o),
(324,142,o),
(252,142,cs),
(202,142,o),
(169,167,o),
(155,214,c),
(-13,224,l),
(-9,87,o),
(91,-16,o),
(236,-16,cs)
);
}
);
width = 640;
}
);
metricLeft = A;
metricRight = H;
unicode = 74;
},
{
glyphname = Jcrossedtail;
kernLeft = J;
kernRight = J;
lastChange = "2025-10-03 00:21:01 +0000";
layers = (
{
layerId = m01;
shapes = (
{
closed = 1;
nodes = (
(362,197,o),
(259,245,o),
(162,245,c),
(66,245,o),
(4,194,o),
(4,113,c),
(4,35,o),
(57,-15,o),
(142,-15,c),
(284,-15,o),
(371,77,o),
(371,221,c),
(371,700,l),
(343,700,l),
(343,221,l),
(343,89,o),
(267,9,o),
(142,9,c),
(73,9,o),
(32,47,o),
(32,113,c),
(32,180,o),
(80,221,o),
(162,221,c),
(251,221,o),
(344,179,o),
(408,107,c),
(428,123,l)
);
}
);
width = 498;
},
{
layerId = m002;
shapes = (
{
closed = 1;
nodes = (
(416,271,o),
(291,304,o),
(196,304,c),
(84,304,o),
(8,241,o),
(8,143,c),
(8,59,o),
(82,-14,o),
(196,-14,c),
(335,-14,o),
(435,91,o),
(435,251,c),
(435,700,l),
(347,700,l),
(347,251,l),
(347,135,o),
(284,68,o),
(196,68,c),
(132,68,o),
(96,103,o),
(96,143,c),
(96,193,o),
(130,222,o),
(196,222,c),
(273,222,o),
(366,195,o),
(435,102,c),
(505,150,l)
);
}
);
width = 585;
},
{
layerId = m003;
shapes = (
{
closed = 1;
nodes = (
(493,269,o),
(349,369,o),
(202,369,c),
(69,369,o),
(-10,283,o),
(-10,175,c),
(-10,61,o),
(73,-15,o),
(192,-15,c),
(358,-15,o),
(465,107,o),
(465,283,c),
(465,700,l),
(309,700,l),
(309,283,l),
(309,182,o),
(265,133,o),
(192,133,c),
(158,133,o),
(146,145,o),
(146,175,c),
(146,207,o),
(161,221,o),
(202,221,c),
(285,221,o),
(381,157,o),
(449,44,c),
(583,120,l)
);
}
);
width = 655;
},
{
layerId = "A4970244-97B1-4FA9-B3E0-2569B3FA35F0";
shapes = (
{
closed = 1;
nodes = (
(354,196,o),
(260,245,o),
(163,245,c),
(67,245,o),
(-3,195,o),
(-18,114,c),
(-31,36,o),
(14,-15,o),
(99,-15,c),
(241,-15,o),
(343,76,o),
(368,220,c),
(453,700,l),
(425,700,l),
(340,222,l),
(317,90,o),
(226,9,o),
(101,9,c),
(32,9,o),
(-2,46,o),
(10,112,c),
(22,179,o),
(78,221,o),
(160,221,c),
(249,221,o),
(335,180,o),
(386,108,c),
(407,122,l)
);
}
);
width = 498;
},
{
layerId = "E8DB84F4-EFBC-40F4-A45F-BC833EAAD3BD";
shapes = (
{
closed = 1;
nodes = (
(419,269,o),
(299,304,o),
(204,304,c),
(92,304,o),
(8,244,o),
(-9,146,c),
(-24,62,o),
(40,-14,o),
(154,-14,c),
(293,-14,o),
(408,88,o),
(436,248,c),
(516,700,l),
(428,700,l),
(349,254,l),
(329,138,o),
(250,68,o),
(162,68,c),
(98,68,o),
(71,100,o),
(78,140,c),
(87,190,o),
(130,222,o),
(196,222,c),
(273,222,o),
(360,197,o),
(412,104,c),
(487,148,l)
);
}
);
width = 583;
},
{
layerId = "ACA72793-194A-4122-860A-C95C9895C61C";
shapes = (
{
closed = 1;
nodes = (
(494,264,o),
(366,369,o),
(219,369,c),
(86,369,o),
(-2,288,o),
(-21,180,c),
(-41,66,o),
(33,-15,o),
(152,-15,c),
(318,-15,o),
(440,102,o),
(471,278,c),
(546,700,l),
(390,700,l),
(317,288,l),
(299,187,o),
(240,133,o),
(167,133,c),
(133,133,o),
(128,140,o),
(133,170,c),
(139,202,o),
(163,221,o),
(204,221,c),
(287,221,o),
(370,162,o),
(418,49,c),
(558,115,l)
);
}
);
width = 652;
}
);
metricLeft = J;
metricRight = J;
unicode = 42930;
},
{
color = 6;
glyphname = K;
kernLeft = H;
kernRight = K;
lastChange = "2025-09-25 14:31:00 +0000";
layers = (
{
anchors = (
{
name = bottom;
pos = (247,0);
},
{
name = center;
pos = (85,550);
},
{
name = top;
pos = (247,700);
}
);
layerId = m01;
shapes = (
{
closed = 1;
nodes = (
(497,0,l),
(130,375,l),
(101,367,l),
(461,0,l)
);
},
{
closed = 1;
nodes = (
(98,0,l),
(98,700,l),
(70,700,l),
(70,0,l)
);
},
{
closed = 1;
nodes = (
(117,349,l),
(475,700,l),
(441,700,l),
(78,349,l)
);
}
);
width = 501;
},
{
anchors = (
{
name = bottom;
pos = (301,0);
},
{
name = center;
pos = (119,550);
},
{
name = top;
pos = (301,700);
}
);
layerId = m002;
shapes = (
{
closed = 1;
nodes = (
(614,0,l),
(283,380,l),
(173,380,l),
(504,0,l)
);
},
{
closed = 1;
nodes = (
(168,0,l),
(168,700,l),
(80,700,l),
(80,0,l)
);
},
{
closed = 1;
nodes = (
(254,349,l),
(582,700,l),
(474,700,l),
(141,349,l)
);
}
);
width = 622;
},
{
anchors = (
{
name = bottom;
pos = (356,0);
},
{
name = center;
pos = (149,550);
},
{
name = top;
pos = (356,700);
}
);
layerId = m003;
shapes = (
{
closed = 1;
nodes = (
(714,0,l),
(418,380,l),
(218,380,l),
(514,0,l)
);
},
{
closed = 1;
nodes = (
(236,0,l),
(236,700,l),
(72,700,l),
(72,0,l)
);
},
{
closed = 1;
nodes = (
(394,349,l),
(692,700,l),
(494,700,l),
(191,349,l)
);
}
);
width = 704;
},
{
anchors = (
{
name = bottom;
pos = (205,0);
},
{
name = center;
pos = (149,550);
},
{
name = top;
pos = (328,700);
}
);
layerId = "A4970244-97B1-4FA9-B3E0-2569B3FA35F0";
shapes = (
{
closed = 1;
nodes = (
(455,0,l),
(154,375,l),
(123,367,l),
(419,0,l)
);
},
{
closed = 1;
nodes = (
(56,0,l),
(179,700,l),
(151,700,l),
(28,0,l)
);
},
{
closed = 1;
nodes = (
(136,349,l),
(556,700,l),
(522,700,l),
(97,349,l)
);
}
);
width = 501;
},
{
anchors = (
{
name = bottom;
pos = (259,0);
},
{
name = center;
pos = (176,550);
},
{
name = top;
pos = (382,700);
}
);
layerId = "E8DB84F4-EFBC-40F4-A45F-BC833EAAD3BD";
shapes = (
{
closed = 1;
nodes = (
(572,0,l),
(308,380,l),
(198,380,l),
(462,0,l)
);
},
{
closed = 1;
nodes = (
(126,0,l),
(249,700,l),
(161,700,l),
(38,0,l)
);
},
{
closed = 1;
nodes = (
(273,349,l),
(663,700,l),
(555,700,l),
(160,349,l)
);
}
);
width = 622;
},
{
anchors = (
{
name = bottom;
pos = (314,0);
},
{
name = center;
pos = (209,550);
},
{
name = top;
pos = (437,700);
}
);
layerId = "ACA72793-194A-4122-860A-C95C9895C61C";
shapes = (
{
closed = 1;
nodes = (
(672,0,l),
(443,380,l),
(243,380,l),
(472,0,l)
);
},
{
closed = 1;
nodes = (
(194,0,l),
(317,700,l),
(153,700,l),
(30,0,l)
);
},
{
closed = 1;
nodes = (
(413,349,l),
(773,700,l),
(575,700,l),
(210,349,l)
);
}
);
width = 704;
}
);
metricLeft = H;
metricRight = A;
unicode = 75;
},
{
color = 6;
glyphname = Khook;
kernLeft = Khook;
kernRight = Khook;
lastChange = "2025-09-25 14:31:00 +0000";
layers = (
{
anchors = (
{
name = bottom;
pos = (250,0);
},
{
name = top;
pos = (250,700);
}
);
layerId = m01;
shapes = (
{
closed = 1;
nodes = (
(483,0,l),
(135,369,l),
(359,624,ls),
(386,654,o),
(417,674,o),
(457,674,cs),
(472,674,l),
(472,700,l),
(447,700,ls),
(412,700,o),
(378,685,o),
(342,645,cs),
(78,349,l),
(116,349,l),
(447,0,l)
);
},
{
closed = 1;
nodes = (
(98,0,l),
(98,700,l),
(70,700,l),
(70,0,l)
);
}
);
width = 487;
},
{
anchors = (
{
name = bottom;
pos = (304,0);
},
{
name = top;
pos = (304,700);
}
);
layerId = m002;
shapes = (
{
closed = 1;
nodes = (
(589,0,l),
(252,386,l),
(436,589,ls),
(458,614,o),
(483,624,o),
(516,624,cs),
(555,624,l),
(555,700,l),
(477,700,ls),
(444,700,o),
(420,690,o),
(397,665,cs),
(106,349,l),
(181,349,l),
(477,0,l)
);
},
{
closed = 1;
nodes = (
(133,0,l),
(133,700,l),
(45,700,l),
(45,0,l)
);
}
);
width = 597;
},
{
anchors = (
{
name = bottom;
pos = (348,0);
},
{
name = top;
pos = (348,700);
}
);
layerId = m003;
shapes = (
{
closed = 1;
nodes = (
(679,0,l),
(344,383,l),
(418,474,ls),
(461,527,o),
(506,544,o),
(582,544,cs),
(631,544,l),
(631,700,l),
(557,700,ls),
(460,700,o),
(404,685,o),
(329,601,cs),
(106,349,l),
(171,349,l),
(467,0,l)
);
},
{
closed = 1;
nodes = (
(161,0,l),
(161,700,l),
(-3,700,l),
(-3,0,l)
);
}
);
width = 669;
},
{
anchors = (
{
name = bottom;
pos = (208,0);
},
{
name = top;
pos = (331,700);
}
);
layerId = "A4970244-97B1-4FA9-B3E0-2569B3FA35F0";
shapes = (
{
closed = 1;
nodes = (
(441,0,l),
(158,369,l),
(427,623,ls),
(460,653,o),
(495,674,o),
(535,674,cs),
(549,674,l),
(553,700,l),
(527,700,ls),
(492,700,o),
(456,686,o),
(413,646,cs),
(97,349,l),
(135,349,l),
(405,0,l)
);
},
{
closed = 1;
nodes = (
(56,0,l),
(179,700,l),
(151,700,l),
(28,0,l)
);
}
);
width = 487;
},
{
anchors = (
{
name = bottom;
pos = (262,0);
},
{
name = top;
pos = (385,700);
}
);
layerId = "E8DB84F4-EFBC-40F4-A45F-BC833EAAD3BD";
shapes = (
{
closed = 1;
nodes = (
(547,0,l),
(278,386,l),
(499,587,ls),
(526,612,o),
(554,624,o),
(587,624,cs),
(623,624,l),
(636,700,l),
(555,700,ls),
(522,700,o),
(498,692,o),
(470,667,cs),
(125,349,l),
(200,349,l),
(435,0,l)
);
},
{
closed = 1;
nodes = (
(91,0,l),
(214,700,l),
(126,700,l),
(3,0,l)
);
}
);
width = 597;
},
{
anchors = (
{
name = bottom;
pos = (306,0);
},
{
name = top;
pos = (429,700);
}
);
layerId = "ACA72793-194A-4122-860A-C95C9895C61C";
shapes = (
{
closed = 1;
nodes = (
(637,0,l),
(369,383,l),
(462,470,ls),
(514,523,o),
(565,544,o),
(641,544,cs),
(685,544,l),
(712,700,l),
(632,700,ls),
(535,700,o),
(479,689,o),
(390,605,cs),
(125,349,l),
(190,349,l),
(425,0,l)
);
},
{
closed = 1;
nodes = (
(119,0,l),
(242,700,l),
(78,700,l),
(-45,0,l)
);
}
);
width = 669;
}
);
metricRight = K;
unicode = 408;
},
{
color = 6;
glyphname = L;
kernLeft = H;
kernRight = L;
lastChange = "2025-09-25 14:31:00 +0000";
layers = (
{
anchors = (
{
name = bottom;
pos = (247,0);
},
{
name = center;
pos = (84,380);
},
{
name = top;
pos = (84,700);
},
{
name = topright;
pos = (373,700);
}
);
layerId = m01;
shapes = (
{
closed = 1;
nodes = (
(98,0,l),
(98,700,l),
(70,700,l),
(70,0,l)
);
},
{
closed = 1;
nodes = (
(492,0,l),
(492,24,l),
(87,24,l),
(87,0,l)
);
}
);
width = 496;
},
{
anchors = (
{
name = bottom;
pos = (273,0);
},
{
name = center;
pos = (124,370);
},
{
name = top;
pos = (124,700);
},
{
name = topright;
pos = (375,700);
}
);
layerId = m002;
shapes = (
{
closed = 1;
nodes = (
(168,0,l),
(168,700,l),
(80,700,l),
(80,0,l)
);
},
{
closed = 1;
nodes = (
(542,0,l),
(542,80,l),
(137,80,l),
(137,0,l)
);
}
);
width = 550;
},
{
anchors = (
{
name = bottom;
pos = (273,0);
},
{
name = center;
pos = (154,370);
},
{
name = top;
pos = (154,700);
},
{
name = topright;
pos = (363,700);
}
);
layerId = m003;
shapes = (
{
closed = 1;
nodes = (
(236,0,l),
(236,700,l),
(72,700,l),
(72,0,l)
);
},
{
closed = 1;
nodes = (
(542,0,l),
(542,156,l),
(137,156,l),
(137,0,l)
);
}
);
width = 532;
},
{
anchors = (
{
name = bottom;
pos = (205,0);
},
{
name = center;
pos = (109,380);
},
{
name = top;
pos = (165,700);
},
{
name = topright;
pos = (454,700);
}
);
layerId = "A4970244-97B1-4FA9-B3E0-2569B3FA35F0";
shapes = (
{
closed = 1;
nodes = (
(56,0,l),
(179,700,l),
(151,700,l),
(28,0,l)
);
},
{
closed = 1;
nodes = (
(450,0,l),
(454,24,l),
(49,24,l),
(45,0,l)
);
}
);
width = 496;
},
{
anchors = (
{
name = bottom;
pos = (231,0);
},
{
name = center;
pos = (147,370);
},
{
name = top;
pos = (205,700);
},
{
name = topright;
pos = (456,700);
}
);
layerId = "E8DB84F4-EFBC-40F4-A45F-BC833EAAD3BD";
shapes = (
{
closed = 1;
nodes = (
(126,0,l),
(249,700,l),
(161,700,l),
(38,0,l)
);
},
{
closed = 1;
nodes = (
(500,0,l),
(514,80,l),
(109,80,l),
(95,0,l)
);
}
);
width = 550;
},
{
anchors = (
{
name = bottom;
pos = (231,0);
},
{
name = center;
pos = (177,370);
},
{
name = top;
pos = (235,700);
},
{
name = topright;
pos = (444,700);
}
);
layerId = "ACA72793-194A-4122-860A-C95C9895C61C";
shapes = (
{
closed = 1;
nodes = (
(194,0,l),
(317,700,l),
(153,700,l),
(30,0,l)
);
},
{
closed = 1;
nodes = (
(500,0,l),
(527,156,l),
(122,156,l),
(95,0,l)
);
}
);
width = 532;
}
);
metricLeft = H;
metricRight = A;
unicode = 76;
},
{
glyphname = Lbelt;
kernRight = L;
lastChange = "2025-10-03 00:21:31 +0000";
layers = (
{
layerId = m01;
metricLeft = "=0";
shapes = (
{
closed = 1;
nodes = (
(346,326,l),
(346,356,l),
(72,356,l),
(46,356,o),
(30,372,o),
(30,398,c),
(30,424,o),
(46,440,o),
(72,440,c),
(99,440,o),
(116,422,o),
(116,392,c),
(144,392,l),
(144,437,o),
(118,465,o),
(76,464,c),
(29,465,o),
(0,440,o),
(0,398,c),
(0,354,o),
(26,326,o),
(69,326,c)
);
},
{
pos = (46,0);
ref = L;
}
);
width = 542;
},
{
layerId = m002;
metricLeft = "=0";
shapes = (
{
closed = 1;
nodes = (
(436,300,l),
(436,378,l),
(122,378,l),
(102,378,o),
(90,390,o),
(90,410,c),
(90,430,o),
(102,442,o),
(122,442,c),
(143,442,o),
(156,427,o),
(156,404,c),
(244,404,l),
(244,477,o),
(199,522,o),
(126,520,c),
(48,522,o),
(0,480,o),
(0,410,c),
(0,342,o),
(46,300,o),
(119,300,c)
);
},
{
pos = (76,0);
ref = L;
}
);
width = 626;
},
{
layerId = m003;
metricLeft = "=0";
shapes = (
{
closed = 1;
nodes = (
(476,272,l),
(476,388,l),
(142,388,l),
(122,388,o),
(110,400,o),
(110,420,c),
(110,440,o),
(122,452,o),
(142,452,c),
(163,452,o),
(176,437,o),
(176,414,c),
(304,414,l),
(304,512,o),
(244,571,o),
(146,568,c),
(56,570,o),
(0,514,o),
(0,420,c),
(0,329,o),
(53,272,o),
(139,272,c)
);
},
{
pos = (103,0);
ref = L;
}
);
width = 635;
},
{
layerId = "A4970244-97B1-4FA9-B3E0-2569B3FA35F0";
metricLeft = "=0";
shapes = (
{
closed = 1;
nodes = (
(361,326,l),
(366,356,l),
(91,356,l),
(65,356,o),
(53,371,o),
(57,397,c),
(62,423,o),
(82,440,o),
(108,440,c),
(135,440,o),
(148,423,o),
(143,393,c),
(170,391,l),
(178,436,o),
(156,465,o),
(114,464,c),
(67,465,o),
(35,441,o),
(28,399,c),
(20,355,o),
(42,326,o),
(85,326,c)
);
},
{
pos = (46,0);
ref = L;
}
);
width = 542;
},
{
layerId = "E8DB84F4-EFBC-40F4-A45F-BC833EAAD3BD";
metricLeft = "=0";
shapes = (
{
closed = 1;
nodes = (
(447,300,l),
(461,378,l),
(144,378,l),
(124,378,o),
(117,387,o),
(120,407,c),
(124,427,o),
(141,442,o),
(161,442,c),
(182,442,o),
(190,430,o),
(186,407,c),
(272,401,l),
(285,474,o),
(246,522,o),
(173,520,c),
(95,522,o),
(43,483,o),
(31,413,c),
(19,345,o),
(60,300,o),
(133,300,c)
);
},
{
pos = (76,0);
ref = L;
}
);
width = 626;
},
{
layerId = "ACA72793-194A-4122-860A-C95C9895C61C";
metricLeft = "=0";
shapes = (
{
closed = 1;
nodes = (
(482,272,l),
(503,388,l),
(167,388,l),
(153,388,o),
(138,399,o),
(141,419,c),
(145,439,o),
(161,452,o),
(184,452,c),
(207,452,o),
(212,442,o),
(208,419,c),
(334,409,l),
(352,507,o),
(297,571,o),
(199,568,c),
(109,570,o),
(50,519,o),
(33,425,c),
(17,334,o),
(65,272,o),
(151,272,c)
);
},
{
pos = (104,0);
ref = L;
}
);
width = 636;
}
);
metricLeft = L;
metricRight = L;
unicode = 42925;
},
{
glyphname = Ldoublebar;
lastChange = "2025-10-01 14:00:17 +0000";
layers = (
{
anchors = (
{
name = bottom;
pos = (263,0);
},
{
name = center;
pos = (100,380);
},
{
name = top;
pos = (100,700);
},
{
name = topright;
pos = (389,700);
}
);
layerId = m01;
shapes = (
{
closed = 1;
nodes = (
(114,0,l),
(114,700,l),
(86,700,l),
(86,0,l)
);
},
{
closed = 1;
nodes = (
(508,0,l),
(508,24,l),
(103,24,l),
(103,0,l)
);
},
{
closed = 1;
nodes = (
(210,339,l),
(210,361,l),
(-10,361,l),
(-10,339,l)
);
},
{
closed = 1;
nodes = (
(210,429,l),
(210,451,l),
(-10,451,l),
(-10,429,l)
);
}
);
width = 512;
},
{
anchors = (
{
name = bottom;
pos = (273,0);
},
{
name = center;
pos = (124,370);
},
{
name = top;
pos = (124,700);
},
{
name = topright;
pos = (375,700);
}
);
layerId = m002;
shapes = (
{
closed = 1;
nodes = (
(168,0,l),
(168,700,l),
(80,700,l),
(80,0,l)
);
},
{
closed = 1;
nodes = (
(542,0,l),
(542,80,l),
(137,80,l),
(137,0,l)
);
},
{
closed = 1;
nodes = (
(234,300,l),
(234,380,l),
(14,380,l),
(14,300,l)
);
},
{
closed = 1;
nodes = (
(234,420,l),
(234,500,l),
(14,500,l),
(14,420,l)
);
}
);
width = 550;
},
{
anchors = (
{
name = bottom;
pos = (273,0);
},
{
name = center;
pos = (154,370);
},
{
name = top;
pos = (154,700);
},
{
name = topright;
pos = (363,700);
}
);
layerId = m003;
shapes = (
{
closed = 1;
nodes = (
(236,0,l),
(236,700,l),
(72,700,l),
(72,0,l)
);
},
{
closed = 1;
nodes = (
(542,0,l),
(542,156,l),
(137,156,l),
(137,0,l)
);
},
{
closed = 1;
nodes = (
(304,286,l),
(304,394,l),
(4,394,l),
(4,286,l)
);
},
{
closed = 1;
nodes = (
(304,446,l),
(304,554,l),
(4,554,l),
(4,446,l)
);
}
);
width = 532;
},
{
anchors = (
{
name = bottom;
pos = (221,0);
},
{
name = center;
pos = (125,380);
},
{
name = top;
pos = (181,700);
},
{
name = topright;
pos = (470,700);
}
);
layerId = "A4970244-97B1-4FA9-B3E0-2569B3FA35F0";
shapes = (
{
closed = 1;
nodes = (
(72,0,l),
(195,700,l),
(167,700,l),
(44,0,l)
);
},
{
closed = 1;
nodes = (
(466,0,l),
(470,24,l),
(65,24,l),
(61,0,l)
);
},
{
closed = 1;
nodes = (
(227,339,l),
(231,361,l),
(11,361,l),
(7,339,l)
);
},
{
closed = 1;
nodes = (
(243,429,l),
(247,451,l),
(27,451,l),
(23,429,l)
);
}
);
width = 512;
},
{
anchors = (
{
name = bottom;
pos = (231,0);
},
{
name = center;
pos = (147,370);
},
{
name = top;
pos = (205,700);
},
{
name = topright;
pos = (456,700);
}
);
layerId = "E8DB84F4-EFBC-40F4-A45F-BC833EAAD3BD";
shapes = (
{
closed = 1;
nodes = (
(126,0,l),
(249,700,l),
(161,700,l),
(38,0,l)
);
},
{
closed = 1;
nodes = (
(500,0,l),
(514,80,l),
(109,80,l),
(95,0,l)
);
},
{
closed = 1;
nodes = (
(245,300,l),
(259,380,l),
(39,380,l),
(25,300,l)
);
},
{
closed = 1;
nodes = (
(266,420,l),
(280,500,l),
(60,500,l),
(46,420,l)
);
}
);
width = 550;
},
{
anchors = (
{
name = bottom;
pos = (231,0);
},
{
name = center;
pos = (177,370);
},
{
name = top;
pos = (235,700);
},
{
name = topright;
pos = (444,700);
}
);
layerId = "ACA72793-194A-4122-860A-C95C9895C61C";
shapes = (
{
closed = 1;
nodes = (
(194,0,l),
(317,700,l),
(153,700,l),
(30,0,l)
);
},
{
closed = 1;
nodes = (
(500,0,l),
(527,156,l),
(122,156,l),
(95,0,l)
);
},
{
closed = 1;
nodes = (
(312,286,l),
(331,394,l),
(31,394,l),
(12,286,l)
);
},
{
closed = 1;
nodes = (
(340,446,l),
(359,554,l),
(59,554,l),
(40,446,l)
);
}
);
width = 532;
}
);
unicode = 11360;
},
{
glyphname = Lmiddletilde;
layers = (
{
layerId = m01;
shapes = (
{
closed = 1;
nodes = (
(530,0,l),
(530,24,l),
(136,24,l),
(136,700,l),
(108,700,l),
(108,0,l)
);
},
{
closed = 1;
nodes = (
(27,325,l),
(27,367,o),
(33,401,o),
(70,401,c),
(123,401,o),
(104,325,o),
(173,325,c),
(224,325,o),
(239,368,o),
(239,425,c),
(217,425,l),
(217,383,o),
(209,349,o),
(174,349,c),
(118,349,o),
(143,425,o),
(71,425,c),
(20,425,o),
(5,382,o),
(5,325,c)
);
}
);
width = 534;
},
{
layerId = m002;
shapes = (
{
closed = 1;
nodes = (
(561,0,l),
(561,80,l),
(187,80,l),
(187,700,l),
(99,700,l),
(99,0,l)
);
},
{
closed = 1;
nodes = (
(60,317,l),
(60,360,o),
(68,380,o),
(89,380,c),
(130,380,o),
(124,317,o),
(197,317,c),
(272,317,o),
(296,375,o),
(296,454,c),
(226,454,l),
(226,411,o),
(218,391,o),
(197,391,c),
(156,391,o),
(162,454,o),
(89,454,c),
(14,454,o),
(-10,396,o),
(-10,317,c)
);
}
);
width = 569;
},
{
layerId = m003;
shapes = (
{
closed = 1;
nodes = (
(589,0,l),
(589,156,l),
(283,156,l),
(283,700,l),
(119,700,l),
(119,0,l)
);
},
{
closed = 1;
nodes = (
(106,305,l),
(106,320,o),
(109,343,o),
(134,343,c),
(171,343,o),
(225,305,o),
(295,305,c),
(366,305,o),
(412,365,o),
(412,467,c),
(296,467,l),
(296,452,o),
(293,429,o),
(268,429,c),
(231,429,o),
(177,467,o),
(107,467,c),
(36,467,o),
(-10,407,o),
(-10,305,c)
);
}
);
width = 579;
},
{
layerId = "A4970244-97B1-4FA9-B3E0-2569B3FA35F0";
shapes = (
{
closed = 1;
nodes = (
(482,0,l),
(486,24,l),
(92,24,l),
(211,700,l),
(183,700,l),
(60,0,l)
);
},
{
closed = 1;
nodes = (
(42,325,l),
(49,366,o),
(62,401,o),
(99,401,c),
(152,401,o),
(120,325,o),
(189,325,c),
(240,325,o),
(261,367,o),
(271,425,c),
(250,425,l),
(242,384,o),
(227,349,o),
(192,349,c),
(136,349,o),
(175,425,o),
(103,425,c),
(52,425,o),
(30,383,o),
(20,325,c)
);
}
);
width = 528;
},
{
layerId = "E8DB84F4-EFBC-40F4-A45F-BC833EAAD3BD";
shapes = (
{
closed = 1;
nodes = (
(500,0,l),
(514,80,l),
(140,80,l),
(249,700,l),
(161,700,l),
(38,0,l)
);
},
{
closed = 1;
nodes = (
(54,317,l),
(62,357,o),
(77,380,o),
(98,380,c),
(139,380,o),
(122,317,o),
(195,317,c),
(270,317,o),
(300,372,o),
(314,454,c),
(245,454,l),
(238,414,o),
(223,391,o),
(202,391,c),
(161,391,o),
(178,454,o),
(105,454,c),
(30,454,o),
(-1,399,o),
(-15,317,c)
);
}
);
width = 550;
},
{
layerId = "ACA72793-194A-4122-860A-C95C9895C61C";
shapes = (
{
closed = 1;
nodes = (
(561,0,l),
(588,156,l),
(282,156,l),
(378,700,l),
(214,700,l),
(91,0,l)
);
},
{
closed = 1;
nodes = (
(131,305,l),
(133,315,o),
(137,343,o),
(172,343,c),
(209,343,o),
(256,305,o),
(326,305,c),
(397,305,o),
(447,360,o),
(465,467,c),
(351,467,l),
(348,457,o),
(345,429,o),
(310,429,c),
(273,429,o),
(225,467,o),
(155,467,c),
(84,467,o),
(34,412,o),
(16,305,c)
);
}
);
width = 593;
}
);
metricRight = L;
unicode = 11362;
},
{
color = 6;
glyphname = M;
kernLeft = H;
kernRight = H;
lastChange = "2025-09-25 14:31:00 +0000";
layers = (
{
anchors = (
{
name = bottom;
pos = (414,0);
},
{
name = top;
pos = (414,700);
}
);
layerId = m01;
shapes = (
{
closed = 1;
nodes = (
(764,0,l),
(764,700,l),
(736,700,l),
(736,0,l)
);
},
{
closed = 1;
nodes = (
(93,0,l),
(93,700,l),
(65,700,l),
(65,0,l)
);
},
{
closed = 1;
nodes = (
(429,0,l),
(750,700,l),
(716,700,l),
(404,12,l),
(423,12,l),
(113,700,l),
(79,700,l),
(399,0,l)
);
}
);
width = 834;
},
{
anchors = (
{
name = bottom;
pos = (458,0);
},
{
name = top;
pos = (458,700);
}
);
layerId = m002;
shapes = (
{
closed = 1;
nodes = (
(841,0,l),
(841,700,l),
(753,700,l),
(753,0,l)
);
},
{
closed = 1;
nodes = (
(163,0,l),
(163,700,l),
(75,700,l),
(75,0,l)
);
},
{
closed = 1;
nodes = (
(499,0,l),
(826,700,l),
(730,700,l),
(445,89,l),
(470,89,l),
(187,700,l),
(90,700,l),
(418,0,l)
);
}
);
width = 921;
},
{
anchors = (
{
name = bottom;
pos = (504,0);
},
{
name = top;
pos = (504,700);
}
);
layerId = m003;
shapes = (
{
closed = 1;
nodes = (
(944,0,l),
(944,700,l),
(780,700,l),
(780,0,l)
);
},
{
closed = 1;
nodes = (
(231,0,l),
(231,700,l),
(67,700,l),
(67,0,l)
);
},
{
closed = 1;
nodes = (
(582,0,l),
(873,700,l),
(728,700,l),
(470,106,l),
(539,106,l),
(282,700,l),
(137,700,l),
(429,0,l)
);
}
);
width = 1016;
},
{
anchors = (
{
name = bottom;
pos = (401,0);
},
{
name = top;
pos = (524,700);
}
);
layerId = "A4970244-97B1-4FA9-B3E0-2569B3FA35F0";
shapes = (
{
closed = 1;
nodes = (
(722,0,l),
(871,700,l),
(843,700,l),
(694,0,l)
);
},
{
closed = 1;
nodes = (
(51,0,l),
(200,700,l),
(172,700,l),
(23,0,l)
);
},
{
closed = 1;
nodes = (
(387,0,l),
(857,700,l),
(823,700,l),
(365,12,l),
(384,12,l),
(220,700,l),
(186,700,l),
(357,0,l)
);
}
);
width = 860;
},
{
anchors = (
{
name = bottom;
pos = (375,0);
},
{
name = top;
pos = (498,700);
}
);
layerId = "E8DB84F4-EFBC-40F4-A45F-BC833EAAD3BD";
shapes = (
{
closed = 1;
nodes = (
(799,0,l),
(948,700,l),
(860,700,l),
(711,0,l)
);
},
{
closed = 1;
nodes = (
(121,0,l),
(270,700,l),
(182,700,l),
(33,0,l)
);
},
{
closed = 1;
nodes = (
(457,0,l),
(933,700,l),
(837,700,l),
(422,89,l),
(447,89,l),
(294,700,l),
(197,700,l),
(376,0,l)
);
}
);
width = 947;
},
{
anchors = (
{
name = bottom;
pos = (441,0);
},
{
name = top;
pos = (564,700);
}
);
layerId = "ACA72793-194A-4122-860A-C95C9895C61C";
shapes = (
{
closed = 1;
nodes = (
(902,0,l),
(1051,700,l),
(887,700,l),
(738,0,l)
);
},
{
closed = 1;
nodes = (
(189,0,l),
(338,700,l),
(174,700,l),
(25,0,l)
);
},
{
closed = 1;
nodes = (
(540,0,l),
(980,700,l),
(835,700,l),
(451,106,l),
(520,106,l),
(389,700,l),
(244,700,l),
(387,0,l)
);
}
);
width = 1042;
}
);
metricLeft = "=H-5";
metricRight = H;
unicode = 77;
},
{
glyphname = Mturned;
lastChange = "2025-10-01 21:58:54 +0000";
layers = (
{
layerId = m01;
shapes = (
{
closed = 1;
nodes = (
(323,-16,o),
(388,33,o),
(410,106,c),
(406,105,l),
(429,35,o),
(499,-16,o),
(582,-16,cs),
(652,-16,o),
(711,31,o),
(736,98,c),
(733,102,l),
(733,0,l),
(762,0,l),
(762,700,l),
(732,700,l),
(732,172,ls),
(732,80,o),
(665,8,o),
(579,8,cs),
(493,8,o),
(426,76,o),
(426,162,cs),
(426,700,l),
(396,700,l),
(396,162,ls),
(396,76,o),
(329,8,o),
(243,8,cs),
(157,8,o),
(90,76,o),
(90,162,cs),
(90,700,l),
(60,700,l),
(60,160,ls),
(60,61,o),
(142,-16,o),
(246,-16,cs)
);
}
);
width = 819;
},
{
layerId = m002;
shapes = (
{
closed = 1;
nodes = (
(345,-16,o),
(411,36,o),
(438,113,c),
(418,112,l),
(446,37,o),
(515,-16,o),
(596,-16,cs),
(663,-16,o),
(722,19,o),
(756,76,c),
(742,92,l),
(742,0,l),
(830,0,l),
(830,700,l),
(742,700,l),
(742,196,ls),
(742,115,o),
(687,62,o),
(618,62,cs),
(549,62,o),
(494,117,o),
(494,186,cs),
(494,700,l),
(406,700,l),
(406,186,ls),
(406,117,o),
(351,62,o),
(282,62,cs),
(213,62,o),
(158,117,o),
(158,186,cs),
(158,700,l),
(70,700,l),
(70,186,ls),
(70,73,o),
(156,-16,o),
(265,-16,cs)
);
}
);
width = 897;
},
{
layerId = m003;
shapes = (
{
closed = 1;
nodes = (
(379,-16,o),
(447,23,o),
(486,90,c),
(431,102,l),
(468,34,o),
(536,-16,o),
(613,-16,cs),
(677,-16,o),
(729,21,o),
(762,82,c),
(731,116,l),
(732,0,l),
(896,0,l),
(895,700,l),
(731,700,l),
(731,241,ls),
(731,188,o),
(689,142,o),
(641,142,cs),
(593,142,o),
(562,174,o),
(562,221,cs),
(561,700,l),
(397,700,l),
(397,231,ls),
(397,184,o),
(355,142,o),
(307,142,cs),
(259,142,o),
(228,174,o),
(228,221,cs),
(227,700,l),
(63,700,l),
(63,231,ls),
(63,95,o),
(170,-16,o),
(298,-16,cs)
);
}
);
width = 956;
},
{
layerId = "A4970244-97B1-4FA9-B3E0-2569B3FA35F0";
shapes = (
{
closed = 1;
nodes = (
(279,-16,o),
(352,32,o),
(387,105,c),
(383,106,l),
(393,36,o),
(455,-16,o),
(538,-16,cs),
(608,-16,o),
(674,30,o),
(711,97,c),
(709,102,l),
(691,0,l),
(720,0,l),
(843,700,l),
(813,700,l),
(720,173,ls),
(704,81,o),
(623,8,o),
(537,8,cs),
(451,8,o),
(397,75,o),
(412,161,cs),
(507,700,l),
(477,700,l),
(382,163,ls),
(367,77,o),
(287,8,o),
(201,8,cs),
(115,8,o),
(61,75,o),
(76,161,cs),
(171,700,l),
(141,700,l),
(46,161,ls),
(29,62,o),
(98,-16,o),
(202,-16,cs)
);
}
);
width = 819;
},
{
layerId = "E8DB84F4-EFBC-40F4-A45F-BC833EAAD3BD";
shapes = (
{
closed = 1;
nodes = (
(303,-16,o),
(376,33,o),
(416,110,c),
(397,115,l),
(412,40,o),
(473,-16,o),
(554,-16,cs),
(621,-16,o),
(684,17,o),
(728,74,c),
(716,92,l),
(700,0,l),
(788,0,l),
(911,700,l),
(823,700,l),
(735,199,ls),
(720,118,o),
(653,62,o),
(584,62,cs),
(515,62,o),
(472,114,o),
(484,183,cs),
(575,700,l),
(487,700,l),
(397,189,ls),
(385,120,o),
(317,62,o),
(248,62,cs),
(179,62,o),
(136,114,o),
(148,183,cs),
(239,700,l),
(151,700,l),
(61,189,ls),
(41,76,o),
(114,-16,o),
(223,-16,cs)
);
}
);
width = 897;
},
{
layerId = "ACA72793-194A-4122-860A-C95C9895C61C";
shapes = (
{
closed = 1;
nodes = (
(340,-16,o),
(411,18,o),
(462,85,c),
(410,107,l),
(435,39,o),
(497,-16,o),
(574,-16,cs),
(638,-16,o),
(692,16,o),
(736,77,c),
(709,116,l),
(690,0,l),
(854,0,l),
(976,700,l),
(812,700,l),
(732,246,ls),
(723,193,o),
(666,142,o),
(618,142,cs),
(570,142,o),
(549,169,o),
(558,216,cs),
(642,700,l),
(478,700,l),
(396,236,ls),
(388,189,o),
(332,142,o),
(284,142,cs),
(236,142,o),
(215,169,o),
(224,216,cs),
(308,700,l),
(144,700,l),
(62,236,ls),
(38,100,o),
(131,-16,o),
(259,-16,cs)
);
}
);
width = 955;
}
);
unicode = 412;
},
{
color = 6;
glyphname = N;
kernLeft = H;
kernRight = H;
lastChange = "2025-09-25 14:31:00 +0000";
layers = (
{
anchors = (
{
name = bottom;
pos = (317,0);
},
{
name = top;
pos = (337,700);
}
);
layerId = m01;
shapes = (
{
closed = 1;
nodes = (
(584,0,l),
(101,700,l),
(70,700,l),
(551,0,l)
);
},
{
closed = 1;
nodes = (
(93,0,l),
(93,700,l),
(65,700,l),
(65,0,l)
);
},
{
closed = 1;
nodes = (
(589,0,l),
(589,700,l),
(561,700,l),
(561,0,l)
);
}
);
width = 654;
},
{
anchors = (
{
name = bottom;
pos = (370,0);
},
{
name = top;
pos = (390,700);
}
);
layerId = m002;
shapes = (
{
closed = 1;
nodes = (
(684,0,l),
(179,700,l),
(75,700,l),
(580,0,l)
);
},
{
closed = 1;
nodes = (
(163,0,l),
(163,700,l),
(75,700,l),
(75,0,l)
);
},
{
closed = 1;
nodes = (
(684,0,l),
(684,700,l),
(596,700,l),
(596,0,l)
);
}
);
width = 759;
},
{
anchors = (
{
name = bottom;
pos = (380,0);
},
{
name = top;
pos = (400,700);
}
);
layerId = m003;
shapes = (
{
closed = 1;
nodes = (
(678,0,l),
(263,700,l),
(101,700,l),
(516,0,l)
);
},
{
closed = 1;
nodes = (
(231,0,l),
(231,700,l),
(67,700,l),
(67,0,l)
);
},
{
closed = 1;
nodes = (
(712,0,l),
(712,700,l),
(548,700,l),
(548,0,l)
);
}
);
width = 779;
},
{
anchors = (
{
name = bottom;
pos = (275,0);
},
{
name = top;
pos = (418,700);
}
);
layerId = "A4970244-97B1-4FA9-B3E0-2569B3FA35F0";
shapes = (
{
closed = 1;
nodes = (
(542,0,l),
(182,700,l),
(151,700,l),
(509,0,l)
);
},
{
closed = 1;
nodes = (
(51,0,l),
(174,700,l),
(146,700,l),
(23,0,l)
);
},
{
closed = 1;
nodes = (
(547,0,l),
(670,700,l),
(642,700,l),
(519,0,l)
);
}
);
width = 654;
},
{
anchors = (
{
name = bottom;
pos = (328,0);
},
{
name = top;
pos = (471,700);
}
);
layerId = "E8DB84F4-EFBC-40F4-A45F-BC833EAAD3BD";
shapes = (
{
closed = 1;
nodes = (
(642,0,l),
(260,700,l),
(156,700,l),
(538,0,l)
);
},
{
closed = 1;
nodes = (
(121,0,l),
(244,700,l),
(156,700,l),
(33,0,l)
);
},
{
closed = 1;
nodes = (
(642,0,l),
(765,700,l),
(677,700,l),
(554,0,l)
);
}
);
width = 759;
},
{
anchors = (
{
name = bottom;
pos = (338,0);
},
{
name = top;
pos = (471,700);
}
);
layerId = "ACA72793-194A-4122-860A-C95C9895C61C";
shapes = (
{
closed = 1;
nodes = (
(636,0,l),
(344,700,l),
(182,700,l),
(474,0,l)
);
},
{
closed = 1;
nodes = (
(189,0,l),
(312,700,l),
(148,700,l),
(25,0,l)
);
},
{
closed = 1;
nodes = (
(670,0,l),
(793,700,l),
(629,700,l),
(506,0,l)
);
}
);
width = 779;
}
);
metricLeft = "=H-5";
metricRight = "=H-5";
unicode = 78;
},
{
color = 6;
glyphname = Nhookleft;
lastChange = "2025-09-25 14:31:00 +0000";
layers = (
{
anchors = (
{
name = bottom;
pos = (385,0);
},
{
name = top;
pos = (385,700);
}
);
layerId = m01;
shapes = (
{
closed = 1;
nodes = (
(700,0,l),
(217,700,l),
(186,700,l),
(667,0,l)
);
},
{
closed = 1;
nodes = (
(209,0,l),
(209,700,l),
(181,700,l),
(181,0,l)
);
},
{
closed = 1;
nodes = (
(705,0,l),
(705,700,l),
(677,700,l),
(677,0,l)
);
},
{
closed = 1;
nodes = (
(181,-96,o),
(148,-128,o),
(106,-128,cs),
(45,-128,l),
(45,-154,l),
(109,-154,ls),
(165,-154,o),
(209,-110,o),
(209,-54,cs),
(209,0,l),
(181,0,l),
(181,-55,l)
);
}
);
width = 770;
},
{
anchors = (
{
name = bottom;
pos = (408,0);
},
{
name = top;
pos = (408,700);
}
);
layerId = m002;
shapes = (
{
closed = 1;
nodes = (
(740,0,l),
(235,700,l),
(131,700,l),
(636,0,l)
);
},
{
closed = 1;
nodes = (
(219,0,l),
(219,700,l),
(131,700,l),
(131,0,l)
);
},
{
closed = 1;
nodes = (
(740,0,l),
(740,700,l),
(652,700,l),
(652,0,l)
);
},
{
closed = 1;
nodes = (
(131,-93,o),
(118,-106,o),
(101,-106,cs),
(55,-106,l),
(55,-184,l),
(129,-184,ls),
(179,-184,o),
(219,-144,o),
(219,-94,cs),
(219,0,l),
(131,0,l),
(131,-76,l)
);
}
);
width = 815;
},
{
anchors = (
{
name = bottom;
pos = (417,0);
},
{
name = top;
pos = (417,700);
}
);
layerId = m003;
shapes = (
{
closed = 1;
nodes = (
(732,0,l),
(317,700,l),
(155,700,l),
(570,0,l)
);
},
{
closed = 1;
nodes = (
(285,0,l),
(285,700,l),
(121,700,l),
(121,0,l)
);
},
{
closed = 1;
nodes = (
(766,0,l),
(766,700,l),
(602,700,l),
(602,0,l)
);
},
{
closed = 1;
nodes = (
(121,-63,o),
(108,-76,o),
(91,-76,cs),
(47,-76,l),
(47,-219,l),
(145,-219,ls),
(223,-219,o),
(285,-157,o),
(285,-79,cs),
(285,0,l),
(121,0,l),
(121,-46,l)
);
}
);
width = 833;
},
{
anchors = (
{
name = bottom;
pos = (343,0);
},
{
name = top;
pos = (466,700);
}
);
layerId = "A4970244-97B1-4FA9-B3E0-2569B3FA35F0";
shapes = (
{
closed = 1;
nodes = (
(658,0,l),
(298,700,l),
(267,700,l),
(625,0,l)
);
},
{
closed = 1;
nodes = (
(167,0,l),
(290,700,l),
(262,700,l),
(139,0,l)
);
},
{
closed = 1;
nodes = (
(663,0,l),
(786,700,l),
(758,700,l),
(635,0,l)
);
},
{
closed = 1;
nodes = (
(122,-95,o),
(82,-128,o),
(40,-128,cs),
(-20,-128,l),
(-24,-154,l),
(41,-154,ls),
(97,-154,o),
(147,-111,o),
(157,-55,cs),
(167,0,l),
(139,0,l),
(129,-54,l)
);
}
);
width = 770;
},
{
anchors = (
{
name = bottom;
pos = (366,0);
},
{
name = top;
pos = (489,700);
}
);
layerId = "E8DB84F4-EFBC-40F4-A45F-BC833EAAD3BD";
shapes = (
{
closed = 1;
nodes = (
(698,0,l),
(316,700,l),
(212,700,l),
(594,0,l)
);
},
{
closed = 1;
nodes = (
(177,0,l),
(300,700,l),
(212,700,l),
(89,0,l)
);
},
{
closed = 1;
nodes = (
(698,0,l),
(821,700,l),
(733,700,l),
(610,0,l)
);
},
{
closed = 1;
nodes = (
(73,-90,o),
(54,-106,o),
(37,-106,cs),
(-6,-106,l),
(-20,-184,l),
(57,-184,ls),
(107,-184,o),
(151,-147,o),
(160,-97,cs),
(177,0,l),
(89,0,l),
(76,-73,l)
);
}
);
width = 815;
},
{
anchors = (
{
name = bottom;
pos = (375,0);
},
{
name = top;
pos = (498,700);
}
);
layerId = "ACA72793-194A-4122-860A-C95C9895C61C";
shapes = (
{
closed = 1;
nodes = (
(690,0,l),
(398,700,l),
(236,700,l),
(528,0,l)
);
},
{
closed = 1;
nodes = (
(243,0,l),
(366,700,l),
(202,700,l),
(79,0,l)
);
},
{
closed = 1;
nodes = (
(724,0,l),
(847,700,l),
(683,700,l),
(560,0,l)
);
},
{
closed = 1;
nodes = (
(69,-58,o),
(47,-76,o),
(30,-76,cs),
(-9,-76,l),
(-34,-219,l),
(70,-219,ls),
(148,-219,o),
(214,-162,o),
(228,-84,cs),
(243,0,l),
(79,0,l),
(72,-41,l)
);
}
);
width = 833;
}
);
metricLeft = "=N-20";
metricRight = N;
unicode = 413;
},
{
glyphname = Nlongrightleg;
lastChange = "2025-10-01 22:03:25 +0000";
layers = (
{
layerId = m01;
shapes = (
{
closed = 1;
nodes = (
(90,0,l),
(90,487,ls),
(90,602,o),
(178,692,o),
(292,692,cs),
(406,692,o),
(494,602,o),
(494,487,cs),
(494,-234,l),
(524,-234,l),
(524,487,ls),
(524,614,o),
(422,716,o),
(294,716,cs),
(199,716,o),
(118,656,o),
(87,571,c),
(89,567,l),
(89,700,l),
(60,700,l),
(60,0,l)
);
}
);
width = 581;
},
{
layerId = m002;
shapes = (
{
closed = 1;
nodes = (
(158,0,l),
(158,479,ls),
(158,568,o),
(224,638,o),
(307,638,cs),
(390,638,o),
(456,572,o),
(456,489,cs),
(456,-234,l),
(544,-234,l),
(544,489,ls),
(544,616,o),
(448,716,o),
(325,716,cs),
(248,716,o),
(181,672,o),
(145,606,c),
(158,591,l),
(158,700,l),
(70,700,l),
(70,0,l)
);
}
);
width = 611;
},
{
layerId = m003;
shapes = (
{
closed = 1;
nodes = (
(227,0,l),
(227,451,ls),
(227,512,o),
(271,560,o),
(326,560,cs),
(381,560,o),
(425,516,o),
(425,461,cs),
(425,-234,l),
(589,-234,l),
(589,461,ls),
(589,604,o),
(492,716,o),
(368,716,cs),
(297,716,o),
(236,673,o),
(198,610,c),
(227,579,l),
(227,700,l),
(63,700,l),
(63,0,l)
);
}
);
width = 649;
},
{
layerId = "A4970244-97B1-4FA9-B3E0-2569B3FA35F0";
shapes = (
{
closed = 1;
nodes = (
(48,0,l),
(133,486,ls),
(154,601,o),
(259,692,o),
(373,692,cs),
(487,692,o),
(558,603,o),
(538,488,cs),
(410,-234,l),
(440,-234,l),
(567,486,ls),
(590,613,o),
(505,716,o),
(377,716,cs),
(282,716,o),
(191,657,o),
(145,572,c),
(147,567,l),
(170,700,l),
(141,700,l),
(18,0,l)
);
}
);
width = 581;
},
{
layerId = "E8DB84F4-EFBC-40F4-A45F-BC833EAAD3BD";
shapes = (
{
closed = 1;
nodes = (
(116,0,l),
(200,476,ls),
(215,565,o),
(297,638,o),
(380,638,cs),
(463,638,o),
(515,575,o),
(500,492,cs),
(372,-234,l),
(460,-234,l),
(587,486,ls),
(610,613,o),
(529,716,o),
(406,716,cs),
(329,716,o),
(256,674,o),
(208,608,c),
(220,591,l),
(239,700,l),
(151,700,l),
(28,0,l)
);
}
);
width = 611;
},
{
layerId = "ACA72793-194A-4122-860A-C95C9895C61C";
shapes = (
{
closed = 1;
nodes = (
(185,0,l),
(263,446,ls),
(274,507,o),
(333,560,o),
(388,560,cs),
(443,560,o),
(475,521,o),
(465,466,cs),
(341,-234,l),
(505,-234,l),
(627,456,ls),
(652,599,o),
(570,716,o),
(446,716,cs),
(375,716,o),
(310,678,o),
(261,615,c),
(287,579,l),
(308,700,l),
(144,700,l),
(21,0,l)
);
}
);
width = 649;
}
);
unicode = 544;
},
{
color = 6;
glyphname = Eng;
lastChange = "2025-09-25 14:31:00 +0000";
layers = (
{
anchors = (
{
name = bottom;
pos = (327,-280);
},
{
name = top;
pos = (327,700);
}
);
layerId = m01;
shapes = (
{
closed = 1;
nodes = (
(589,0,l),
(94,700,l),
(65,700,l),
(561,0,l)
);
},
{
closed = 1;
nodes = (
(93,0,l),
(93,700,l),
(65,700,l),
(65,0,l)
);
},
{
closed = 1;
nodes = (
(561,-64,ls),
(561,-86,o),
(543,-104,o),
(521,-104,cs),
(488,-104,l),
(488,-130,l),
(523,-130,ls),
(560,-130,o),
(589,-102,o),
(589,-66,cs),
(589,700,l),
(561,700,l)
);
}
);
width = 654;
},
{
anchors = (
{
name = bottom;
pos = (345,-280);
},
{
name = top;
pos = (345,700);
}
);
layerId = m002;
shapes = (
{
closed = 1;
nodes = (
(649,0,l),
(129,700,l),
(40,700,l),
(561,0,l)
);
},
{
closed = 1;
nodes = (
(128,0,l),
(128,700,l),
(40,700,l),
(40,0,l)
);
},
{
closed = 1;
nodes = (
(561,-40,ls),
(561,-71,o),
(537,-95,o),
(506,-95,cs),
(451,-95,l),
(451,-181,l),
(506,-181,ls),
(586,-181,o),
(649,-118,o),
(649,-38,cs),
(649,700,l),
(561,700,l)
);
}
);
width = 689;
},
{
anchors = (
{
name = bottom;
pos = (373,-280);
},
{
name = top;
pos = (373,700);
}
);
layerId = m003;
shapes = (
{
closed = 1;
nodes = (
(693,0,l),
(214,700,l),
(52,700,l),
(531,0,l)
);
},
{
closed = 1;
nodes = (
(214,0,l),
(214,700,l),
(50,700,l),
(50,0,l)
);
},
{
closed = 1;
nodes = (
(531,-31,ls),
(531,-45,o),
(520,-56,o),
(506,-56,cs),
(451,-56,l),
(451,-212,l),
(506,-212,ls),
(612,-212,o),
(695,-129,o),
(695,-23,cs),
(695,700,l),
(531,700,l)
);
}
);
width = 745;
},
{
anchors = (
{
name = bottom;
pos = (235,-280);
},
{
name = top;
pos = (408,700);
}
);
layerId = "A4970244-97B1-4FA9-B3E0-2569B3FA35F0";
shapes = (
{
closed = 1;
nodes = (
(547,0,l),
(175,700,l),
(146,700,l),
(519,0,l)
);
},
{
closed = 1;
nodes = (
(51,0,l),
(174,700,l),
(146,700,l),
(23,0,l)
);
},
{
closed = 1;
nodes = (
(508,-63,ls),
(504,-85,o),
(481,-104,o),
(459,-104,cs),
(427,-104,l),
(423,-130,l),
(459,-130,ls),
(496,-130,o),
(529,-103,o),
(535,-67,cs),
(670,700,l),
(642,700,l)
);
}
);
width = 654;
},
{
anchors = (
{
name = bottom;
pos = (253,-280);
},
{
name = top;
pos = (426,700);
}
);
layerId = "E8DB84F4-EFBC-40F4-A45F-BC833EAAD3BD";
shapes = (
{
closed = 1;
nodes = (
(607,0,l),
(210,700,l),
(121,700,l),
(519,0,l)
);
},
{
closed = 1;
nodes = (
(86,0,l),
(209,700,l),
(121,700,l),
(-2,0,l)
);
},
{
closed = 1;
nodes = (
(512,-37,ls),
(507,-68,o),
(475,-95,o),
(444,-95,cs),
(392,-95,l),
(377,-181,l),
(435,-181,ls),
(515,-181,o),
(585,-121,o),
(599,-41,cs),
(730,700,l),
(642,700,l)
);
}
);
width = 689;
},
{
anchors = (
{
name = bottom;
pos = (281,-280);
},
{
name = top;
pos = (454,700);
}
);
layerId = "ACA72793-194A-4122-860A-C95C9895C61C";
shapes = (
{
closed = 1;
nodes = (
(651,0,l),
(295,700,l),
(133,700,l),
(489,0,l)
);
},
{
closed = 1;
nodes = (
(172,0,l),
(295,700,l),
(131,700,l),
(8,0,l)
);
},
{
closed = 1;
nodes = (
(484,-26,ls),
(482,-40,o),
(462,-56,o),
(448,-56,cs),
(399,-56,l),
(371,-212,l),
(432,-212,ls),
(538,-212,o),
(629,-134,o),
(648,-28,cs),
(776,700,l),
(612,700,l)
);
}
);
width = 745;
}
);
unicode = 330;
},
{
color = 6;
glyphname = O;
kernLeft = O;
kernRight = O;
lastChange = "2025-09-25 14:31:00 +0000";
layers = (
{
anchors = (
{
name = bottom;
pos = (398,0);
},
{
name = center;
pos = (398,350);
},
{
name = ogonek;
pos = (538,15);
},
{
name = top;
pos = (398,700);
},
{
name = topleft;
pos = (-4,700);
},
{
name = topright;
pos = (487,700);
}
);
layerId = m01;
shapes = (
{
closed = 1;
nodes = (
(603,-16,o),
(764,145,o),
(764,350,cs),
(764,555,o),
(603,716,o),
(398,716,cs),
(193,716,o),
(32,555,o),
(32,350,cs),
(32,145,o),
(193,-16,o),
(398,-16,cs)
);
},
{
closed = 1;
nodes = (
(210,8,o),
(62,158,o),
(62,350,cs),
(62,542,o),
(210,692,o),
(398,692,cs),
(586,692,o),
(734,542,o),
(734,350,cs),
(734,158,o),
(586,8,o),
(398,8,cs)
);
}
);
width = 796;
},
{
anchors = (
{
name = bottom;
pos = (402,0);
},
{
name = center;
pos = (402,350);
},
{
name = ogonek;
pos = (528,15);
},
{
name = top;
pos = (402,700);
},
{
name = topleft;
pos = (15,700);
},
{
name = topright;
pos = (490,700);
}
);
layerId = m002;
shapes = (
{
closed = 1;
nodes = (
(607,-16,o),
(768,145,o),
(768,350,cs),
(768,555,o),
(607,716,o),
(402,716,cs),
(197,716,o),
(36,555,o),
(36,350,cs),
(36,145,o),
(197,-16,o),
(402,-16,cs)
);
},
{
closed = 1;
nodes = (
(237,66,o),
(126,177,o),
(126,350,cs),
(126,523,o),
(237,634,o),
(402,634,cs),
(567,634,o),
(678,523,o),
(678,350,cs),
(678,177,o),
(567,66,o),
(402,66,cs)
);
}
);
width = 804;
},
{
anchors = (
{
name = bottom;
pos = (408,0);
},
{
name = center;
pos = (408,350);
},
{
name = ogonek;
pos = (531,15);
},
{
name = top;
pos = (408,700);
},
{
name = topleft;
pos = (16,700);
},
{
name = topright;
pos = (500,700);
}
);
layerId = m003;
shapes = (
{
closed = 1;
nodes = (
(619,-16,o),
(784,145,o),
(784,350,cs),
(784,555,o),
(619,716,o),
(408,716,cs),
(197,716,o),
(32,555,o),
(32,350,cs),
(32,145,o),
(197,-16,o),
(408,-16,cs)
);
},
{
closed = 1;
nodes = (
(290,142,o),
(198,234,o),
(198,350,cs),
(198,466,o),
(290,558,o),
(408,558,cs),
(526,558,o),
(618,466,o),
(618,350,cs),
(618,234,o),
(526,142,o),
(408,142,cs)
);
}
);
width = 816;
},
{
anchors = (
{
name = bottom;
pos = (356,0);
},
{
name = center;
pos = (417,350);
},
{
name = ogonek;
pos = (494,10);
},
{
name = top;
pos = (479,700);
},
{
name = topleft;
pos = (77,700);
},
{
name = topright;
pos = (568,700);
}
);
layerId = "A4970244-97B1-4FA9-B3E0-2569B3FA35F0";
shapes = (
{
closed = 1;
nodes = (
(559,-16,o),
(747,144,o),
(783,349,cs),
(819,554,o),
(686,716,o),
(481,716,cs),
(276,716,o),
(88,556,o),
(52,351,cs),
(15,146,o),
(149,-16,o),
(354,-16,cs)
);
},
{
closed = 1;
nodes = (
(168,8,o),
(47,157,o),
(81,349,cs),
(115,541,o),
(291,692,o),
(479,692,cs),
(667,692,o),
(787,543,o),
(754,351,cs),
(720,159,o),
(544,8,o),
(356,8,cs)
);
}
);
width = 796;
},
{
anchors = (
{
name = bottom;
pos = (360,0);
},
{
name = center;
pos = (422,350);
},
{
name = ogonek;
pos = (488,10);
},
{
name = top;
pos = (484,700);
},
{
name = topleft;
pos = (97,700);
},
{
name = topright;
pos = (572,700);
}
);
layerId = "E8DB84F4-EFBC-40F4-A45F-BC833EAAD3BD";
shapes = (
{
closed = 1;
nodes = (
(566,-16,o),
(751,142,o),
(787,347,cs),
(824,552,o),
(688,716,o),
(483,716,cs),
(279,716,o),
(93,558,o),
(56,353,cs),
(21,148,o),
(155,-16,o),
(360,-16,cs)
);
},
{
closed = 1;
nodes = (
(204,66,o),
(115,174,o),
(145,347,cs),
(176,520,o),
(310,634,o),
(475,634,cs),
(641,634,o),
(729,526,o),
(698,353,cs),
(668,180,o),
(534,66,o),
(369,66,cs)
);
}
);
width = 804;
},
{
anchors = (
{
name = bottom;
pos = (366,0);
},
{
name = center;
pos = (427,350);
},
{
name = ogonek;
pos = (497,10);
},
{
name = top;
pos = (489,700);
},
{
name = topleft;
pos = (97,700);
},
{
name = topright;
pos = (581,700);
}
);
layerId = "ACA72793-194A-4122-860A-C95C9895C61C";
shapes = (
{
closed = 1;
nodes = (
(580,-16,o),
(766,140,o),
(802,345,cs),
(839,550,o),
(697,716,o),
(486,716,cs),
(275,716,o),
(88,560,o),
(52,355,cs),
(16,150,o),
(158,-16,o),
(369,-16,cs)
);
},
{
closed = 1;
nodes = (
(267,142,o),
(196,229,o),
(216,345,cs),
(237,461,o),
(352,558,o),
(470,558,cs),
(588,558,o),
(659,471,o),
(638,355,cs),
(618,239,o),
(503,142,o),
(385,142,cs)
);
}
);
width = 815;
}
);
metricLeft = "=H*0.45";
metricRight = "=|";
unicode = 79;
},
{
glyphname = OU;
lastChange = "2025-10-02 23:17:35 +0000";
layers = (
{
layerId = m01;
shapes = (
{
closed = 1;
nodes = (
(433,-14,o),
(539,74,o),
(539,200,cs),
(539,327,o),
(433,415,o),
(286,415,cs),
(137,415,o),
(32,326,o),
(32,200,cs),
(32,75,o),
(137,-14,o),
(286,-14,cs)
);
},
{
closed = 1;
nodes = (
(152,9,o),
(60,87,o),
(60,200,cs),
(60,313,o),
(152,392,o),
(286,392,cs),
(419,392,o),
(511,313,o),
(511,200,cs),
(511,88,o),
(420,9,o),
(286,9,cs)
);
},
{
closed = 1;
nodes = (
(492,770,l),
(492,604,ls),
(492,495,o),
(400,423,o),
(286,423,cs),
(170,423,o),
(78,498,o),
(78,595,cs),
(78,770,l),
(50,770,l),
(50,595,ls),
(50,487,o),
(150,401,o),
(275,401,cs),
(382,401,o),
(521,463,o),
(521,604,cs),
(521,770,l)
);
}
);
width = 609;
},
{
layerId = m002;
shapes = (
{
closed = 1;
nodes = (
(443,-14,o),
(543,69,o),
(543,200,cs),
(543,332,o),
(443,415,o),
(290,415,cs),
(136,415,o),
(36,332,o),
(36,200,cs),
(36,69,o),
(136,-14,o),
(290,-14,cs)
);
},
{
closed = 1;
nodes = (
(187,63,o),
(121,116,o),
(121,200,cs),
(121,284,o),
(187,338,o),
(290,338,cs),
(392,338,o),
(458,284,o),
(458,200,cs),
(458,117,o),
(393,63,o),
(290,63,cs)
);
},
{
closed = 1;
nodes = (
(441,774,l),
(441,574,ls),
(441,496,o),
(380,448,o),
(290,448,cs),
(199,448,o),
(138,494,o),
(139,565,cs),
(142,774,l),
(57,774,l),
(54,564,ls),
(52,446,o),
(144,371,o),
(279,371,cs),
(420,371,o),
(525,447,o),
(526,574,cs),
(528,774,l)
);
}
);
width = 623;
},
{
layerId = m003;
shapes = (
{
closed = 1;
nodes = (
(445,-7,o),
(544,76,o),
(544,210,cs),
(544,348,o),
(445,434,o),
(287,434,cs),
(130,434,o),
(32,348,o),
(32,210,cs),
(32,77,o),
(130,-7,o),
(287,-7,cs)
);
},
{
closed = 1;
nodes = (
(215,120,o),
(170,155,o),
(170,210,cs),
(170,269,o),
(214,307,o),
(287,307,cs),
(361,307,o),
(406,269,o),
(406,210,cs),
(406,155,o),
(361,120,o),
(287,120,cs)
);
},
{
closed = 1;
nodes = (
(387,771,l),
(387,573,ls),
(387,526,o),
(349,497,o),
(287,497,cs),
(227,497,o),
(189,525,o),
(190,570,cs),
(194,771,l),
(56,771,l),
(52,554,ls),
(50,434,o),
(137,360,o),
(277,360,cs),
(431,360,o),
(524,437,o),
(525,563,cs),
(526,771,l)
);
}
);
width = 616;
},
{
layerId = "A4970244-97B1-4FA9-B3E0-2569B3FA35F0";
shapes = (
{
closed = 1;
nodes = (
(389,-14,o),
(509,73,o),
(531,199,cs),
(554,326,o),
(462,415,o),
(315,415,cs),
(166,415,o),
(47,327,o),
(25,201,cs),
(3,76,o),
(93,-14,o),
(242,-14,cs)
);
},
{
closed = 1;
nodes = (
(110,9,o),
(32,86,o),
(52,199,cs),
(72,312,o),
(179,392,o),
(313,392,cs),
(446,392,o),
(524,314,o),
(504,201,cs),
(484,89,o),
(378,9,o),
(244,9,cs)
);
},
{
closed = 1;
nodes = (
(585,770,l),
(556,605,ls),
(537,496,o),
(431,423,o),
(317,423,cs),
(201,423,o),
(123,497,o),
(140,594,cs),
(171,770,l),
(143,770,l),
(112,596,ls),
(93,488,o),
(179,401,o),
(304,401,cs),
(411,401,o),
(560,462,o),
(585,603,cs),
(614,770,l)
);
}
);
width = 608;
},
{
layerId = "E8DB84F4-EFBC-40F4-A45F-BC833EAAD3BD";
shapes = (
{
closed = 1;
nodes = (
(401,-14,o),
(512,66,o),
(535,197,cs),
(558,329,o),
(470,415,o),
(317,415,cs),
(163,415,o),
(52,335,o),
(29,203,cs),
(6,72,o),
(94,-14,o),
(248,-14,cs)
);
},
{
closed = 1;
nodes = (
(152,63,o),
(98,113,o),
(113,197,cs),
(128,281,o),
(207,338,o),
(310,338,cs),
(412,338,o),
(466,287,o),
(451,203,cs),
(436,120,o),
(358,63,o),
(255,63,cs)
);
},
{
closed = 1;
nodes = (
(535,774,l),
(500,577,ls),
(486,499,o),
(413,448,o),
(323,448,cs),
(232,448,o),
(182,491,o),
(195,562,cs),
(236,774,l),
(151,774,l),
(111,567,ls),
(88,449,o),
(170,371,o),
(305,371,cs),
(446,371,o),
(561,444,o),
(584,571,cs),
(622,774,l)
);
}
);
width = 623;
},
{
layerId = "ACA72793-194A-4122-860A-C95C9895C61C";
shapes = (
{
closed = 1;
nodes = (
(408,-7,o),
(515,71,o),
(538,205,cs),
(563,343,o),
(474,434,o),
(316,434,cs),
(159,434,o),
(53,353,o),
(28,215,cs),
(5,82,o),
(93,-7,o),
(250,-7,cs)
);
},
{
closed = 1;
nodes = (
(189,120,o),
(155,150,o),
(164,205,cs),
(175,264,o),
(232,307,o),
(305,307,cs),
(379,307,o),
(413,274,o),
(402,215,cs),
(393,160,o),
(335,120,o),
(261,120,cs)
);
},
{
closed = 1;
nodes = (
(481,771,l),
(447,578,ls),
(439,531,o),
(389,497,o),
(327,497,cs),
(267,497,o),
(239,520,o),
(248,565,cs),
(288,771,l),
(150,771,l),
(109,559,ls),
(86,439,o),
(164,360,o),
(304,360,cs),
(458,360,o),
(558,432,o),
(582,558,cs),
(620,771,l)
);
}
);
width = 616;
}
);
metricLeft = O;
metricRight = H;
unicode = 546;
},
{
glyphname = Obarred;
kernLeft = O;
kernRight = O;
lastChange = "2025-10-01 14:38:13 +0000";
layers = (
{
anchors = (
{
name = bottom;
pos = (398,0);
},
{
name = center;
pos = (398,350);
},
{
name = ogonek;
pos = (538,15);
},
{
name = top;
pos = (398,700);
},
{
name = topleft;
pos = (-4,700);
},
{
name = topright;
pos = (487,700);
}
);
layerId = m01;
shapes = (
{
closed = 1;
nodes = (
(603,-16,o),
(764,145,o),
(764,350,cs),
(764,555,o),
(603,716,o),
(398,716,cs),
(193,716,o),
(32,555,o),
(32,350,cs),
(32,145,o),
(193,-16,o),
(398,-16,cs)
);
},
{
closed = 1;
nodes = (
(210,8,o),
(62,158,o),
(62,350,cs),
(62,542,o),
(210,692,o),
(398,692,cs),
(586,692,o),
(734,542,o),
(734,350,cs),
(734,158,o),
(586,8,o),
(398,8,cs)
);
},
{
closed = 1;
nodes = (
(44,338,l),
(752,338,l),
(752,362,l),
(44,362,l)
);
}
);
width = 796;
},
{
anchors = (
{
name = bottom;
pos = (402,0);
},
{
name = center;
pos = (402,350);
},
{
name = ogonek;
pos = (528,15);
},
{
name = top;
pos = (402,700);
},
{
name = topleft;
pos = (15,700);
},
{
name = topright;
pos = (490,700);
}
);
layerId = m002;
shapes = (
{
closed = 1;
nodes = (
(607,-16,o),
(768,145,o),
(768,350,cs),
(768,555,o),
(607,716,o),
(402,716,cs),
(197,716,o),
(36,555,o),
(36,350,cs),
(36,145,o),
(197,-16,o),
(402,-16,cs)
);
},
{
closed = 1;
nodes = (
(237,66,o),
(126,177,o),
(126,350,cs),
(126,523,o),
(237,634,o),
(402,634,cs),
(567,634,o),
(678,523,o),
(678,350,cs),
(678,177,o),
(567,66,o),
(402,66,cs)
);
},
{
closed = 1;
nodes = (
(61,315,l),
(735,315,l),
(735,385,l),
(61,385,l)
);
}
);
width = 804;
},
{
anchors = (
{
name = bottom;
pos = (408,0);
},
{
name = center;
pos = (408,350);
},
{
name = ogonek;
pos = (531,15);
},
{
name = top;
pos = (408,700);
},
{
name = topleft;
pos = (16,700);
},
{
name = topright;
pos = (500,700);
}
);
layerId = m003;
shapes = (
{
closed = 1;
nodes = (
(619,-16,o),
(784,145,o),
(784,350,cs),
(784,555,o),
(619,716,o),
(408,716,cs),
(197,716,o),
(32,555,o),
(32,350,cs),
(32,145,o),
(197,-16,o),
(408,-16,cs)
);
},
{
closed = 1;
nodes = (
(290,142,o),
(198,234,o),
(198,350,cs),
(198,466,o),
(290,558,o),
(408,558,cs),
(526,558,o),
(618,466,o),
(618,350,cs),
(618,234,o),
(526,142,o),
(408,142,cs)
);
},
{
closed = 1;
nodes = (
(61,300,l),
(735,300,l),
(735,410,l),
(61,410,l)
);
}
);
width = 816;
},
{
anchors = (
{
name = bottom;
pos = (356,0);
},
{
name = center;
pos = (417,350);
},
{
name = ogonek;
pos = (494,10);
},
{
name = top;
pos = (479,700);
},
{
name = topleft;
pos = (77,700);
},
{
name = topright;
pos = (568,700);
}
);
layerId = "A4970244-97B1-4FA9-B3E0-2569B3FA35F0";
shapes = (
{
closed = 1;
nodes = (
(559,-16,o),
(747,144,o),
(783,349,cs),
(819,554,o),
(686,716,o),
(481,716,cs),
(276,716,o),
(88,556,o),
(52,351,cs),
(15,146,o),
(149,-16,o),
(354,-16,cs)
);
},
{
closed = 1;
nodes = (
(168,8,o),
(47,157,o),
(81,349,cs),
(115,541,o),
(291,692,o),
(479,692,cs),
(667,692,o),
(787,543,o),
(754,351,cs),
(720,159,o),
(544,8,o),
(356,8,cs)
);
},
{
closed = 1;
nodes = (
(61,338,l),
(769,338,l),
(774,362,l),
(66,362,l)
);
}
);
width = 796;
},
{
anchors = (
{
name = bottom;
pos = (360,0);
},
{
name = center;
pos = (422,350);
},
{
name = ogonek;
pos = (488,10);
},
{
name = top;
pos = (484,700);
},
{
name = topleft;
pos = (97,700);
},
{
name = topright;
pos = (572,700);
}
);
layerId = "E8DB84F4-EFBC-40F4-A45F-BC833EAAD3BD";
shapes = (
{
closed = 1;
nodes = (
(566,-16,o),
(751,142,o),
(787,347,cs),
(824,552,o),
(688,716,o),
(483,716,cs),
(279,716,o),
(93,558,o),
(56,353,cs),
(21,148,o),
(155,-16,o),
(360,-16,cs)
);
},
{
closed = 1;
nodes = (
(204,66,o),
(115,174,o),
(145,347,cs),
(176,520,o),
(310,634,o),
(475,634,cs),
(641,634,o),
(729,526,o),
(698,353,cs),
(668,180,o),
(534,66,o),
(369,66,cs)
);
},
{
closed = 1;
nodes = (
(74,315,l),
(748,315,l),
(761,385,l),
(87,385,l)
);
}
);
width = 804;
},
{
anchors = (
{
name = bottom;
pos = (366,0);
},
{
name = center;
pos = (427,350);
},
{
name = ogonek;
pos = (497,10);
},
{
name = top;
pos = (489,700);
},
{
name = topleft;
pos = (97,700);
},
{
name = topright;
pos = (581,700);
}
);
layerId = "ACA72793-194A-4122-860A-C95C9895C61C";
shapes = (
{
closed = 1;
nodes = (
(580,-16,o),
(766,140,o),
(802,345,cs),
(839,550,o),
(697,716,o),
(486,716,cs),
(275,716,o),
(88,560,o),
(52,355,cs),
(16,150,o),
(158,-16,o),
(369,-16,cs)
);
},
{
closed = 1;
nodes = (
(267,142,o),
(196,229,o),
(216,345,cs),
(237,461,o),
(352,558,o),
(470,558,cs),
(588,558,o),
(659,471,o),
(638,355,cs),
(618,239,o),
(503,142,o),
(385,142,cs)
);
},
{
closed = 1;
nodes = (
(72,300,l),
(746,300,l),
(765,410,l),
(91,410,l)
);
}
);
width = 815;
}
);
metricLeft = O;
metricRight = O;
unicode = 415;
},
{
color = 6;
glyphname = Ohorn;
lastChange = "2025-09-25 14:31:00 +0000";
layers = (
{
anchors = (
{
name = bottom;
pos = (402,0);
},
{
name = center;
pos = (398,350);
},
{
name = ogonek;
pos = (538,15);
},
{
name = top;
pos = (402,700);
},
{
name = topleft;
pos = (-4,700);
},
{
name = topright;
pos = (628,816);
}
);
layerId = m01;
shapes = (
{
closed = 1;
nodes = (
(603,-16,o),
(764,145,o),
(764,350,cs),
(764,555,o),
(603,716,o),
(398,716,cs),
(193,716,o),
(32,555,o),
(32,350,cs),
(32,145,o),
(193,-16,o),
(398,-16,cs)
);
},
{
closed = 1;
nodes = (
(210,8,o),
(62,158,o),
(62,350,cs),
(62,542,o),
(210,692,o),
(398,692,cs),
(586,692,o),
(734,542,o),
(734,350,cs),
(734,158,o),
(586,8,o),
(398,8,cs)
);
},
{
closed = 1;
nodes = (
(542,676,l),
(579,676,o),
(608,704,o),
(608,740,c),
(608,816,l),
(582,816,l),
(582,740,l),
(582,718,o),
(564,700,o),
(542,700,c),
(507,700,l),
(507,676,l)
);
}
);
width = 796;
},
{
anchors = (
{
name = bottom;
pos = (407,0);
},
{
name = center;
pos = (402,350);
},
{
name = ogonek;
pos = (528,15);
},
{
name = top;
pos = (407,700);
},
{
name = topleft;
pos = (15,700);
},
{
name = topright;
pos = (666,816);
}
);
layerId = m002;
shapes = (
{
closed = 1;
nodes = (
(607,-16,o),
(768,145,o),
(768,350,cs),
(768,555,o),
(607,716,o),
(402,716,cs),
(197,716,o),
(36,555,o),
(36,350,cs),
(36,145,o),
(197,-16,o),
(402,-16,cs)
);
},
{
closed = 1;
nodes = (
(237,66,o),
(126,177,o),
(126,350,cs),
(126,523,o),
(237,634,o),
(402,634,cs),
(567,634,o),
(678,523,o),
(678,350,cs),
(678,177,o),
(567,66,o),
(402,66,cs)
);
},
{
closed = 1;
nodes = (
(565,626,l),
(622,626,o),
(666,670,o),
(666,725,c),
(666,816,l),
(590,816,l),
(590,725,l),
(590,711,o),
(579,700,o),
(565,700,c),
(510,700,l),
(510,626,l)
);
}
);
width = 804;
},
{
anchors = (
{
name = bottom;
pos = (412,0);
},
{
name = center;
pos = (408,350);
},
{
name = ogonek;
pos = (531,15);
},
{
name = top;
pos = (412,700);
},
{
name = topleft;
pos = (16,700);
},
{
name = topright;
pos = (766,816);
}
);
layerId = m003;
shapes = (
{
closed = 1;
nodes = (
(619,-16,o),
(784,145,o),
(784,350,cs),
(784,555,o),
(619,716,o),
(408,716,cs),
(197,716,o),
(32,555,o),
(32,350,cs),
(32,145,o),
(197,-16,o),
(408,-16,cs)
);
},
{
closed = 1;
nodes = (
(290,142,o),
(198,234,o),
(198,350,cs),
(198,466,o),
(290,558,o),
(408,558,cs),
(526,558,o),
(618,466,o),
(618,350,cs),
(618,234,o),
(526,142,o),
(408,142,cs)
);
},
{
closed = 1;
nodes = (
(585,556,l),
(681,556,o),
(756,630,o),
(756,725,c),
(756,816,l),
(610,816,l),
(610,725,l),
(610,711,o),
(599,700,o),
(585,700,c),
(520,700,l),
(520,556,l)
);
}
);
width = 816;
},
{
anchors = (
{
name = bottom;
pos = (402,0);
},
{
name = center;
pos = (417,350);
},
{
name = ogonek;
pos = (494,10);
},
{
name = top;
pos = (482,700);
},
{
name = topleft;
pos = (77,700);
},
{
name = topright;
pos = (730,816);
}
);
layerId = "A4970244-97B1-4FA9-B3E0-2569B3FA35F0";
shapes = (
{
closed = 1;
nodes = (
(558,-16,o),
(747,145,o),
(783,350,cs),
(820,555,o),
(687,716,o),
(482,716,cs),
(277,716,o),
(88,555,o),
(51,350,cs),
(15,145,o),
(148,-16,o),
(353,-16,cs)
);
},
{
closed = 1;
nodes = (
(169,8,o),
(48,158,o),
(81,350,cs),
(115,542,o),
(290,692,o),
(478,692,cs),
(666,692,o),
(787,542,o),
(753,350,cs),
(720,158,o),
(545,8,o),
(357,8,cs)
);
},
{
closed = 1;
nodes = (
(619,676,l),
(656,676,o),
(690,704,o),
(696,740,c),
(710,816,l),
(684,816,l),
(670,740,l),
(666,718,o),
(645,700,o),
(623,700,c),
(588,700,l),
(584,676,l)
);
}
);
width = 796;
},
{
anchors = (
{
name = bottom;
pos = (407,0);
},
{
name = center;
pos = (422,350);
},
{
name = ogonek;
pos = (488,10);
},
{
name = top;
pos = (467,700);
},
{
name = topleft;
pos = (97,700);
},
{
name = topright;
pos = (769,816);
}
);
layerId = "E8DB84F4-EFBC-40F4-A45F-BC833EAAD3BD";
shapes = (
{
closed = 1;
nodes = (
(562,-16,o),
(751,145,o),
(787,350,cs),
(824,555,o),
(691,716,o),
(486,716,cs),
(281,716,o),
(92,555,o),
(55,350,cs),
(19,145,o),
(152,-16,o),
(357,-16,cs)
);
},
{
closed = 1;
nodes = (
(206,66,o),
(115,177,o),
(145,350,cs),
(176,523,o),
(306,634,o),
(471,634,cs),
(636,634,o),
(728,523,o),
(697,350,cs),
(667,177,o),
(536,66,o),
(371,66,cs)
);
},
{
closed = 1;
nodes = (
(633,626,l),
(690,626,o),
(742,670,o),
(752,725,c),
(768,816,l),
(692,816,l),
(676,725,l),
(673,711,o),
(660,700,o),
(646,700,c),
(591,700,l),
(578,626,l)
);
}
);
width = 804;
},
{
anchors = (
{
name = bottom;
pos = (412,0);
},
{
name = center;
pos = (427,350);
},
{
name = ogonek;
pos = (497,10);
},
{
name = top;
pos = (462,700);
},
{
name = topleft;
pos = (97,700);
},
{
name = topright;
pos = (868,816);
}
);
layerId = "ACA72793-194A-4122-860A-C95C9895C61C";
shapes = (
{
closed = 1;
nodes = (
(574,-16,o),
(767,145,o),
(803,350,cs),
(840,555,o),
(703,716,o),
(492,716,cs),
(281,716,o),
(88,555,o),
(51,350,cs),
(15,145,o),
(152,-16,o),
(363,-16,cs)
);
},
{
closed = 1;
nodes = (
(273,142,o),
(197,234,o),
(217,350,cs),
(238,466,o),
(346,558,o),
(464,558,cs),
(582,558,o),
(658,466,o),
(637,350,cs),
(617,234,o),
(509,142,o),
(391,142,cs)
);
},
{
closed = 1;
nodes = (
(641,556,l),
(737,556,o),
(825,630,o),
(842,725,c),
(858,816,l),
(712,816,l),
(696,725,l),
(693,711,o),
(680,700,o),
(666,700,c),
(601,700,l),
(576,556,l)
);
}
);
width = 815;
}
);
unicode = 416;
},
{
glyphname = "Omega-latin";
lastChange = "2025-10-02 17:11:12 +0000";
layers = (
{
layerId = m01;
shapes = (
{
closed = 1;
nodes = (
(358,-15,o),
(421,52,o),
(446,134,c),
(471,52,o),
(533,-15,o),
(617,-15,cs),
(756,-15,o),
(860,156,o),
(860,348,cs),
(860,533,o),
(782,716,o),
(660,716,c),
(660,689,l),
(757,689,o),
(828,522,o),
(828,348,cs),
(828,167,o),
(733,12,o),
(616,12,cs),
(529,12,o),
(458,111,o),
(458,223,cs),
(458,490,l),
(433,490,l),
(433,223,ls),
(433,111,o),
(361,12,o),
(274,12,cs),
(159,12,o),
(64,166,o),
(64,348,cs),
(64,524,o),
(135,689,o),
(231,689,c),
(231,716,l),
(109,716,o),
(32,532,o),
(32,348,cs),
(32,156,o),
(136,-15,o),
(274,-15,cs)
);
}
);
width = 892;
},
{
layerId = m002;
shapes = (
{
closed = 1;
nodes = (
(386,-19,o),
(446,28,o),
(480,97,c),
(513,30,o),
(572,-19,o),
(651,-19,cs),
(821,-19,o),
(924,169,o),
(924,358,cs),
(924,572,o),
(836,716,o),
(694,716,c),
(694,631,l),
(771,631,o),
(832,532,o),
(832,358,cs),
(832,204,o),
(759,66,o),
(664,66,cs),
(578,66,o),
(515,150,o),
(515,248,cs),
(515,490,l),
(444,490,l),
(444,248,ls),
(444,149,o),
(394,66,o),
(308,66,cs),
(205,66,o),
(128,203,o),
(128,358,cs),
(128,533,o),
(189,631,o),
(265,631,c),
(265,716,l),
(123,716,o),
(36,571,o),
(36,358,cs),
(36,169,o),
(139,-19,o),
(308,-19,cs)
);
}
);
width = 960;
},
{
layerId = m003;
shapes = (
{
closed = 1;
nodes = (
(411,-21,o),
(471,19,o),
(511,79,c),
(551,19,o),
(611,-21,o),
(689,-21,cs),
(869,-21,o),
(990,166,o),
(990,345,cs),
(990,623,o),
(876,716,o),
(725,716,c),
(725,563,l),
(776,563,o),
(828,533,o),
(828,345,cs),
(828,241,o),
(777,132,o),
(698,132,cs),
(614,132,o),
(572,213,o),
(572,301,cs),
(572,515,l),
(449,515,l),
(449,301,ls),
(449,212,o),
(416,132,o),
(333,132,cs),
(247,132,o),
(194,241,o),
(194,345,cs),
(194,532,o),
(245,563,o),
(296,563,c),
(296,716,l),
(146,716,o),
(32,623,o),
(32,345,cs),
(32,166,o),
(153,-21,o),
(333,-21,cs)
);
}
);
width = 1022;
},
{
layerId = "A4970244-97B1-4FA9-B3E0-2569B3FA35F0";
shapes = (
{
closed = 1;
nodes = (
(314,-15,o),
(388,51,o),
(427,133,c),
(438,53,o),
(489,-15,o),
(573,-15,cs),
(712,-15,o),
(845,155,o),
(879,347,cs),
(911,532,o),
(865,716,o),
(743,716,c),
(740,689,l),
(837,689,o),
(877,523,o),
(847,349,cs),
(815,168,o),
(691,12,o),
(574,12,cs),
(487,12,o),
(435,110,o),
(454,222,cs),
(502,490,l),
(477,490,l),
(430,224,ls),
(410,112,o),
(319,12,o),
(232,12,cs),
(117,12,o),
(50,165,o),
(83,347,cs),
(114,523,o),
(215,689,o),
(311,689,c),
(314,716,l),
(192,716,o),
(83,533,o),
(51,349,cs),
(17,157,o),
(92,-15,o),
(230,-15,cs)
);
}
);
width = 892;
},
{
layerId = "E8DB84F4-EFBC-40F4-A45F-BC833EAAD3BD";
shapes = (
{
closed = 1;
nodes = (
(343,-19,o),
(409,25,o),
(455,94,c),
(477,33,o),
(529,-19,o),
(608,-19,cs),
(778,-19,o),
(911,166,o),
(944,355,cs),
(982,569,o),
(916,716,o),
(774,716,c),
(766,631,l),
(843,631,o),
(884,535,o),
(853,361,cs),
(826,207,o),
(725,66,o),
(630,66,cs),
(544,66,o),
(498,147,o),
(516,245,cs),
(559,490,l),
(488,490,l),
(446,251,ls),
(428,152,o),
(360,66,o),
(274,66,cs),
(171,66,o),
(121,200,o),
(148,355,cs),
(179,530,o),
(261,631,o),
(337,631,c),
(345,716,l),
(203,716,o),
(94,574,o),
(57,361,cs),
(24,172,o),
(96,-19,o),
(265,-19,cs)
);
}
);
width = 960;
},
{
layerId = "ACA72793-194A-4122-860A-C95C9895C61C";
shapes = (
{
closed = 1;
nodes = (
(370,-21,o),
(434,14,o),
(485,74,c),
(516,24,o),
(570,-21,o),
(648,-21,cs),
(828,-21,o),
(976,161,o),
(1007,340,cs),
(1056,618,o),
(954,716,o),
(803,716,c),
(787,563,l),
(838,563,o),
(880,538,o),
(847,350,cs),
(829,246,o),
(752,132,o),
(673,132,cs),
(589,132,o),
(566,208,o),
(581,296,cs),
(620,515,l),
(497,515,l),
(460,306,ls),
(445,217,o),
(391,132,o),
(308,132,cs),
(222,132,o),
(193,236,o),
(211,340,cs),
(244,527,o),
(307,563,o),
(358,563,c),
(374,716,l),
(224,716,o),
(100,628,o),
(51,350,cs),
(20,171,o),
(112,-21,o),
(292,-21,cs)
);
}
);
width = 1021;
}
);
metricLeft = O;
metricRight = O;
unicode = 42934;
},
{
color = 6;
glyphname = Oopen;
lastChange = "2025-09-25 14:31:00 +0000";
layers = (
{
anchors = (
{
name = bottom;
pos = (283,0);
},
{
name = top;
pos = (283,700);
}
);
layerId = m01;
shapes = (
{
closed = 1;
nodes = (
(35,665,l),
(76,682,o),
(121,692,o),
(169,692,cs),
(357,692,o),
(505,542,o),
(505,350,cs),
(505,158,o),
(357,8,o),
(169,8,cs),
(121,8,o),
(76,18,o),
(35,35,c),
(35,8,l),
(77,-7,o),
(122,-16,o),
(169,-16,cs),
(374,-16,o),
(535,145,o),
(535,350,cs),
(535,555,o),
(374,716,o),
(169,716,cs),
(122,716,o),
(77,707,o),
(35,692,c)
);
}
);
width = 567;
},
{
anchors = (
{
name = bottom;
pos = (301,0);
},
{
name = top;
pos = (301,700);
}
);
layerId = m002;
shapes = (
{
closed = 1;
nodes = (
(40,590,l),
(84,619,o),
(138,634,o),
(199,634,cs),
(364,634,o),
(475,523,o),
(475,350,cs),
(475,177,o),
(364,66,o),
(199,66,cs),
(138,66,o),
(84,81,o),
(40,110,c),
(40,19,l),
(88,-3,o),
(142,-16,o),
(199,-16,cs),
(404,-16,o),
(565,145,o),
(565,350,cs),
(565,555,o),
(404,716,o),
(199,716,cs),
(142,716,o),
(88,703,o),
(40,681,c)
);
}
);
width = 601;
},
{
anchors = (
{
name = bottom;
pos = (294,0);
},
{
name = top;
pos = (294,700);
}
);
layerId = m003;
shapes = (
{
closed = 1;
nodes = (
(36,503,l),
(73,537,o),
(123,558,o),
(179,558,cs),
(297,558,o),
(389,466,o),
(389,350,cs),
(389,234,o),
(297,142,o),
(179,142,cs),
(123,142,o),
(73,163,o),
(36,197,c),
(36,11,l),
(80,-7,o),
(128,-16,o),
(179,-16,cs),
(390,-16,o),
(555,145,o),
(555,350,cs),
(555,555,o),
(390,716,o),
(179,716,cs),
(128,716,o),
(80,707,o),
(36,689,c)
);
}
);
width = 587;
},
{
anchors = (
{
name = bottom;
pos = (242,0);
},
{
name = top;
pos = (365,700);
}
);
layerId = "A4970244-97B1-4FA9-B3E0-2569B3FA35F0";
shapes = (
{
closed = 1;
nodes = (
(112,665,l),
(156,682,o),
(203,692,o),
(251,692,cs),
(439,692,o),
(559,543,o),
(526,351,cs),
(492,159,o),
(316,8,o),
(128,8,cs),
(80,8,o),
(37,18,o),
(-1,35,c),
(-4,8,l),
(35,-7,o),
(79,-16,o),
(126,-16,cs),
(331,-16,o),
(519,144,o),
(555,349,cs),
(591,554,o),
(458,716,o),
(253,716,cs),
(206,716,o),
(159,707,o),
(115,692,c)
);
}
);
width = 568;
},
{
anchors = (
{
name = bottom;
pos = (262,0);
},
{
name = top;
pos = (385,700);
}
);
layerId = "E8DB84F4-EFBC-40F4-A45F-BC833EAAD3BD";
shapes = (
{
closed = 1;
nodes = (
(107,588,l),
(156,617,o),
(214,634,o),
(275,634,cs),
(440,634,o),
(528,526,o),
(498,353,cs),
(467,180,o),
(333,66,o),
(168,66,cs),
(107,66,o),
(56,79,o),
(17,108,c),
(7,20,l),
(51,-2,o),
(103,-16,o),
(160,-16,cs),
(365,-16,o),
(551,142,o),
(587,347,cs),
(623,552,o),
(488,716,o),
(283,716,cs),
(226,716,o),
(170,704,o),
(118,682,c)
);
}
);
width = 604;
},
{
anchors = (
{
name = bottom;
pos = (258,0);
},
{
name = top;
pos = (381,700);
}
);
layerId = "ACA72793-194A-4122-860A-C95C9895C61C";
shapes = (
{
closed = 1;
nodes = (
(92,499,l),
(135,533,o),
(191,558,o),
(247,558,cs),
(365,558,o),
(436,471,o),
(415,355,cs),
(395,239,o),
(280,142,o),
(162,142,cs),
(106,142,o),
(61,159,o),
(30,193,c),
(7,13,l),
(48,-5,o),
(95,-16,o),
(146,-16,cs),
(357,-16,o),
(543,140,o),
(579,345,cs),
(616,550,o),
(474,716,o),
(263,716,cs),
(212,716,o),
(163,709,o),
(116,691,c)
);
}
);
width = 592;
}
);
metricLeft = "=|C";
metricRight = O;
unicode = 390;
},
{
color = 6;
glyphname = OE;
kernLeft = O;
kernRight = E;
lastChange = "2025-09-25 14:31:00 +0000";
layers = (
{
anchors = (
{
name = bottom;
pos = (515,0);
},
{
name = top;
pos = (515,700);
}
);
layerId = m01;
shapes = (
{
closed = 1;
nodes = (
(447,-16,o),
(564,84,o),
(586,212,c),
(586,0,l),
(993,0,l),
(993,26,l),
(614,26,l),
(614,348,l),
(973,348,l),
(973,374,l),
(614,374,l),
(614,674,l),
(985,674,l),
(985,700,l),
(586,700,l),
(586,488,l),
(564,616,o),
(447,716,o),
(319,716,cs),
(158,716,o),
(32,555,o),
(32,350,cs),
(32,145,o),
(158,-16,o),
(319,-16,cs)
);
},
{
closed = 1;
nodes = (
(175,10,o),
(60,160,o),
(60,350,cs),
(60,540,o),
(175,690,o),
(322,690,cs),
(469,690,o),
(584,540,o),
(584,350,cs),
(584,160,o),
(469,10,o),
(322,10,cs)
);
}
);
width = 1028;
},
{
anchors = (
{
name = bottom;
pos = (519,0);
},
{
name = top;
pos = (519,700);
}
);
layerId = m002;
shapes = (
{
closed = 1;
nodes = (
(454,-16,o),
(536,23,o),
(591,92,c),
(591,0,l),
(997,0,l),
(997,80,l),
(679,80,l),
(679,322,l),
(977,322,l),
(977,400,l),
(679,400,l),
(679,622,l),
(989,622,l),
(989,700,l),
(591,700,l),
(591,608,l),
(536,677,o),
(454,716,o),
(352,716,cs),
(157,716,o),
(36,576,o),
(36,350,cs),
(36,124,o),
(157,-16,o),
(352,-16,cs)
);
},
{
closed = 1;
nodes = (
(213,66,o),
(126,175,o),
(126,350,cs),
(126,525,o),
(213,634,o),
(352,634,cs),
(491,634,o),
(578,525,o),
(578,350,cs),
(578,175,o),
(491,66,o),
(352,66,cs)
);
}
);
width = 1037;
},
{
anchors = (
{
name = bottom;
pos = (515,0);
},
{
name = top;
pos = (515,700);
}
);
layerId = m003;
shapes = (
{
closed = 1;
nodes = (
(466,-16,o),
(539,32,o),
(587,92,c),
(587,0,l),
(993,0,l),
(993,160,l),
(751,160,l),
(751,283,l),
(973,283,l),
(973,439,l),
(751,439,l),
(751,544,l),
(985,544,l),
(985,700,l),
(587,700,l),
(587,608,l),
(539,668,o),
(466,716,o),
(348,716,cs),
(171,716,o),
(32,555,o),
(32,350,cs),
(32,145,o),
(171,-16,o),
(348,-16,cs)
);
},
{
closed = 1;
nodes = (
(264,142,o),
(198,234,o),
(198,350,cs),
(198,466,o),
(264,558,o),
(348,558,cs),
(438,558,o),
(508,466,o),
(508,350,cs),
(508,234,o),
(438,142,o),
(348,142,cs)
);
}
);
width = 1029;
},
{
anchors = (
{
name = bottom;
pos = (473,0);
},
{
name = top;
pos = (596,700);
}
);
layerId = "A4970244-97B1-4FA9-B3E0-2569B3FA35F0";
shapes = (
{
closed = 1;
nodes = (
(403,-16,o),
(537,83,o),
(581,211,c),
(544,0,l),
(951,0,l),
(955,26,l),
(576,26,l),
(633,348,l),
(992,348,l),
(997,374,l),
(638,374,l),
(691,674,l),
(1062,674,l),
(1066,700,l),
(667,700,l),
(629,487,l),
(630,615,o),
(530,716,o),
(402,716,cs),
(241,716,o),
(88,556,o),
(52,351,cs),
(15,146,o),
(114,-16,o),
(275,-16,cs)
);
},
{
closed = 1;
nodes = (
(133,10,o),
(46,159,o),
(79,349,cs),
(113,539,o),
(255,690,o),
(402,690,cs),
(549,690,o),
(637,541,o),
(604,351,cs),
(570,161,o),
(427,10,o),
(280,10,cs)
);
}
);
width = 1028;
},
{
anchors = (
{
name = bottom;
pos = (477,0);
},
{
name = top;
pos = (600,700);
}
);
layerId = "E8DB84F4-EFBC-40F4-A45F-BC833EAAD3BD";
shapes = (
{
closed = 1;
nodes = (
(412,-16,o),
(499,21,o),
(566,90,c),
(549,0,l),
(955,0,l),
(969,80,l),
(651,80,l),
(693,322,l),
(991,322,l),
(1005,400,l),
(707,400,l),
(746,622,l),
(1056,622,l),
(1070,700,l),
(672,700,l),
(654,606,l),
(611,675,o),
(535,716,o),
(433,716,cs),
(238,716,o),
(96,579,o),
(56,353,cs),
(16,127,o),
(115,-16,o),
(310,-16,cs)
);
},
{
closed = 1;
nodes = (
(179,66,o),
(114,172,o),
(145,347,cs),
(176,522,o),
(286,634,o),
(425,634,cs),
(564,634,o),
(629,528,o),
(598,353,cs),
(567,178,o),
(457,66,o),
(318,66,cs)
);
}
);
width = 1037;
},
{
anchors = (
{
name = bottom;
pos = (473,0);
},
{
name = top;
pos = (596,700);
}
);
layerId = "ACA72793-194A-4122-860A-C95C9895C61C";
shapes = (
{
closed = 1;
nodes = (
(427,-16,o),
(505,28,o),
(564,88,c),
(545,0,l),
(951,0,l),
(979,160,l),
(737,160,l),
(759,283,l),
(981,283,l),
(1008,439,l),
(786,439,l),
(805,544,l),
(1039,544,l),
(1066,700,l),
(668,700,l),
(648,604,l),
(610,664,o),
(544,716,o),
(426,716,cs),
(249,716,o),
(89,560,o),
(52,355,cs),
(16,150,o),
(132,-16,o),
(309,-16,cs)
);
},
{
closed = 1;
nodes = (
(241,142,o),
(196,229,o),
(216,345,cs),
(237,461,o),
(326,558,o),
(410,558,cs),
(500,558,o),
(549,471,o),
(528,355,cs),
(508,239,o),
(415,142,o),
(325,142,cs)
);
}
);
width = 1029;
}
);
metricLeft = O;
metricRight = E;
unicode = 338;
},
{
color = 6;
glyphname = P;
kernLeft = H;
kernRight = P;
lastChange = "2025-10-01 22:21:55 +0000";
layers = (
{
anchors = (
{
name = bottom;
pos = (269,0);
},
{
name = center;
pos = (84,474);
},
{
name = top;
pos = (269,700);
}
);
layerId = m01;
shapes = (
{
closed = 1;
nodes = (
(346,244,ls),
(473,244,o),
(572,344,o),
(572,472,cs),
(572,601,o),
(473,701,o),
(346,700,c),
(82,700,l),
(82,676,l),
(346,676,ls),
(456,676,o),
(542,586,o),
(542,472,cs),
(542,358,o),
(456,268,o),
(346,268,cs),
(82,268,l),
(82,244,l)
);
},
{
closed = 1;
nodes = (
(98,0,l),
(98,700,l),
(70,700,l),
(70,0,l)
);
}
);
width = 604;
},
{
anchors = (
{
name = bottom;
pos = (297,0);
},
{
name = center;
pos = (124,474);
},
{
name = top;
pos = (297,700);
}
);
layerId = m002;
shapes = (
{
closed = 1;
nodes = (
(386,244,ls),
(513,244,o),
(612,344,o),
(612,472,cs),
(612,601,o),
(513,701,o),
(386,700,c),
(122,700,l),
(122,618,l),
(386,618,ls),
(462,618,o),
(522,554,o),
(522,472,cs),
(522,390,o),
(462,326,o),
(386,326,cs),
(122,326,l),
(122,244,l)
);
},
{
closed = 1;
nodes = (
(168,0,l),
(168,700,l),
(80,700,l),
(80,0,l)
);
}
);
width = 648;
},
{
anchors = (
{
name = bottom;
pos = (305,0);
},
{
name = center;
pos = (151,455);
},
{
name = top;
pos = (305,700);
}
);
layerId = m003;
shapes = (
{
closed = 1;
nodes = (
(395,206,ls),
(533,206,o),
(642,315,o),
(642,453,cs),
(642,592,o),
(533,701,o),
(395,700,c),
(152,700,l),
(152,544,l),
(395,544,ls),
(446,544,o),
(486,504,o),
(486,453,cs),
(486,402,o),
(446,362,o),
(395,362,cs),
(152,362,l),
(152,206,l)
);
},
{
closed = 1;
nodes = (
(236,0,l),
(236,700,l),
(72,700,l),
(72,0,l)
);
}
);
width = 674;
},
{
anchors = (
{
name = bottom;
pos = (227,0);
},
{
name = center;
pos = (126,474);
},
{
name = top;
pos = (350,700);
}
);
layerId = "A4970244-97B1-4FA9-B3E0-2569B3FA35F0";
shapes = (
{
closed = 1;
nodes = (
(348,244,ls),
(475,244,o),
(590,343,o),
(613,471,cs),
(636,600,o),
(553,701,o),
(426,700,c),
(163,700,l),
(159,676,l),
(424,676,ls),
(534,676,o),
(603,587,o),
(583,473,cs),
(563,359,o),
(460,268,o),
(350,268,cs),
(87,268,l),
(83,244,l)
);
},
{
closed = 1;
nodes = (
(56,0,l),
(179,700,l),
(151,700,l),
(28,0,l)
);
}
);
width = 604;
},
{
anchors = (
{
name = bottom;
pos = (255,0);
},
{
name = center;
pos = (169,474);
},
{
name = top;
pos = (378,700);
}
);
layerId = "E8DB84F4-EFBC-40F4-A45F-BC833EAAD3BD";
shapes = (
{
closed = 1;
nodes = (
(390,244,ls),
(517,244,o),
(630,341,o),
(652,469,cs),
(675,598,o),
(591,701,o),
(464,700,c),
(203,700,l),
(189,618,l),
(456,618,ls),
(532,618,o),
(578,557,o),
(563,475,cs),
(549,393,o),
(474,326,o),
(398,326,cs),
(137,326,l),
(123,244,l)
);
},
{
closed = 1;
nodes = (
(126,0,l),
(249,700,l),
(161,700,l),
(38,0,l)
);
}
);
width = 648;
},
{
anchors = (
{
name = bottom;
pos = (263,0);
},
{
name = center;
pos = (193,455);
},
{
name = top;
pos = (386,700);
}
);
layerId = "ACA72793-194A-4122-860A-C95C9895C61C";
shapes = (
{
closed = 1;
nodes = (
(395,206,ls),
(533,206,o),
(654,310,o),
(679,448,cs),
(703,587,o),
(609,701,o),
(470,700,c),
(233,700,l),
(206,544,l),
(454,544,ls),
(505,544,o),
(534,509,o),
(525,458,cs),
(516,407,o),
(462,362,o),
(411,362,cs),
(174,362,l),
(146,206,l)
);
},
{
closed = 1;
nodes = (
(194,0,l),
(317,700,l),
(153,700,l),
(30,0,l)
);
}
);
width = 674;
}
);
metricLeft = H;
metricRight = O;
unicode = 80;
},
{
color = 6;
glyphname = Phook;
lastChange = "2025-09-25 14:31:00 +0000";
layers = (
{
layerId = m01;
shapes = (
{
closed = 1;
nodes = (
(486,244,ls),
(613,244,o),
(712,344,o),
(712,472,cs),
(712,601,o),
(613,701,o),
(486,700,c),
(222,700,l),
(222,676,l),
(486,676,ls),
(596,676,o),
(682,586,o),
(682,472,cs),
(682,358,o),
(596,268,o),
(486,268,cs),
(222,268,l),
(222,244,l)
);
},
{
closed = 1;
nodes = (
(238,0,l),
(238,700,l),
(210,700,l),
(210,0,l)
);
},
{
closed = 1;
nodes = (
(98,642,o),
(131,674,o),
(173,674,cs),
(214,674,l),
(214,700,l),
(170,700,ls),
(114,700,o),
(70,656,o),
(70,600,cs),
(70,571,l),
(98,571,l),
(98,601,l)
);
}
);
width = 744;
},
{
layerId = m002;
shapes = (
{
closed = 1;
nodes = (
(523,244,ls),
(650,244,o),
(749,344,o),
(749,472,cs),
(749,601,o),
(650,701,o),
(523,700,c),
(259,700,l),
(259,618,l),
(523,618,ls),
(599,618,o),
(659,554,o),
(659,472,cs),
(659,390,o),
(599,326,o),
(523,326,cs),
(259,326,l),
(259,244,l)
);
},
{
closed = 1;
nodes = (
(305,0,l),
(305,700,l),
(217,700,l),
(217,0,l)
);
},
{
closed = 1;
nodes = (
(158,605,o),
(171,618,o),
(188,618,cs),
(229,618,l),
(229,700,l),
(170,700,ls),
(120,700,o),
(80,660,o),
(80,610,cs),
(80,541,l),
(158,541,l),
(158,588,l)
);
}
);
width = 785;
},
{
layerId = m003;
shapes = (
{
closed = 1;
nodes = (
(580,206,ls),
(718,206,o),
(827,315,o),
(827,453,cs),
(827,592,o),
(718,701,o),
(580,700,c),
(337,700,l),
(337,544,l),
(580,544,ls),
(631,544,o),
(671,504,o),
(671,453,cs),
(671,402,o),
(631,362,o),
(580,362,cs),
(337,362,l),
(337,206,l)
);
},
{
closed = 1;
nodes = (
(421,0,l),
(421,700,l),
(257,700,l),
(257,0,l)
);
},
{
closed = 1;
nodes = (
(204,531,o),
(217,544,o),
(234,544,cs),
(270,544,l),
(270,700,l),
(212,700,ls),
(134,700,o),
(72,638,o),
(72,560,cs),
(72,491,l),
(204,491,l),
(204,514,l)
);
}
);
width = 859;
},
{
layerId = "A4970244-97B1-4FA9-B3E0-2569B3FA35F0";
shapes = (
{
closed = 1;
nodes = (
(488,244,ls),
(615,244,o),
(730,343,o),
(753,471,cs),
(776,600,o),
(693,701,o),
(566,700,c),
(303,700,l),
(299,676,l),
(564,676,ls),
(674,676,o),
(743,587,o),
(723,473,cs),
(703,359,o),
(600,268,o),
(490,268,cs),
(227,268,l),
(223,244,l)
);
},
{
closed = 1;
nodes = (
(196,0,l),
(319,700,l),
(291,700,l),
(168,0,l)
);
},
{
closed = 1;
nodes = (
(169,641,o),
(209,674,o),
(251,674,cs),
(291,674,l),
(295,700,l),
(250,700,ls),
(194,700,o),
(143,657,o),
(134,601,cs),
(128,571,l),
(156,571,l),
(162,600,l)
);
}
);
width = 744;
},
{
layerId = "E8DB84F4-EFBC-40F4-A45F-BC833EAAD3BD";
shapes = (
{
closed = 1;
nodes = (
(527,244,ls),
(654,244,o),
(767,341,o),
(789,469,cs),
(812,598,o),
(728,701,o),
(601,700,c),
(340,700,l),
(326,618,l),
(593,618,ls),
(669,618,o),
(715,557,o),
(700,475,cs),
(686,393,o),
(611,326,o),
(535,326,cs),
(274,326,l),
(260,244,l)
);
},
{
closed = 1;
nodes = (
(263,0,l),
(386,700,l),
(298,700,l),
(175,0,l)
);
},
{
closed = 1;
nodes = (
(222,602,o),
(241,618,o),
(258,618,cs),
(296,618,l),
(310,700,l),
(248,700,ls),
(198,700,o),
(155,663,o),
(146,613,cs),
(133,541,l),
(211,541,l),
(219,585,l)
);
}
);
width = 785;
},
{
layerId = "ACA72793-194A-4122-860A-C95C9895C61C";
shapes = (
{
closed = 1;
nodes = (
(580,206,ls),
(718,206,o),
(839,310,o),
(864,448,cs),
(888,587,o),
(794,701,o),
(655,700,c),
(418,700,l),
(391,544,l),
(639,544,ls),
(690,544,o),
(719,509,o),
(710,458,cs),
(701,407,o),
(647,362,o),
(596,362,cs),
(359,362,l),
(331,206,l)
);
},
{
closed = 1;
nodes = (
(379,0,l),
(502,700,l),
(338,700,l),
(215,0,l)
);
},
{
closed = 1;
nodes = (
(254,526,o),
(276,544,o),
(293,544,cs),
(324,544,l),
(351,700,l),
(287,700,ls),
(209,700,o),
(143,643,o),
(129,565,cs),
(116,491,l),
(248,491,l),
(251,509,l)
);
}
);
width = 859;
}
);
metricLeft = P;
metricRight = P;
unicode = 420;
},
{
color = 6;
glyphname = Thorn;
kernLeft = H;
kernRight = Thorn;
lastChange = "2025-09-25 14:31:00 +0000";
layers = (
{
anchors = (
{
name = bottom;
pos = (267,0);
},
{
name = top;
pos = (267,700);
}
);
layerId = m01;
shapes = (
{
closed = 1;
nodes = (
(326,174,ls),
(428,174,o),
(508,253,o),
(508,354,cs),
(508,456,o),
(428,535,o),
(326,534,c),
(82,534,l),
(82,508,l),
(326,508,ls),
(412,508,o),
(480,440,o),
(480,354,cs),
(480,268,o),
(412,200,o),
(326,200,cs),
(82,200,l),
(82,174,l)
);
},
{
closed = 1;
nodes = (
(98,0,l),
(98,700,l),
(70,700,l),
(70,0,l)
);
}
);
width = 540;
},
{
anchors = (
{
name = bottom;
pos = (307,0);
},
{
name = top;
pos = (307,700);
}
);
layerId = m002;
shapes = (
{
closed = 1;
nodes = (
(366,146,ls),
(487,146,o),
(582,238,o),
(582,354,cs),
(582,471,o),
(487,563,o),
(366,562,c),
(122,562,l),
(122,480,l),
(366,480,ls),
(437,480,o),
(492,425,o),
(492,354,cs),
(492,283,o),
(437,228,o),
(366,228,cs),
(122,228,l),
(122,146,l)
);
},
{
closed = 1;
nodes = (
(168,0,l),
(168,700,l),
(80,700,l),
(80,0,l)
);
}
);
width = 618;
},
{
anchors = (
{
name = bottom;
pos = (341,0);
},
{
name = top;
pos = (341,700);
}
);
layerId = m003;
shapes = (
{
closed = 1;
nodes = (
(396,111,ls),
(540,111,o),
(653,218,o),
(653,354,cs),
(653,491,o),
(540,598,o),
(396,597,c),
(152,597,l),
(152,445,l),
(396,445,ls),
(447,445,o),
(487,405,o),
(487,354,cs),
(487,303,o),
(447,263,o),
(396,263,cs),
(152,263,l),
(152,111,l)
);
},
{
closed = 1;
nodes = (
(236,0,l),
(236,700,l),
(72,700,l),
(72,0,l)
);
}
);
width = 685;
},
{
anchors = (
{
name = bottom;
pos = (225,0);
},
{
name = top;
pos = (348,700);
}
);
layerId = "A4970244-97B1-4FA9-B3E0-2569B3FA35F0";
shapes = (
{
closed = 1;
nodes = (
(315,174,ls),
(417,174,o),
(510,252,o),
(528,353,cs),
(546,455,o),
(479,535,o),
(377,534,c),
(134,534,l),
(129,508,l),
(374,508,ls),
(460,508,o),
(515,441,o),
(500,355,cs),
(485,269,o),
(404,200,o),
(318,200,cs),
(75,200,l),
(70,174,l)
);
},
{
closed = 1;
nodes = (
(56,0,l),
(179,700,l),
(151,700,l),
(28,0,l)
);
}
);
width = 540;
},
{
anchors = (
{
name = bottom;
pos = (265,0);
},
{
name = top;
pos = (388,700);
}
);
layerId = "E8DB84F4-EFBC-40F4-A45F-BC833EAAD3BD";
shapes = (
{
closed = 1;
nodes = (
(352,146,ls),
(473,146,o),
(581,235,o),
(602,351,cs),
(622,468,o),
(541,563,o),
(420,562,c),
(179,562,l),
(164,480,l),
(411,480,ls),
(482,480,o),
(525,428,o),
(513,357,cs),
(500,286,o),
(432,228,o),
(361,228,cs),
(120,228,l),
(105,146,l)
);
},
{
closed = 1;
nodes = (
(126,0,l),
(249,700,l),
(161,700,l),
(38,0,l)
);
}
);
width = 618;
},
{
anchors = (
{
name = bottom;
pos = (299,0);
},
{
name = top;
pos = (422,700);
}
);
layerId = "ACA72793-194A-4122-860A-C95C9895C61C";
shapes = (
{
closed = 1;
nodes = (
(379,111,ls),
(523,111,o),
(648,213,o),
(672,349,cs),
(696,486,o),
(597,598,o),
(453,597,c),
(215,597,l),
(188,445,l),
(438,445,ls),
(489,445,o),
(517,410,o),
(508,359,cs),
(499,308,o),
(445,263,o),
(394,263,cs),
(156,263,l),
(129,111,l)
);
},
{
closed = 1;
nodes = (
(194,0,l),
(317,700,l),
(153,700,l),
(30,0,l)
);
}
);
width = 685;
}
);
metricLeft = P;
metricRight = P;
unicode = 222;
},
{
color = 6;
glyphname = Q;
kernLeft = O;
kernRight = O;
lastChange = "2025-09-25 14:31:00 +0000";
layers = (
{
anchors = (
{
name = bottom;
pos = (402,0);
},
{
name = center;
pos = (398,350);
},
{
name = ogonek;
pos = (520,10);
},
{
name = top;
pos = (402,700);
},
{
name = topleft;
pos = (-4,700);
},
{
name = topright;
pos = (487,700);
}
);
layerId = m01;
shapes = (
{
closed = 1;
nodes = (
(749,-82,l),
(623,75,l),
(600,60,l),
(714,-82,l)
);
},
{
closed = 1;
nodes = (
(603,-16,o),
(764,145,o),
(764,350,cs),
(764,555,o),
(603,716,o),
(398,716,cs),
(193,716,o),
(32,555,o),
(32,350,cs),
(32,145,o),
(193,-16,o),
(398,-16,cs)
);
},
{
closed = 1;
nodes = (
(210,8,o),
(62,158,o),
(62,350,cs),
(62,542,o),
(210,692,o),
(398,692,cs),
(586,692,o),
(734,542,o),
(734,350,cs),
(734,158,o),
(586,8,o),
(398,8,cs)
);
}
);
width = 796;
},
{
anchors = (
{
name = bottom;
pos = (411,0);
},
{
name = center;
pos = (402,350);
},
{
name = ogonek;
pos = (528,10);
},
{
name = top;
pos = (411,700);
},
{
name = topleft;
pos = (15,700);
},
{
name = topright;
pos = (490,700);
}
);
layerId = m002;
shapes = (
{
closed = 1;
nodes = (
(780,-82,l),
(622,116,l),
(548,74,l),
(671,-82,l)
);
},
{
closed = 1;
nodes = (
(607,-16,o),
(768,145,o),
(768,350,cs),
(768,555,o),
(607,716,o),
(402,716,cs),
(197,716,o),
(36,555,o),
(36,350,cs),
(36,145,o),
(197,-16,o),
(402,-16,cs)
);
},
{
closed = 1;
nodes = (
(237,66,o),
(126,177,o),
(126,350,cs),
(126,523,o),
(237,634,o),
(402,634,cs),
(567,634,o),
(678,523,o),
(678,350,cs),
(678,177,o),
(567,66,o),
(402,66,cs)
);
}
);
width = 816;
},
{
anchors = (
{
name = bottom;
pos = (431,0);
},
{
name = center;
pos = (408,350);
},
{
name = ogonek;
pos = (538,10);
},
{
name = top;
pos = (431,700);
},
{
name = topleft;
pos = (16,700);
},
{
name = topright;
pos = (500,700);
}
);
layerId = m003;
shapes = (
{
closed = 1;
nodes = (
(826,-82,l),
(636,148,l),
(518,74,l),
(647,-82,l)
);
},
{
closed = 1;
nodes = (
(619,-16,o),
(784,145,o),
(784,350,cs),
(784,555,o),
(619,716,o),
(408,716,cs),
(197,716,o),
(32,555,o),
(32,350,cs),
(32,145,o),
(197,-16,o),
(408,-16,cs)
);
},
{
closed = 1;
nodes = (
(290,142,o),
(198,234,o),
(198,350,cs),
(198,466,o),
(290,558,o),
(408,558,cs),
(526,558,o),
(618,466,o),
(618,350,cs),
(618,234,o),
(526,142,o),
(408,142,cs)
);
}
);
width = 858;
},
{
anchors = (
{
name = bottom;
pos = (360,0);
},
{
name = center;
pos = (417,350);
},
{
name = ogonek;
pos = (479,10);
},
{
name = top;
pos = (483,700);
},
{
name = topleft;
pos = (77,700);
},
{
name = topright;
pos = (568,700);
}
);
layerId = "A4970244-97B1-4FA9-B3E0-2569B3FA35F0";
shapes = (
{
closed = 1;
nodes = (
(692,-82,l),
(594,75,l),
(568,60,l),
(657,-82,l)
);
},
{
closed = 1;
nodes = (
(559,-16,o),
(747,144,o),
(783,349,cs),
(819,554,o),
(686,716,o),
(481,716,cs),
(276,716,o),
(88,556,o),
(52,351,cs),
(15,146,o),
(149,-16,o),
(354,-16,cs)
);
},
{
closed = 1;
nodes = (
(168,8,o),
(47,157,o),
(81,349,cs),
(115,541,o),
(291,692,o),
(479,692,cs),
(667,692,o),
(787,543,o),
(754,351,cs),
(720,159,o),
(544,8,o),
(356,8,cs)
);
}
);
width = 796;
},
{
anchors = (
{
name = bottom;
pos = (369,0);
},
{
name = center;
pos = (421,350);
},
{
name = ogonek;
pos = (487,10);
},
{
name = top;
pos = (492,700);
},
{
name = topleft;
pos = (96,700);
},
{
name = topright;
pos = (571,700);
}
);
layerId = "E8DB84F4-EFBC-40F4-A45F-BC833EAAD3BD";
shapes = (
{
closed = 1;
nodes = (
(723,-82,l),
(600,116,l),
(519,74,l),
(614,-82,l)
);
},
{
closed = 1;
nodes = (
(565,-16,o),
(751,142,o),
(787,347,cs),
(823,552,o),
(688,716,o),
(483,716,cs),
(278,716,o),
(92,558,o),
(56,353,cs),
(20,148,o),
(155,-16,o),
(360,-16,cs)
);
},
{
closed = 1;
nodes = (
(203,66,o),
(114,174,o),
(145,347,cs),
(175,520,o),
(310,634,o),
(475,634,cs),
(640,634,o),
(728,526,o),
(698,353,cs),
(667,180,o),
(533,66,o),
(368,66,cs)
);
}
);
width = 816;
},
{
anchors = (
{
name = bottom;
pos = (389,0);
},
{
name = center;
pos = (427,350);
},
{
name = ogonek;
pos = (497,10);
},
{
name = top;
pos = (512,700);
},
{
name = topleft;
pos = (97,700);
},
{
name = topright;
pos = (581,700);
}
);
layerId = "ACA72793-194A-4122-860A-C95C9895C61C";
shapes = (
{
closed = 1;
nodes = (
(769,-82,l),
(620,148,l),
(489,74,l),
(590,-82,l)
);
},
{
closed = 1;
nodes = (
(580,-16,o),
(766,140,o),
(802,345,cs),
(839,550,o),
(697,716,o),
(486,716,cs),
(275,716,o),
(89,560,o),
(52,355,cs),
(16,150,o),
(158,-16,o),
(369,-16,cs)
);
},
{
closed = 1;
nodes = (
(267,142,o),
(196,229,o),
(216,345,cs),
(237,461,o),
(352,558,o),
(470,558,cs),
(588,558,o),
(659,471,o),
(638,355,cs),
(618,239,o),
(503,142,o),
(385,142,cs)
);
}
);
width = 858;
}
);
metricLeft = O;
metricRight = O;
unicode = 81;
},
